<?xml version="1.0" encoding="utf-8" standalone="no"?>
<!DOCTYPE svg PUBLIC "-//W3C//DTD SVG 1.1//EN"
  "http://www.w3.org/Graphics/SVG/1.1/DTD/svg11.dtd">
<!-- Created with matplotlib (https://matplotlib.org/) -->
<svg height="345.6pt" version="1.1" viewBox="0 0 460.8 345.6" width="460.8pt" xmlns="http://www.w3.org/2000/svg" xmlns:xlink="http://www.w3.org/1999/xlink">
 <metadata>
  <rdf:RDF xmlns:cc="http://creativecommons.org/ns#" xmlns:dc="http://purl.org/dc/elements/1.1/" xmlns:rdf="http://www.w3.org/1999/02/22-rdf-syntax-ns#">
   <cc:Work>
    <dc:type rdf:resource="http://purl.org/dc/dcmitype/StillImage"/>
    <dc:date>2020-11-09T17:07:29.552282</dc:date>
    <dc:format>image/svg+xml</dc:format>
    <dc:creator>
     <cc:Agent>
      <dc:title>Matplotlib v3.3.2, https://matplotlib.org/</dc:title>
     </cc:Agent>
    </dc:creator>
   </cc:Work>
  </rdf:RDF>
 </metadata>
 <defs>
  <style type="text/css">*{stroke-linecap:butt;stroke-linejoin:round;}</style>
 </defs>
 <g id="figure_1">
  <g id="patch_1">
   <path d="M 0 345.6 
L 460.8 345.6 
L 460.8 0 
L 0 0 
z
" style="fill:#ffffff;"/>
  </g>
  <g id="axes_1">
   <g id="patch_2">
    <path d="M 57.6 307.584 
L 414.72 307.584 
L 414.72 41.472 
L 57.6 41.472 
z
" style="fill:#ffffff;"/>
   </g>
   <g id="matplotlib.axis_1">
    <g id="xtick_1">
     <g id="line2d_1">
      <defs>
       <path d="M 0 0 
L 0 3.5 
" id="m9e2f6481a6" style="stroke:#000000;stroke-width:0.8;"/>
      </defs>
      <g>
       <use style="stroke:#000000;stroke-width:0.8;" x="61.904685" xlink:href="#m9e2f6481a6" y="307.584"/>
      </g>
     </g>
     <g id="text_1">
      <!-- 7.50 -->
      <g transform="translate(50.771873 322.182437)scale(0.1 -0.1)">
       <defs>
        <path d="M 8.203125 72.90625 
L 55.078125 72.90625 
L 55.078125 68.703125 
L 28.609375 0 
L 18.3125 0 
L 43.21875 64.59375 
L 8.203125 64.59375 
z
" id="DejaVuSans-55"/>
        <path d="M 10.6875 12.40625 
L 21 12.40625 
L 21 0 
L 10.6875 0 
z
" id="DejaVuSans-46"/>
        <path d="M 10.796875 72.90625 
L 49.515625 72.90625 
L 49.515625 64.59375 
L 19.828125 64.59375 
L 19.828125 46.734375 
Q 21.96875 47.46875 24.109375 47.828125 
Q 26.265625 48.1875 28.421875 48.1875 
Q 40.625 48.1875 47.75 41.5 
Q 54.890625 34.8125 54.890625 23.390625 
Q 54.890625 11.625 47.5625 5.09375 
Q 40.234375 -1.421875 26.90625 -1.421875 
Q 22.3125 -1.421875 17.546875 -0.640625 
Q 12.796875 0.140625 7.71875 1.703125 
L 7.71875 11.625 
Q 12.109375 9.234375 16.796875 8.0625 
Q 21.484375 6.890625 26.703125 6.890625 
Q 35.15625 6.890625 40.078125 11.328125 
Q 45.015625 15.765625 45.015625 23.390625 
Q 45.015625 31 40.078125 35.4375 
Q 35.15625 39.890625 26.703125 39.890625 
Q 22.75 39.890625 18.8125 39.015625 
Q 14.890625 38.140625 10.796875 36.28125 
z
" id="DejaVuSans-53"/>
        <path d="M 31.78125 66.40625 
Q 24.171875 66.40625 20.328125 58.90625 
Q 16.5 51.421875 16.5 36.375 
Q 16.5 21.390625 20.328125 13.890625 
Q 24.171875 6.390625 31.78125 6.390625 
Q 39.453125 6.390625 43.28125 13.890625 
Q 47.125 21.390625 47.125 36.375 
Q 47.125 51.421875 43.28125 58.90625 
Q 39.453125 66.40625 31.78125 66.40625 
z
M 31.78125 74.21875 
Q 44.046875 74.21875 50.515625 64.515625 
Q 56.984375 54.828125 56.984375 36.375 
Q 56.984375 17.96875 50.515625 8.265625 
Q 44.046875 -1.421875 31.78125 -1.421875 
Q 19.53125 -1.421875 13.0625 8.265625 
Q 6.59375 17.96875 6.59375 36.375 
Q 6.59375 54.828125 13.0625 64.515625 
Q 19.53125 74.21875 31.78125 74.21875 
z
" id="DejaVuSans-48"/>
       </defs>
       <use xlink:href="#DejaVuSans-55"/>
       <use x="63.623047" xlink:href="#DejaVuSans-46"/>
       <use x="95.410156" xlink:href="#DejaVuSans-53"/>
       <use x="159.033203" xlink:href="#DejaVuSans-48"/>
      </g>
     </g>
    </g>
    <g id="xtick_2">
     <g id="line2d_2">
      <g>
       <use style="stroke:#000000;stroke-width:0.8;" x="105.529734" xlink:href="#m9e2f6481a6" y="307.584"/>
      </g>
     </g>
     <g id="text_2">
      <!-- 7.75 -->
      <g transform="translate(94.396922 322.182437)scale(0.1 -0.1)">
       <use xlink:href="#DejaVuSans-55"/>
       <use x="63.623047" xlink:href="#DejaVuSans-46"/>
       <use x="95.410156" xlink:href="#DejaVuSans-55"/>
       <use x="159.033203" xlink:href="#DejaVuSans-53"/>
      </g>
     </g>
    </g>
    <g id="xtick_3">
     <g id="line2d_3">
      <g>
       <use style="stroke:#000000;stroke-width:0.8;" x="149.154783" xlink:href="#m9e2f6481a6" y="307.584"/>
      </g>
     </g>
     <g id="text_3">
      <!-- 8.00 -->
      <g transform="translate(138.021971 322.182437)scale(0.1 -0.1)">
       <defs>
        <path d="M 31.78125 34.625 
Q 24.75 34.625 20.71875 30.859375 
Q 16.703125 27.09375 16.703125 20.515625 
Q 16.703125 13.921875 20.71875 10.15625 
Q 24.75 6.390625 31.78125 6.390625 
Q 38.8125 6.390625 42.859375 10.171875 
Q 46.921875 13.96875 46.921875 20.515625 
Q 46.921875 27.09375 42.890625 30.859375 
Q 38.875 34.625 31.78125 34.625 
z
M 21.921875 38.8125 
Q 15.578125 40.375 12.03125 44.71875 
Q 8.5 49.078125 8.5 55.328125 
Q 8.5 64.0625 14.71875 69.140625 
Q 20.953125 74.21875 31.78125 74.21875 
Q 42.671875 74.21875 48.875 69.140625 
Q 55.078125 64.0625 55.078125 55.328125 
Q 55.078125 49.078125 51.53125 44.71875 
Q 48 40.375 41.703125 38.8125 
Q 48.828125 37.15625 52.796875 32.3125 
Q 56.78125 27.484375 56.78125 20.515625 
Q 56.78125 9.90625 50.3125 4.234375 
Q 43.84375 -1.421875 31.78125 -1.421875 
Q 19.734375 -1.421875 13.25 4.234375 
Q 6.78125 9.90625 6.78125 20.515625 
Q 6.78125 27.484375 10.78125 32.3125 
Q 14.796875 37.15625 21.921875 38.8125 
z
M 18.3125 54.390625 
Q 18.3125 48.734375 21.84375 45.5625 
Q 25.390625 42.390625 31.78125 42.390625 
Q 38.140625 42.390625 41.71875 45.5625 
Q 45.3125 48.734375 45.3125 54.390625 
Q 45.3125 60.0625 41.71875 63.234375 
Q 38.140625 66.40625 31.78125 66.40625 
Q 25.390625 66.40625 21.84375 63.234375 
Q 18.3125 60.0625 18.3125 54.390625 
z
" id="DejaVuSans-56"/>
       </defs>
       <use xlink:href="#DejaVuSans-56"/>
       <use x="63.623047" xlink:href="#DejaVuSans-46"/>
       <use x="95.410156" xlink:href="#DejaVuSans-48"/>
       <use x="159.033203" xlink:href="#DejaVuSans-48"/>
      </g>
     </g>
    </g>
    <g id="xtick_4">
     <g id="line2d_4">
      <g>
       <use style="stroke:#000000;stroke-width:0.8;" x="192.779832" xlink:href="#m9e2f6481a6" y="307.584"/>
      </g>
     </g>
     <g id="text_4">
      <!-- 8.25 -->
      <g transform="translate(181.64702 322.182437)scale(0.1 -0.1)">
       <defs>
        <path d="M 19.1875 8.296875 
L 53.609375 8.296875 
L 53.609375 0 
L 7.328125 0 
L 7.328125 8.296875 
Q 12.9375 14.109375 22.625 23.890625 
Q 32.328125 33.6875 34.8125 36.53125 
Q 39.546875 41.84375 41.421875 45.53125 
Q 43.3125 49.21875 43.3125 52.78125 
Q 43.3125 58.59375 39.234375 62.25 
Q 35.15625 65.921875 28.609375 65.921875 
Q 23.96875 65.921875 18.8125 64.3125 
Q 13.671875 62.703125 7.8125 59.421875 
L 7.8125 69.390625 
Q 13.765625 71.78125 18.9375 73 
Q 24.125 74.21875 28.421875 74.21875 
Q 39.75 74.21875 46.484375 68.546875 
Q 53.21875 62.890625 53.21875 53.421875 
Q 53.21875 48.921875 51.53125 44.890625 
Q 49.859375 40.875 45.40625 35.40625 
Q 44.1875 33.984375 37.640625 27.21875 
Q 31.109375 20.453125 19.1875 8.296875 
z
" id="DejaVuSans-50"/>
       </defs>
       <use xlink:href="#DejaVuSans-56"/>
       <use x="63.623047" xlink:href="#DejaVuSans-46"/>
       <use x="95.410156" xlink:href="#DejaVuSans-50"/>
       <use x="159.033203" xlink:href="#DejaVuSans-53"/>
      </g>
     </g>
    </g>
    <g id="xtick_5">
     <g id="line2d_5">
      <g>
       <use style="stroke:#000000;stroke-width:0.8;" x="236.404881" xlink:href="#m9e2f6481a6" y="307.584"/>
      </g>
     </g>
     <g id="text_5">
      <!-- 8.50 -->
      <g transform="translate(225.272069 322.182437)scale(0.1 -0.1)">
       <use xlink:href="#DejaVuSans-56"/>
       <use x="63.623047" xlink:href="#DejaVuSans-46"/>
       <use x="95.410156" xlink:href="#DejaVuSans-53"/>
       <use x="159.033203" xlink:href="#DejaVuSans-48"/>
      </g>
     </g>
    </g>
    <g id="xtick_6">
     <g id="line2d_6">
      <g>
       <use style="stroke:#000000;stroke-width:0.8;" x="280.029931" xlink:href="#m9e2f6481a6" y="307.584"/>
      </g>
     </g>
     <g id="text_6">
      <!-- 8.75 -->
      <g transform="translate(268.897118 322.182437)scale(0.1 -0.1)">
       <use xlink:href="#DejaVuSans-56"/>
       <use x="63.623047" xlink:href="#DejaVuSans-46"/>
       <use x="95.410156" xlink:href="#DejaVuSans-55"/>
       <use x="159.033203" xlink:href="#DejaVuSans-53"/>
      </g>
     </g>
    </g>
    <g id="xtick_7">
     <g id="line2d_7">
      <g>
       <use style="stroke:#000000;stroke-width:0.8;" x="323.65498" xlink:href="#m9e2f6481a6" y="307.584"/>
      </g>
     </g>
     <g id="text_7">
      <!-- 9.00 -->
      <g transform="translate(312.522167 322.182437)scale(0.1 -0.1)">
       <defs>
        <path d="M 10.984375 1.515625 
L 10.984375 10.5 
Q 14.703125 8.734375 18.5 7.8125 
Q 22.3125 6.890625 25.984375 6.890625 
Q 35.75 6.890625 40.890625 13.453125 
Q 46.046875 20.015625 46.78125 33.40625 
Q 43.953125 29.203125 39.59375 26.953125 
Q 35.25 24.703125 29.984375 24.703125 
Q 19.046875 24.703125 12.671875 31.3125 
Q 6.296875 37.9375 6.296875 49.421875 
Q 6.296875 60.640625 12.9375 67.421875 
Q 19.578125 74.21875 30.609375 74.21875 
Q 43.265625 74.21875 49.921875 64.515625 
Q 56.59375 54.828125 56.59375 36.375 
Q 56.59375 19.140625 48.40625 8.859375 
Q 40.234375 -1.421875 26.421875 -1.421875 
Q 22.703125 -1.421875 18.890625 -0.6875 
Q 15.09375 0.046875 10.984375 1.515625 
z
M 30.609375 32.421875 
Q 37.25 32.421875 41.125 36.953125 
Q 45.015625 41.5 45.015625 49.421875 
Q 45.015625 57.28125 41.125 61.84375 
Q 37.25 66.40625 30.609375 66.40625 
Q 23.96875 66.40625 20.09375 61.84375 
Q 16.21875 57.28125 16.21875 49.421875 
Q 16.21875 41.5 20.09375 36.953125 
Q 23.96875 32.421875 30.609375 32.421875 
z
" id="DejaVuSans-57"/>
       </defs>
       <use xlink:href="#DejaVuSans-57"/>
       <use x="63.623047" xlink:href="#DejaVuSans-46"/>
       <use x="95.410156" xlink:href="#DejaVuSans-48"/>
       <use x="159.033203" xlink:href="#DejaVuSans-48"/>
      </g>
     </g>
    </g>
    <g id="xtick_8">
     <g id="line2d_8">
      <g>
       <use style="stroke:#000000;stroke-width:0.8;" x="367.280029" xlink:href="#m9e2f6481a6" y="307.584"/>
      </g>
     </g>
     <g id="text_8">
      <!-- 9.25 -->
      <g transform="translate(356.147216 322.182437)scale(0.1 -0.1)">
       <use xlink:href="#DejaVuSans-57"/>
       <use x="63.623047" xlink:href="#DejaVuSans-46"/>
       <use x="95.410156" xlink:href="#DejaVuSans-50"/>
       <use x="159.033203" xlink:href="#DejaVuSans-53"/>
      </g>
     </g>
    </g>
    <g id="xtick_9">
     <g id="line2d_9">
      <g>
       <use style="stroke:#000000;stroke-width:0.8;" x="410.905078" xlink:href="#m9e2f6481a6" y="307.584"/>
      </g>
     </g>
     <g id="text_9">
      <!-- 9.50 -->
      <g transform="translate(399.772265 322.182437)scale(0.1 -0.1)">
       <use xlink:href="#DejaVuSans-57"/>
       <use x="63.623047" xlink:href="#DejaVuSans-46"/>
       <use x="95.410156" xlink:href="#DejaVuSans-53"/>
       <use x="159.033203" xlink:href="#DejaVuSans-48"/>
      </g>
     </g>
    </g>
    <g id="text_10">
     <!-- Time [s] -->
     <g transform="translate(215.831094 335.860562)scale(0.1 -0.1)">
      <defs>
       <path d="M -0.296875 72.90625 
L 61.375 72.90625 
L 61.375 64.59375 
L 35.5 64.59375 
L 35.5 0 
L 25.59375 0 
L 25.59375 64.59375 
L -0.296875 64.59375 
z
" id="DejaVuSans-84"/>
       <path d="M 9.421875 54.6875 
L 18.40625 54.6875 
L 18.40625 0 
L 9.421875 0 
z
M 9.421875 75.984375 
L 18.40625 75.984375 
L 18.40625 64.59375 
L 9.421875 64.59375 
z
" id="DejaVuSans-105"/>
       <path d="M 52 44.1875 
Q 55.375 50.25 60.0625 53.125 
Q 64.75 56 71.09375 56 
Q 79.640625 56 84.28125 50.015625 
Q 88.921875 44.046875 88.921875 33.015625 
L 88.921875 0 
L 79.890625 0 
L 79.890625 32.71875 
Q 79.890625 40.578125 77.09375 44.375 
Q 74.3125 48.1875 68.609375 48.1875 
Q 61.625 48.1875 57.5625 43.546875 
Q 53.515625 38.921875 53.515625 30.90625 
L 53.515625 0 
L 44.484375 0 
L 44.484375 32.71875 
Q 44.484375 40.625 41.703125 44.40625 
Q 38.921875 48.1875 33.109375 48.1875 
Q 26.21875 48.1875 22.15625 43.53125 
Q 18.109375 38.875 18.109375 30.90625 
L 18.109375 0 
L 9.078125 0 
L 9.078125 54.6875 
L 18.109375 54.6875 
L 18.109375 46.1875 
Q 21.1875 51.21875 25.484375 53.609375 
Q 29.78125 56 35.6875 56 
Q 41.65625 56 45.828125 52.96875 
Q 50 49.953125 52 44.1875 
z
" id="DejaVuSans-109"/>
       <path d="M 56.203125 29.59375 
L 56.203125 25.203125 
L 14.890625 25.203125 
Q 15.484375 15.921875 20.484375 11.0625 
Q 25.484375 6.203125 34.421875 6.203125 
Q 39.59375 6.203125 44.453125 7.46875 
Q 49.3125 8.734375 54.109375 11.28125 
L 54.109375 2.78125 
Q 49.265625 0.734375 44.1875 -0.34375 
Q 39.109375 -1.421875 33.890625 -1.421875 
Q 20.796875 -1.421875 13.15625 6.1875 
Q 5.515625 13.8125 5.515625 26.8125 
Q 5.515625 40.234375 12.765625 48.109375 
Q 20.015625 56 32.328125 56 
Q 43.359375 56 49.78125 48.890625 
Q 56.203125 41.796875 56.203125 29.59375 
z
M 47.21875 32.234375 
Q 47.125 39.59375 43.09375 43.984375 
Q 39.0625 48.390625 32.421875 48.390625 
Q 24.90625 48.390625 20.390625 44.140625 
Q 15.875 39.890625 15.1875 32.171875 
z
" id="DejaVuSans-101"/>
       <path id="DejaVuSans-32"/>
       <path d="M 8.59375 75.984375 
L 29.296875 75.984375 
L 29.296875 69 
L 17.578125 69 
L 17.578125 -6.203125 
L 29.296875 -6.203125 
L 29.296875 -13.1875 
L 8.59375 -13.1875 
z
" id="DejaVuSans-91"/>
       <path d="M 44.28125 53.078125 
L 44.28125 44.578125 
Q 40.484375 46.53125 36.375 47.5 
Q 32.28125 48.484375 27.875 48.484375 
Q 21.1875 48.484375 17.84375 46.4375 
Q 14.5 44.390625 14.5 40.28125 
Q 14.5 37.15625 16.890625 35.375 
Q 19.28125 33.59375 26.515625 31.984375 
L 29.59375 31.296875 
Q 39.15625 29.25 43.1875 25.515625 
Q 47.21875 21.78125 47.21875 15.09375 
Q 47.21875 7.46875 41.1875 3.015625 
Q 35.15625 -1.421875 24.609375 -1.421875 
Q 20.21875 -1.421875 15.453125 -0.5625 
Q 10.6875 0.296875 5.421875 2 
L 5.421875 11.28125 
Q 10.40625 8.6875 15.234375 7.390625 
Q 20.0625 6.109375 24.8125 6.109375 
Q 31.15625 6.109375 34.5625 8.28125 
Q 37.984375 10.453125 37.984375 14.40625 
Q 37.984375 18.0625 35.515625 20.015625 
Q 33.0625 21.96875 24.703125 23.78125 
L 21.578125 24.515625 
Q 13.234375 26.265625 9.515625 29.90625 
Q 5.8125 33.546875 5.8125 39.890625 
Q 5.8125 47.609375 11.28125 51.796875 
Q 16.75 56 26.8125 56 
Q 31.78125 56 36.171875 55.265625 
Q 40.578125 54.546875 44.28125 53.078125 
z
" id="DejaVuSans-115"/>
       <path d="M 30.421875 75.984375 
L 30.421875 -13.1875 
L 9.71875 -13.1875 
L 9.71875 -6.203125 
L 21.390625 -6.203125 
L 21.390625 69 
L 9.71875 69 
L 9.71875 75.984375 
z
" id="DejaVuSans-93"/>
      </defs>
      <use xlink:href="#DejaVuSans-84"/>
      <use x="57.958984" xlink:href="#DejaVuSans-105"/>
      <use x="85.742188" xlink:href="#DejaVuSans-109"/>
      <use x="183.154297" xlink:href="#DejaVuSans-101"/>
      <use x="244.677734" xlink:href="#DejaVuSans-32"/>
      <use x="276.464844" xlink:href="#DejaVuSans-91"/>
      <use x="315.478516" xlink:href="#DejaVuSans-115"/>
      <use x="367.578125" xlink:href="#DejaVuSans-93"/>
     </g>
    </g>
   </g>
   <g id="matplotlib.axis_2">
    <g id="ytick_1">
     <g id="line2d_10">
      <defs>
       <path d="M 0 0 
L -3.5 0 
" id="m2ad7461f85" style="stroke:#000000;stroke-width:0.8;"/>
      </defs>
      <g>
       <use style="stroke:#000000;stroke-width:0.8;" x="57.6" xlink:href="#m2ad7461f85" y="270.980045"/>
      </g>
     </g>
     <g id="text_11">
      <!-- 0.001 -->
      <g transform="translate(21.971875 274.779264)scale(0.1 -0.1)">
       <defs>
        <path d="M 12.40625 8.296875 
L 28.515625 8.296875 
L 28.515625 63.921875 
L 10.984375 60.40625 
L 10.984375 69.390625 
L 28.421875 72.90625 
L 38.28125 72.90625 
L 38.28125 8.296875 
L 54.390625 8.296875 
L 54.390625 0 
L 12.40625 0 
z
" id="DejaVuSans-49"/>
       </defs>
       <use xlink:href="#DejaVuSans-48"/>
       <use x="63.623047" xlink:href="#DejaVuSans-46"/>
       <use x="95.410156" xlink:href="#DejaVuSans-48"/>
       <use x="159.033203" xlink:href="#DejaVuSans-48"/>
       <use x="222.65625" xlink:href="#DejaVuSans-49"/>
      </g>
     </g>
    </g>
    <g id="ytick_2">
     <g id="line2d_11">
      <g>
       <use style="stroke:#000000;stroke-width:0.8;" x="57.6" xlink:href="#m2ad7461f85" y="222.384214"/>
      </g>
     </g>
     <g id="text_12">
      <!-- 0.002 -->
      <g transform="translate(21.971875 226.183433)scale(0.1 -0.1)">
       <use xlink:href="#DejaVuSans-48"/>
       <use x="63.623047" xlink:href="#DejaVuSans-46"/>
       <use x="95.410156" xlink:href="#DejaVuSans-48"/>
       <use x="159.033203" xlink:href="#DejaVuSans-48"/>
       <use x="222.65625" xlink:href="#DejaVuSans-50"/>
      </g>
     </g>
    </g>
    <g id="ytick_3">
     <g id="line2d_12">
      <g>
       <use style="stroke:#000000;stroke-width:0.8;" x="57.6" xlink:href="#m2ad7461f85" y="173.788383"/>
      </g>
     </g>
     <g id="text_13">
      <!-- 0.003 -->
      <g transform="translate(21.971875 177.587602)scale(0.1 -0.1)">
       <defs>
        <path d="M 40.578125 39.3125 
Q 47.65625 37.796875 51.625 33 
Q 55.609375 28.21875 55.609375 21.1875 
Q 55.609375 10.40625 48.1875 4.484375 
Q 40.765625 -1.421875 27.09375 -1.421875 
Q 22.515625 -1.421875 17.65625 -0.515625 
Q 12.796875 0.390625 7.625 2.203125 
L 7.625 11.71875 
Q 11.71875 9.328125 16.59375 8.109375 
Q 21.484375 6.890625 26.8125 6.890625 
Q 36.078125 6.890625 40.9375 10.546875 
Q 45.796875 14.203125 45.796875 21.1875 
Q 45.796875 27.640625 41.28125 31.265625 
Q 36.765625 34.90625 28.71875 34.90625 
L 20.21875 34.90625 
L 20.21875 43.015625 
L 29.109375 43.015625 
Q 36.375 43.015625 40.234375 45.921875 
Q 44.09375 48.828125 44.09375 54.296875 
Q 44.09375 59.90625 40.109375 62.90625 
Q 36.140625 65.921875 28.71875 65.921875 
Q 24.65625 65.921875 20.015625 65.03125 
Q 15.375 64.15625 9.8125 62.3125 
L 9.8125 71.09375 
Q 15.4375 72.65625 20.34375 73.4375 
Q 25.25 74.21875 29.59375 74.21875 
Q 40.828125 74.21875 47.359375 69.109375 
Q 53.90625 64.015625 53.90625 55.328125 
Q 53.90625 49.265625 50.4375 45.09375 
Q 46.96875 40.921875 40.578125 39.3125 
z
" id="DejaVuSans-51"/>
       </defs>
       <use xlink:href="#DejaVuSans-48"/>
       <use x="63.623047" xlink:href="#DejaVuSans-46"/>
       <use x="95.410156" xlink:href="#DejaVuSans-48"/>
       <use x="159.033203" xlink:href="#DejaVuSans-48"/>
       <use x="222.65625" xlink:href="#DejaVuSans-51"/>
      </g>
     </g>
    </g>
    <g id="ytick_4">
     <g id="line2d_13">
      <g>
       <use style="stroke:#000000;stroke-width:0.8;" x="57.6" xlink:href="#m2ad7461f85" y="125.192552"/>
      </g>
     </g>
     <g id="text_14">
      <!-- 0.004 -->
      <g transform="translate(21.971875 128.991771)scale(0.1 -0.1)">
       <defs>
        <path d="M 37.796875 64.3125 
L 12.890625 25.390625 
L 37.796875 25.390625 
z
M 35.203125 72.90625 
L 47.609375 72.90625 
L 47.609375 25.390625 
L 58.015625 25.390625 
L 58.015625 17.1875 
L 47.609375 17.1875 
L 47.609375 0 
L 37.796875 0 
L 37.796875 17.1875 
L 4.890625 17.1875 
L 4.890625 26.703125 
z
" id="DejaVuSans-52"/>
       </defs>
       <use xlink:href="#DejaVuSans-48"/>
       <use x="63.623047" xlink:href="#DejaVuSans-46"/>
       <use x="95.410156" xlink:href="#DejaVuSans-48"/>
       <use x="159.033203" xlink:href="#DejaVuSans-48"/>
       <use x="222.65625" xlink:href="#DejaVuSans-52"/>
      </g>
     </g>
    </g>
    <g id="ytick_5">
     <g id="line2d_14">
      <g>
       <use style="stroke:#000000;stroke-width:0.8;" x="57.6" xlink:href="#m2ad7461f85" y="76.596721"/>
      </g>
     </g>
     <g id="text_15">
      <!-- 0.005 -->
      <g transform="translate(21.971875 80.39594)scale(0.1 -0.1)">
       <use xlink:href="#DejaVuSans-48"/>
       <use x="63.623047" xlink:href="#DejaVuSans-46"/>
       <use x="95.410156" xlink:href="#DejaVuSans-48"/>
       <use x="159.033203" xlink:href="#DejaVuSans-48"/>
       <use x="222.65625" xlink:href="#DejaVuSans-53"/>
      </g>
     </g>
    </g>
    <g id="text_16">
     <!-- Value [-] -->
     <g transform="translate(15.892187 195.553781)rotate(-90)scale(0.1 -0.1)">
      <defs>
       <path d="M 28.609375 0 
L 0.78125 72.90625 
L 11.078125 72.90625 
L 34.1875 11.53125 
L 57.328125 72.90625 
L 67.578125 72.90625 
L 39.796875 0 
z
" id="DejaVuSans-86"/>
       <path d="M 34.28125 27.484375 
Q 23.390625 27.484375 19.1875 25 
Q 14.984375 22.515625 14.984375 16.5 
Q 14.984375 11.71875 18.140625 8.90625 
Q 21.296875 6.109375 26.703125 6.109375 
Q 34.1875 6.109375 38.703125 11.40625 
Q 43.21875 16.703125 43.21875 25.484375 
L 43.21875 27.484375 
z
M 52.203125 31.203125 
L 52.203125 0 
L 43.21875 0 
L 43.21875 8.296875 
Q 40.140625 3.328125 35.546875 0.953125 
Q 30.953125 -1.421875 24.3125 -1.421875 
Q 15.921875 -1.421875 10.953125 3.296875 
Q 6 8.015625 6 15.921875 
Q 6 25.140625 12.171875 29.828125 
Q 18.359375 34.515625 30.609375 34.515625 
L 43.21875 34.515625 
L 43.21875 35.40625 
Q 43.21875 41.609375 39.140625 45 
Q 35.0625 48.390625 27.6875 48.390625 
Q 23 48.390625 18.546875 47.265625 
Q 14.109375 46.140625 10.015625 43.890625 
L 10.015625 52.203125 
Q 14.9375 54.109375 19.578125 55.046875 
Q 24.21875 56 28.609375 56 
Q 40.484375 56 46.34375 49.84375 
Q 52.203125 43.703125 52.203125 31.203125 
z
" id="DejaVuSans-97"/>
       <path d="M 9.421875 75.984375 
L 18.40625 75.984375 
L 18.40625 0 
L 9.421875 0 
z
" id="DejaVuSans-108"/>
       <path d="M 8.5 21.578125 
L 8.5 54.6875 
L 17.484375 54.6875 
L 17.484375 21.921875 
Q 17.484375 14.15625 20.5 10.265625 
Q 23.53125 6.390625 29.59375 6.390625 
Q 36.859375 6.390625 41.078125 11.03125 
Q 45.3125 15.671875 45.3125 23.6875 
L 45.3125 54.6875 
L 54.296875 54.6875 
L 54.296875 0 
L 45.3125 0 
L 45.3125 8.40625 
Q 42.046875 3.421875 37.71875 1 
Q 33.40625 -1.421875 27.6875 -1.421875 
Q 18.265625 -1.421875 13.375 4.4375 
Q 8.5 10.296875 8.5 21.578125 
z
M 31.109375 56 
z
" id="DejaVuSans-117"/>
       <path d="M 4.890625 31.390625 
L 31.203125 31.390625 
L 31.203125 23.390625 
L 4.890625 23.390625 
z
" id="DejaVuSans-45"/>
      </defs>
      <use xlink:href="#DejaVuSans-86"/>
      <use x="60.658203" xlink:href="#DejaVuSans-97"/>
      <use x="121.9375" xlink:href="#DejaVuSans-108"/>
      <use x="149.720703" xlink:href="#DejaVuSans-117"/>
      <use x="213.099609" xlink:href="#DejaVuSans-101"/>
      <use x="274.623047" xlink:href="#DejaVuSans-32"/>
      <use x="306.410156" xlink:href="#DejaVuSans-91"/>
      <use x="345.423828" xlink:href="#DejaVuSans-45"/>
      <use x="381.507812" xlink:href="#DejaVuSans-93"/>
     </g>
    </g>
   </g>
   <g id="line2d_15">
    <path clip-path="url(#p767113f660)" d="M 57.01868 270.634852 
L 57.71668 271.088037 
L 58.414681 271.164074 
L 59.810683 270.539707 
L 60.508684 270.471563 
L 61.206684 270.837264 
L 61.904685 271.031605 
L 62.602686 270.953334 
L 63.300687 270.427249 
L 63.998687 270.405101 
L 64.696688 270.849855 
L 65.394689 270.935855 
L 66.09269 270.895721 
L 66.790691 270.45975 
L 67.488691 270.582637 
L 68.186692 270.91757 
L 68.884693 270.706297 
L 69.582694 270.696132 
L 70.280695 270.222641 
L 70.978695 270.023585 
L 71.676696 270.875417 
L 72.374697 271.175465 
L 74.468699 270.618319 
L 75.1667 270.833553 
L 75.864701 270.810575 
L 76.562702 270.56699 
L 77.260702 270.124717 
L 77.958703 270.234635 
L 78.656704 270.8363 
L 79.354705 270.9543 
L 80.052706 270.851063 
L 80.750706 270.405014 
L 81.448707 270.353416 
L 82.146708 270.650672 
L 82.844709 270.505322 
L 84.24071 269.887374 
L 84.938711 269.779285 
L 86.334713 270.485451 
L 87.032713 270.317053 
L 87.730714 269.601726 
L 88.428715 269.364375 
L 89.126716 269.728213 
L 89.824717 269.311313 
L 91.220718 268.996901 
L 91.918719 269.279217 
L 93.31472 270.637325 
L 94.012721 270.615923 
L 94.710722 270.207756 
L 95.408723 270.218852 
L 96.106724 270.715515 
L 96.804724 270.685056 
L 98.200726 269.951738 
L 98.898727 269.999028 
L 99.596728 270.363723 
L 100.294728 270.433452 
L 100.992729 270.337674 
L 101.69073 269.813601 
L 102.388731 269.513162 
L 103.086731 269.910276 
L 104.482733 271.134048 
L 105.180734 272.044539 
L 105.878735 274.845081 
L 106.576735 278.163574 
L 107.274736 279.316724 
L 107.972737 279.673823 
L 108.670738 277.727384 
L 109.368739 270.811439 
L 111.462741 245.874577 
L 112.160742 240.329806 
L 112.858742 243.745368 
L 113.556743 248.873742 
L 115.650746 269.726624 
L 116.348746 272.29494 
L 117.046747 273.610084 
L 117.744748 273.626178 
L 119.14075 270.547499 
L 119.83875 270.207663 
L 120.536751 270.388917 
L 121.932753 270.108384 
L 122.630753 269.703551 
L 123.328754 269.452534 
L 124.026755 269.849155 
L 124.724756 270.055146 
L 126.120757 269.715407 
L 126.818758 269.650599 
L 127.516759 270.214378 
L 128.21476 270.115054 
L 129.610761 269.412605 
L 130.308762 269.35545 
L 131.006763 269.784611 
L 131.704764 269.918725 
L 132.402764 269.907536 
L 133.100765 269.454092 
L 133.798766 269.283395 
L 134.496767 269.771697 
L 135.194768 269.994267 
L 135.892768 269.81332 
L 136.590769 269.360212 
L 137.28877 269.520608 
L 137.986771 269.976995 
L 139.382772 269.92583 
L 140.080773 269.551986 
L 140.778774 269.614981 
L 141.476775 270.043925 
L 142.174775 270.1272 
L 142.872776 269.855433 
L 144.268778 269.643079 
L 145.664779 270.283193 
L 146.36278 270.036796 
L 147.060781 269.508997 
L 147.758782 269.506393 
L 148.456783 269.868825 
L 149.852784 269.733618 
L 151.248786 269.248723 
L 151.946786 269.686198 
L 153.342788 269.253092 
L 154.040789 268.632818 
L 154.73879 268.389495 
L 155.43679 268.821817 
L 156.134791 268.722424 
L 158.228794 267.403199 
L 158.926794 267.570256 
L 159.624795 267.605415 
L 160.322796 267.279537 
L 161.020797 266.703162 
L 161.718797 266.633438 
L 162.416798 266.916035 
L 164.510801 266.408168 
L 165.208801 266.426958 
L 165.906802 267.136169 
L 167.302804 267.574482 
L 168.000805 267.504043 
L 168.698805 267.756677 
L 169.396806 268.875537 
L 170.094807 269.402116 
L 172.188809 269.424462 
L 172.88681 269.852823 
L 174.282812 269.861106 
L 174.980812 269.489722 
L 175.678813 269.488905 
L 176.376814 270.00857 
L 177.074815 270.10209 
L 178.470816 269.481791 
L 179.168817 269.43887 
L 180.564819 269.979294 
L 181.262819 269.806705 
L 181.96082 269.36923 
L 182.658821 269.446782 
L 183.356822 269.799183 
L 184.752823 269.735612 
L 185.450824 269.304937 
L 186.148825 269.309713 
L 186.846826 270.014894 
L 187.544826 270.031952 
L 189.638829 269.242465 
L 190.33683 269.682153 
L 191.03483 269.827745 
L 191.732831 269.729884 
L 192.430832 269.428454 
L 193.128833 269.321352 
L 193.826834 269.787888 
L 194.524834 269.893996 
L 195.920836 269.309031 
L 196.618837 269.536882 
L 197.316837 270.008344 
L 198.712839 269.860666 
L 199.41084 269.338742 
L 200.108841 268.997382 
L 200.806841 269.437012 
L 201.504842 269.696726 
L 202.202843 269.430943 
L 203.598845 269.333869 
L 204.296845 269.616593 
L 204.994846 269.698619 
L 206.390848 269.013475 
L 207.088848 268.816312 
L 207.786849 269.680605 
L 208.48485 269.974421 
L 209.182851 269.743802 
L 210.578852 269.596986 
L 211.276853 269.945084 
L 211.974854 269.796212 
L 213.370856 269.223481 
L 214.068856 269.06975 
L 214.766857 269.400111 
L 215.464858 269.981091 
L 216.860859 269.456125 
L 217.55886 269.484506 
L 218.256861 269.810715 
L 219.652863 269.785713 
L 220.350863 269.048558 
L 221.048864 269.074151 
L 221.746865 269.620038 
L 223.142867 269.740467 
L 223.840867 269.604255 
L 224.538868 269.594994 
L 225.236869 269.90131 
L 225.93487 269.95106 
L 227.330871 269.016861 
L 228.028872 269.040326 
L 228.726873 269.64941 
L 229.424874 269.747721 
L 230.122874 269.709079 
L 231.518876 269.122693 
L 232.216877 269.551094 
L 232.914878 269.673889 
L 235.00888 269.175286 
L 236.404881 269.524315 
L 237.102882 269.212581 
L 237.800883 268.748404 
L 238.498884 269.100616 
L 239.196885 269.743701 
L 239.894885 269.976496 
L 240.592886 269.951755 
L 241.988888 269.403638 
L 242.686889 269.788414 
L 243.384889 269.776474 
L 244.780891 269.032327 
L 245.478892 268.992406 
L 246.176892 269.245079 
L 246.874893 269.658675 
L 247.572894 269.632487 
L 248.270895 268.98895 
L 248.968896 269.088948 
L 249.666896 269.519215 
L 251.062898 269.577401 
L 251.760899 269.138401 
L 252.4589 269.142102 
L 253.1569 269.365075 
L 255.250903 268.747016 
L 255.948903 268.783828 
L 256.646904 269.520766 
L 257.344905 269.779849 
L 258.042906 269.364713 
L 258.740907 269.111146 
L 259.438907 268.987495 
L 260.136908 269.436205 
L 261.53291 269.615698 
L 262.230911 269.093693 
L 262.928911 268.725871 
L 263.626912 268.997437 
L 264.324913 268.902878 
L 265.720914 268.064222 
L 266.418915 267.932675 
L 267.116916 268.310958 
L 267.814917 267.782023 
L 269.210918 267.022306 
L 269.908919 266.889015 
L 270.60692 267.661707 
L 271.304921 268.245434 
L 272.002922 268.336316 
L 272.700922 268.176276 
L 273.398923 268.256956 
L 274.096924 268.742899 
L 274.794925 269.011587 
L 276.190926 268.659569 
L 276.888927 268.802912 
L 277.586928 269.158125 
L 278.284929 269.214384 
L 278.982929 268.948993 
L 279.68093 268.456752 
L 280.378931 268.126435 
L 281.076932 268.57419 
L 281.774933 268.561075 
L 282.472933 268.101896 
L 283.170934 267.991881 
L 283.868935 268.751264 
L 284.566936 270.040306 
L 285.264936 271.98127 
L 285.962937 275.049974 
L 286.660938 276.536863 
L 287.358939 277.418209 
L 288.05694 277.440168 
L 288.75494 272.926736 
L 290.848943 248.572265 
L 291.546944 241.335846 
L 292.244944 244.252619 
L 292.942945 249.037084 
L 293.640946 254.591272 
L 294.338947 262.543056 
L 295.036947 268.923102 
L 295.734948 271.94411 
L 296.432949 272.557246 
L 297.828951 270.950325 
L 298.526951 270.15885 
L 299.922953 268.366081 
L 300.620954 267.611825 
L 301.318955 267.259989 
L 302.016955 267.408928 
L 302.714956 267.757766 
L 303.412957 267.710226 
L 304.110958 267.547087 
L 306.20496 268.501103 
L 306.902961 268.324172 
L 307.600962 267.824435 
L 308.298962 267.537083 
L 308.996963 268.0247 
L 309.694964 267.94377 
L 311.090966 267.133054 
L 311.788966 267.12669 
L 312.486967 267.598859 
L 313.184968 267.931543 
L 315.27897 267.64099 
L 315.976971 267.919813 
L 316.674972 267.806301 
L 318.070973 267.212382 
L 318.768974 267.133229 
L 319.466975 267.854903 
L 320.164976 268.076278 
L 321.560977 267.240046 
L 322.258978 266.997519 
L 322.956979 267.383006 
L 323.65498 267.622575 
L 324.35298 267.546195 
L 325.050981 267.305228 
L 325.748982 267.223888 
L 326.446983 267.791869 
L 327.842984 267.554967 
L 329.238986 266.69014 
L 329.936987 267.21153 
L 330.634988 267.089187 
L 332.030989 266.064325 
L 332.72899 265.986826 
L 333.426991 266.29931 
L 334.124991 266.23567 
L 335.520993 265.825195 
L 336.218994 265.453799 
L 336.916995 265.821834 
L 337.614995 265.793058 
L 338.312996 265.379879 
L 339.010997 264.740091 
L 339.708998 264.553605 
L 341.104999 264.846153 
L 342.501001 264.451171 
L 343.199002 264.455558 
L 343.897002 264.836651 
L 344.595003 264.993855 
L 345.293004 264.842811 
L 345.991005 264.516753 
L 346.689006 264.593317 
L 347.387006 265.464342 
L 348.085007 266.100806 
L 348.783008 266.443904 
L 349.481009 266.449402 
L 350.17901 266.568781 
L 350.87701 267.149037 
L 351.575011 267.249724 
L 352.971013 266.442347 
L 353.669013 266.353894 
L 355.065015 266.959294 
L 355.763016 267.070286 
L 356.461017 266.871232 
L 357.159017 266.894377 
L 357.857018 267.287975 
L 358.555019 267.27796 
L 359.25302 266.924644 
L 359.951021 266.334217 
L 360.649021 266.252183 
L 361.347022 266.609824 
L 362.045023 266.717439 
L 362.743024 266.615293 
L 363.441024 266.273443 
L 364.139025 266.193902 
L 364.837026 266.809088 
L 365.535027 266.865377 
L 366.931028 266.51224 
L 367.629029 266.306203 
L 368.32703 266.693101 
L 369.025031 266.714289 
L 370.421032 265.930929 
L 371.119033 266.038094 
L 371.817034 266.764768 
L 372.515035 267.292567 
L 373.213035 267.167214 
L 373.911036 266.786373 
L 374.609037 266.612647 
L 375.307038 266.942739 
L 376.005039 266.787502 
L 377.40104 266.29936 
L 378.099041 266.133174 
L 378.797042 266.410365 
L 379.495042 266.855862 
L 380.891044 266.213533 
L 381.589045 266.250482 
L 382.287046 266.734425 
L 383.683047 266.573039 
L 384.381048 266.279168 
L 385.079049 266.195542 
L 386.47505 267.047041 
L 387.173051 266.8519 
L 387.871052 266.271034 
L 388.569053 266.430162 
L 389.267053 266.726588 
L 391.361056 266.402628 
L 392.059057 266.276627 
L 392.757057 266.940845 
L 393.455058 266.982118 
L 394.153059 266.809251 
L 394.85106 266.41517 
L 395.549061 266.386055 
L 396.945062 267.156672 
L 397.643063 266.947796 
L 398.341064 266.510857 
L 399.039064 266.357849 
L 399.737065 266.686008 
L 400.435066 266.8061 
L 401.133067 266.673437 
L 401.831068 266.240277 
L 402.529068 266.42698 
L 403.227069 266.762487 
L 403.92507 266.959132 
L 405.321072 266.464065 
L 406.019072 266.57708 
L 406.717073 267.096844 
L 408.113075 267.218022 
L 408.811075 266.727374 
L 409.509076 266.502558 
L 410.207077 266.631138 
L 410.905078 266.459267 
L 411.603079 266.122325 
L 412.301079 265.536147 
L 412.99908 265.6383 
L 413.697081 266.155603 
L 414.395082 266.413751 
L 415.093083 266.183079 
L 415.093083 266.183079 
" style="fill:none;stroke:#1f77b4;stroke-linecap:square;stroke-width:1.5;"/>
   </g>
   <g id="line2d_16">
    <path clip-path="url(#p767113f660)" d="M 57.01868 117.417219 
L 57.71668 117.17424 
L 58.414681 122.957144 
L 59.112682 126.456044 
L 59.810683 123.248719 
L 60.508684 116.882665 
L 61.206684 116.202323 
L 61.904685 122.76276 
L 62.602686 127.039194 
L 63.300687 123.637485 
L 63.998687 117.465815 
L 64.696688 116.931261 
L 65.394689 122.714165 
L 66.09269 126.310256 
L 66.790691 122.616973 
L 67.488691 116.396707 
L 68.186692 116.396707 
L 68.884693 122.616973 
L 69.582694 126.164469 
L 70.280695 122.519781 
L 70.978695 116.348111 
L 71.676696 116.105132 
L 72.374697 121.790844 
L 73.072698 125.046765 
L 73.770698 121.353481 
L 74.468699 115.230407 
L 75.1667 114.598661 
L 75.864701 120.284373 
L 76.562702 124.463615 
L 77.260702 121.013311 
L 77.958703 114.307086 
L 78.656704 113.626744 
L 79.354705 119.604031 
L 80.052706 122.811356 
L 80.750706 119.166669 
L 81.448707 113.140786 
L 82.146708 113.432361 
L 82.844709 120.235777 
L 83.542709 124.900977 
L 84.24071 121.304886 
L 84.938711 114.793044 
L 85.636712 114.793044 
L 86.334713 121.499269 
L 87.032713 125.33834 
L 87.730714 121.353481 
L 88.428715 114.987428 
L 89.126716 115.036023 
L 89.824717 121.353481 
L 90.522717 125.192552 
L 91.220718 121.645056 
L 91.918719 115.376194 
L 92.61672 115.230407 
L 93.31472 121.547865 
L 94.012721 125.386935 
L 94.710722 121.742248 
L 95.408723 116.445302 
L 96.106724 118.826498 
L 96.804724 126.601831 
L 97.502725 129.274602 
L 98.200726 124.415019 
L 99.596728 106.434561 
L 100.294728 100.700253 
L 100.992729 92.195983 
L 101.69073 73.92395 
L 102.388731 59.296605 
L 103.086731 64.447763 
L 104.482733 92.438962 
L 105.180734 98.319057 
L 105.878735 99.193782 
L 106.576735 102.984257 
L 107.274736 111.780103 
L 107.972737 117.465815 
L 108.670738 114.209894 
L 109.368739 108.232607 
L 110.066739 109.155928 
L 110.76474 116.396707 
L 111.462741 120.770331 
L 112.160742 117.514411 
L 112.858742 111.537124 
L 113.556743 111.439932 
L 114.254744 117.854582 
L 114.952745 121.936631 
L 115.650746 118.486327 
L 116.348746 112.849211 
L 117.046747 112.897807 
L 117.744748 119.215265 
L 118.442749 122.616973 
L 119.14075 118.777902 
L 119.83875 112.800615 
L 120.536751 112.654828 
L 121.234752 118.777902 
L 121.932753 122.714165 
L 122.630753 119.458244 
L 123.328754 113.09219 
L 124.026755 112.50904 
L 124.724756 118.729307 
L 125.422757 122.859952 
L 126.120757 119.361052 
L 126.818758 113.09219 
L 127.516759 113.140786 
L 128.21476 119.263861 
L 128.912761 122.76276 
L 129.610761 119.312456 
L 130.308762 113.480957 
L 131.006763 113.578148 
L 131.704764 119.409648 
L 132.402764 122.811356 
L 133.100765 119.263861 
L 133.798766 113.723936 
L 134.496767 113.432361 
L 135.194768 118.972286 
L 135.892768 122.811356 
L 136.590769 119.361052 
L 137.28877 113.189382 
L 137.986771 112.752019 
L 138.684772 118.291944 
L 139.382772 121.645056 
L 140.080773 118.194752 
L 140.778774 112.168869 
L 141.476775 111.488528 
L 142.174775 117.125644 
L 142.872776 120.235777 
L 143.570777 116.299515 
L 144.268778 109.544694 
L 144.966779 108.718565 
L 145.664779 114.501469 
L 146.36278 117.75739 
L 147.060781 113.529553 
L 147.758782 106.774732 
L 148.456783 105.802815 
L 149.154783 111.196953 
L 149.852784 114.550065 
L 150.550785 110.662399 
L 151.248786 104.296345 
L 151.946786 103.956174 
L 152.644787 109.544694 
L 153.342788 112.654828 
L 154.040789 109.204524 
L 154.73879 103.616003 
L 155.43679 103.810386 
L 156.134791 110.419419 
L 156.832792 114.550065 
L 157.530793 111.537124 
L 158.228794 105.997199 
L 158.926794 106.628945 
L 159.624795 114.161298 
L 160.322796 118.875094 
L 161.020797 115.764961 
L 161.718797 110.273632 
L 162.416798 110.662399 
L 163.114799 117.077048 
L 163.8128 120.916119 
L 164.510801 117.805986 
L 165.208801 112.071678 
L 165.906802 112.168869 
L 166.604803 118.389136 
L 167.302804 122.131015 
L 168.000805 118.632115 
L 168.698805 112.752019 
L 169.396806 112.606232 
L 170.094807 118.437732 
L 170.792808 122.276802 
L 171.490808 118.875094 
L 172.188809 112.897807 
L 172.88681 112.849211 
L 173.584811 118.680711 
L 174.282812 122.131015 
L 174.980812 118.826498 
L 175.678813 112.800615 
L 176.376814 112.654828 
L 177.074815 118.92369 
L 177.772816 122.568377 
L 178.470816 119.118073 
L 179.168817 113.237978 
L 179.866818 112.50904 
L 180.564819 118.34054 
L 181.262819 122.179611 
L 181.96082 118.972286 
L 182.658821 113.09219 
L 183.356822 112.752019 
L 184.054823 118.680711 
L 184.752823 122.228206 
L 185.450824 118.486327 
L 186.148825 112.654828 
L 186.846826 112.897807 
L 187.544826 118.92369 
L 188.242827 122.373994 
L 188.940828 118.92369 
L 189.638829 112.703423 
L 190.33683 111.974486 
L 191.03483 117.805986 
L 191.732831 121.742248 
L 192.430832 118.34054 
L 193.128833 112.703423 
L 193.826834 112.363253 
L 194.524834 118.097561 
L 195.222835 121.790844 
L 195.920836 118.097561 
L 196.618837 112.023082 
L 197.316837 111.682911 
L 198.014838 118.291944 
L 198.712839 122.228206 
L 199.41084 118.632115 
L 200.108841 113.043594 
L 200.806841 112.849211 
L 201.504842 118.583519 
L 202.202843 121.888036 
L 202.900844 118.437732 
L 203.598845 112.703423 
L 204.296845 112.120273 
L 204.994846 117.75739 
L 205.692847 122.228206 
L 206.390848 119.020881 
L 207.088848 112.994998 
L 207.786849 112.411848 
L 208.48485 118.194752 
L 209.182851 122.179611 
L 209.880852 119.069477 
L 210.578852 112.460444 
L 211.276853 112.023082 
L 211.974854 118.097561 
L 212.672855 121.936631 
L 213.370856 118.729307 
L 214.068856 112.994998 
L 214.766857 112.849211 
L 215.464858 118.680711 
L 216.162859 122.179611 
L 216.860859 118.194752 
L 217.55886 112.023082 
L 218.256861 111.92589 
L 218.954862 118.146157 
L 219.652863 121.888036 
L 220.350863 118.632115 
L 221.048864 112.654828 
L 221.746865 111.877294 
L 222.444866 117.611602 
L 223.142867 121.402077 
L 223.840867 118.146157 
L 224.538868 112.314657 
L 225.236869 112.023082 
L 225.93487 117.660198 
L 226.63287 121.353481 
L 227.330871 117.611602 
L 228.028872 111.439932 
L 228.726873 111.780103 
L 229.424874 118.194752 
L 230.122874 122.131015 
L 230.820875 118.777902 
L 231.518876 112.703423 
L 232.216877 112.023082 
L 232.914878 117.903177 
L 233.612878 121.742248 
L 234.310879 118.291944 
L 235.00888 112.071678 
L 235.706881 111.294144 
L 236.404881 116.882665 
L 237.102882 121.353481 
L 237.800883 118.486327 
L 238.498884 112.023082 
L 239.196885 111.391336 
L 239.894885 116.979857 
L 240.592886 120.624544 
L 241.290887 117.805986 
L 241.988888 112.023082 
L 242.686889 111.731507 
L 243.384889 117.028452 
L 244.08289 120.041394 
L 244.780891 116.639686 
L 245.478892 110.905378 
L 246.176892 110.905378 
L 246.874893 117.222836 
L 247.572894 121.013311 
L 248.270895 117.125644 
L 248.968896 111.002569 
L 249.666896 110.419419 
L 250.364897 116.299515 
L 251.062898 120.187181 
L 251.760899 117.077048 
L 252.4589 110.662399 
L 253.1569 109.59329 
L 253.854901 114.987428 
L 254.552902 118.194752 
L 255.250903 114.25849 
L 255.948903 108.135415 
L 256.646904 107.892436 
L 257.344905 113.67534 
L 258.042906 116.250919 
L 258.740907 112.168869 
L 259.438907 105.948603 
L 260.136908 105.705624 
L 260.834909 112.314657 
L 261.53291 116.834069 
L 262.230911 113.723936 
L 262.928911 107.795245 
L 263.626912 107.649457 
L 264.324913 113.869723 
L 265.022914 118.000369 
L 265.720914 114.695853 
L 266.418915 109.01014 
L 267.116916 109.107332 
L 267.814917 115.084619 
L 268.512918 118.777902 
L 269.210918 115.230407 
L 269.908919 109.107332 
L 270.60692 108.621374 
L 271.304921 114.744448 
L 272.002922 118.583519 
L 272.700922 115.084619 
L 273.398923 109.253119 
L 274.096924 109.253119 
L 275.492925 120.721736 
L 276.190926 119.847011 
L 276.888927 113.918319 
L 277.586928 112.654828 
L 278.284929 117.320027 
L 278.982929 116.056536 
L 279.68093 102.449703 
L 280.378931 82.914179 
L 281.076932 69.258751 
L 281.774933 63.475847 
L 282.472933 72.223096 
L 283.170934 78.394767 
L 283.868935 80.678771 
L 284.566936 88.745679 
L 285.264936 101.234807 
L 285.962937 109.204524 
L 286.660938 107.941032 
L 287.358939 103.130045 
L 288.05694 103.858982 
L 288.75494 109.933461 
L 289.452941 113.237978 
L 290.150942 109.836269 
L 290.848943 104.199153 
L 291.546944 103.907578 
L 292.244944 109.398907 
L 292.942945 113.480957 
L 293.640946 110.710994 
L 294.338947 105.268261 
L 295.036947 105.219665 
L 295.734948 110.856782 
L 296.432949 115.036023 
L 297.13095 111.877294 
L 297.828951 105.608432 
L 298.526951 104.830899 
L 299.224952 110.905378 
L 299.922953 114.647257 
L 300.620954 111.002569 
L 301.318955 104.685111 
L 302.016955 104.344941 
L 302.714956 110.322228 
L 303.412957 114.25849 
L 304.110958 110.905378 
L 304.808958 105.316857 
L 305.506959 105.073878 
L 306.20496 110.75959 
L 306.902961 114.015511 
L 307.600962 110.17644 
L 308.298962 104.101961 
L 308.996963 103.907578 
L 309.694964 110.516611 
L 310.392965 114.550065 
L 311.090966 110.516611 
L 311.788966 103.858982 
L 312.486967 103.081449 
L 313.184968 109.204524 
L 313.882969 113.432361 
L 314.580969 110.079249 
L 315.27897 103.761791 
L 315.976971 103.032853 
L 316.674972 109.058736 
L 317.372973 112.606232 
L 318.070973 109.058736 
L 318.768974 102.546895 
L 319.466975 101.574978 
L 320.164976 107.50367 
L 320.862977 110.710994 
L 321.560977 106.434561 
L 322.258978 99.971316 
L 322.956979 99.485357 
L 323.65498 104.92809 
L 324.35298 107.989628 
L 325.050981 104.296345 
L 325.748982 98.367653 
L 326.446983 97.347141 
L 327.144984 102.644086 
L 327.842984 105.948603 
L 328.540985 102.303916 
L 329.238986 95.889266 
L 329.936987 94.965945 
L 330.634988 100.165699 
L 331.332988 103.858982 
L 332.030989 100.748849 
L 332.72899 94.965945 
L 333.426991 94.382795 
L 334.124991 100.117103 
L 334.822992 104.393536 
L 335.520993 101.574978 
L 336.218994 95.549095 
L 336.916995 95.014541 
L 337.614995 101.67217 
L 338.312996 106.969115 
L 339.010997 104.92809 
L 339.708998 99.33957 
L 340.406999 98.902207 
L 341.104999 105.122474 
L 341.803 109.544694 
L 342.501001 106.580349 
L 343.199002 100.651657 
L 343.897002 99.971316 
L 344.595003 105.559836 
L 345.293004 109.884865 
L 345.991005 107.406478 
L 346.689006 101.769361 
L 347.387006 101.234807 
L 348.085007 106.871924 
L 348.783008 110.613803 
L 349.481009 107.212095 
L 350.17901 100.894637 
L 350.87701 100.360082 
L 351.575011 106.191582 
L 352.273012 110.079249 
L 352.971013 106.774732 
L 353.669013 100.603062 
L 354.367014 100.117103 
L 355.065015 106.33737 
L 355.763016 110.17644 
L 356.461017 106.726136 
L 357.159017 100.603062 
L 357.857018 100.117103 
L 358.555019 106.385965 
L 359.25302 110.322228 
L 359.951021 106.33737 
L 360.649021 99.679741 
L 361.347022 99.485357 
L 362.045023 106.385965 
L 362.743024 111.148357 
L 363.441024 107.649457 
L 364.139025 101.08902 
L 364.837026 100.360082 
L 365.535027 106.288774 
L 366.233028 110.030653 
L 366.931028 106.67754 
L 367.629029 100.748849 
L 368.32703 99.971316 
L 369.025031 105.559836 
L 369.723031 109.884865 
L 370.421032 106.628945 
L 371.119033 100.50587 
L 371.817034 100.019912 
L 372.515035 105.948603 
L 373.213035 109.739078 
L 373.911036 106.580349 
L 374.609037 100.50587 
L 375.307038 99.92272 
L 376.005039 105.900007 
L 376.703039 110.273632 
L 377.40104 106.969115 
L 378.099041 100.603062 
L 378.797042 100.408678 
L 379.495042 106.191582 
L 380.193043 109.787674 
L 380.891044 106.580349 
L 381.589045 100.797445 
L 382.287046 100.360082 
L 382.985046 106.580349 
L 383.683047 110.468015 
L 384.381048 107.163499 
L 385.079049 100.846041 
L 385.77705 100.214295 
L 386.47505 106.240178 
L 387.173051 110.808186 
L 387.871052 107.600861 
L 388.569053 101.137616 
L 389.267053 100.262891 
L 389.965054 106.09439 
L 390.663055 110.17644 
L 391.361056 106.969115 
L 392.059057 100.797445 
L 392.757057 100.651657 
L 393.455058 106.434561 
L 394.153059 110.225036 
L 394.85106 106.774732 
L 395.549061 100.943232 
L 396.247061 100.797445 
L 396.945062 106.628945 
L 397.643063 110.225036 
L 398.341064 107.066307 
L 399.039064 100.943232 
L 399.737065 100.262891 
L 400.435066 105.608432 
L 401.133067 108.864353 
L 401.831068 105.073878 
L 402.529068 98.562037 
L 403.227069 98.270462 
L 403.92507 104.296345 
L 404.623071 108.184011 
L 405.321072 104.58792 
L 406.019072 98.076078 
L 406.717073 97.492928 
L 407.415074 102.83847 
L 408.113075 106.288774 
L 408.811075 103.324428 
L 409.509076 97.687312 
L 410.207077 97.104162 
L 410.905078 103.518811 
L 411.603079 108.135415 
L 412.301079 105.219665 
L 412.99908 99.485357 
L 413.697081 99.242378 
L 414.395082 105.75422 
L 415.093083 110.419419 
L 415.093083 110.419419 
" style="fill:none;stroke:#ff7f0e;stroke-linecap:square;stroke-width:1.5;"/>
   </g>
   <g id="patch_3">
    <path d="M 57.6 307.584 
L 57.6 41.472 
" style="fill:none;stroke:#000000;stroke-linecap:square;stroke-linejoin:miter;stroke-width:0.8;"/>
   </g>
   <g id="patch_4">
    <path d="M 414.72 307.584 
L 414.72 41.472 
" style="fill:none;stroke:#000000;stroke-linecap:square;stroke-linejoin:miter;stroke-width:0.8;"/>
   </g>
   <g id="patch_5">
    <path d="M 57.6 307.584 
L 414.72 307.584 
" style="fill:none;stroke:#000000;stroke-linecap:square;stroke-linejoin:miter;stroke-width:0.8;"/>
   </g>
   <g id="patch_6">
    <path d="M 57.6 41.472 
L 414.72 41.472 
" style="fill:none;stroke:#000000;stroke-linecap:square;stroke-linejoin:miter;stroke-width:0.8;"/>
   </g>
   <g id="text_17">
    <!-- ECG data -->
    <g transform="translate(208.108125 35.472)scale(0.12 -0.12)">
     <defs>
      <path d="M 9.8125 72.90625 
L 55.90625 72.90625 
L 55.90625 64.59375 
L 19.671875 64.59375 
L 19.671875 43.015625 
L 54.390625 43.015625 
L 54.390625 34.71875 
L 19.671875 34.71875 
L 19.671875 8.296875 
L 56.78125 8.296875 
L 56.78125 0 
L 9.8125 0 
z
" id="DejaVuSans-69"/>
      <path d="M 64.40625 67.28125 
L 64.40625 56.890625 
Q 59.421875 61.53125 53.78125 63.8125 
Q 48.140625 66.109375 41.796875 66.109375 
Q 29.296875 66.109375 22.65625 58.46875 
Q 16.015625 50.828125 16.015625 36.375 
Q 16.015625 21.96875 22.65625 14.328125 
Q 29.296875 6.6875 41.796875 6.6875 
Q 48.140625 6.6875 53.78125 8.984375 
Q 59.421875 11.28125 64.40625 15.921875 
L 64.40625 5.609375 
Q 59.234375 2.09375 53.4375 0.328125 
Q 47.65625 -1.421875 41.21875 -1.421875 
Q 24.65625 -1.421875 15.125 8.703125 
Q 5.609375 18.84375 5.609375 36.375 
Q 5.609375 53.953125 15.125 64.078125 
Q 24.65625 74.21875 41.21875 74.21875 
Q 47.75 74.21875 53.53125 72.484375 
Q 59.328125 70.75 64.40625 67.28125 
z
" id="DejaVuSans-67"/>
      <path d="M 59.515625 10.40625 
L 59.515625 29.984375 
L 43.40625 29.984375 
L 43.40625 38.09375 
L 69.28125 38.09375 
L 69.28125 6.78125 
Q 63.578125 2.734375 56.6875 0.65625 
Q 49.8125 -1.421875 42 -1.421875 
Q 24.90625 -1.421875 15.25 8.5625 
Q 5.609375 18.5625 5.609375 36.375 
Q 5.609375 54.25 15.25 64.234375 
Q 24.90625 74.21875 42 74.21875 
Q 49.125 74.21875 55.546875 72.453125 
Q 61.96875 70.703125 67.390625 67.28125 
L 67.390625 56.78125 
Q 61.921875 61.421875 55.765625 63.765625 
Q 49.609375 66.109375 42.828125 66.109375 
Q 29.4375 66.109375 22.71875 58.640625 
Q 16.015625 51.171875 16.015625 36.375 
Q 16.015625 21.625 22.71875 14.15625 
Q 29.4375 6.6875 42.828125 6.6875 
Q 48.046875 6.6875 52.140625 7.59375 
Q 56.25 8.5 59.515625 10.40625 
z
" id="DejaVuSans-71"/>
      <path d="M 45.40625 46.390625 
L 45.40625 75.984375 
L 54.390625 75.984375 
L 54.390625 0 
L 45.40625 0 
L 45.40625 8.203125 
Q 42.578125 3.328125 38.25 0.953125 
Q 33.9375 -1.421875 27.875 -1.421875 
Q 17.96875 -1.421875 11.734375 6.484375 
Q 5.515625 14.40625 5.515625 27.296875 
Q 5.515625 40.1875 11.734375 48.09375 
Q 17.96875 56 27.875 56 
Q 33.9375 56 38.25 53.625 
Q 42.578125 51.265625 45.40625 46.390625 
z
M 14.796875 27.296875 
Q 14.796875 17.390625 18.875 11.75 
Q 22.953125 6.109375 30.078125 6.109375 
Q 37.203125 6.109375 41.296875 11.75 
Q 45.40625 17.390625 45.40625 27.296875 
Q 45.40625 37.203125 41.296875 42.84375 
Q 37.203125 48.484375 30.078125 48.484375 
Q 22.953125 48.484375 18.875 42.84375 
Q 14.796875 37.203125 14.796875 27.296875 
z
" id="DejaVuSans-100"/>
      <path d="M 18.3125 70.21875 
L 18.3125 54.6875 
L 36.8125 54.6875 
L 36.8125 47.703125 
L 18.3125 47.703125 
L 18.3125 18.015625 
Q 18.3125 11.328125 20.140625 9.421875 
Q 21.96875 7.515625 27.59375 7.515625 
L 36.8125 7.515625 
L 36.8125 0 
L 27.59375 0 
Q 17.1875 0 13.234375 3.875 
Q 9.28125 7.765625 9.28125 18.015625 
L 9.28125 47.703125 
L 2.6875 47.703125 
L 2.6875 54.6875 
L 9.28125 54.6875 
L 9.28125 70.21875 
z
" id="DejaVuSans-116"/>
     </defs>
     <use xlink:href="#DejaVuSans-69"/>
     <use x="63.183594" xlink:href="#DejaVuSans-67"/>
     <use x="133.007812" xlink:href="#DejaVuSans-71"/>
     <use x="210.498047" xlink:href="#DejaVuSans-32"/>
     <use x="242.285156" xlink:href="#DejaVuSans-100"/>
     <use x="305.761719" xlink:href="#DejaVuSans-97"/>
     <use x="367.041016" xlink:href="#DejaVuSans-116"/>
     <use x="406.25" xlink:href="#DejaVuSans-97"/>
    </g>
   </g>
   <g id="legend_1">
    <g id="patch_7">
     <path d="M 307.424688 78.82825 
L 407.72 78.82825 
Q 409.72 78.82825 409.72 76.82825 
L 409.72 48.472 
Q 409.72 46.472 407.72 46.472 
L 307.424688 46.472 
Q 305.424688 46.472 305.424688 48.472 
L 305.424688 76.82825 
Q 305.424688 78.82825 307.424688 78.82825 
z
" style="fill:#ffffff;opacity:0.8;stroke:#cccccc;stroke-linejoin:miter;"/>
    </g>
    <g id="line2d_17">
     <path d="M 309.424688 54.570437 
L 329.424688 54.570437 
" style="fill:none;stroke:#1f77b4;stroke-linecap:square;stroke-width:1.5;"/>
    </g>
    <g id="line2d_18"/>
    <g id="text_18">
     <!-- filtered signal -->
     <g transform="translate(337.424688 58.070437)scale(0.1 -0.1)">
      <defs>
       <path d="M 37.109375 75.984375 
L 37.109375 68.5 
L 28.515625 68.5 
Q 23.6875 68.5 21.796875 66.546875 
Q 19.921875 64.59375 19.921875 59.515625 
L 19.921875 54.6875 
L 34.71875 54.6875 
L 34.71875 47.703125 
L 19.921875 47.703125 
L 19.921875 0 
L 10.890625 0 
L 10.890625 47.703125 
L 2.296875 47.703125 
L 2.296875 54.6875 
L 10.890625 54.6875 
L 10.890625 58.5 
Q 10.890625 67.625 15.140625 71.796875 
Q 19.390625 75.984375 28.609375 75.984375 
z
" id="DejaVuSans-102"/>
       <path d="M 41.109375 46.296875 
Q 39.59375 47.171875 37.8125 47.578125 
Q 36.03125 48 33.890625 48 
Q 26.265625 48 22.1875 43.046875 
Q 18.109375 38.09375 18.109375 28.8125 
L 18.109375 0 
L 9.078125 0 
L 9.078125 54.6875 
L 18.109375 54.6875 
L 18.109375 46.1875 
Q 20.953125 51.171875 25.484375 53.578125 
Q 30.03125 56 36.53125 56 
Q 37.453125 56 38.578125 55.875 
Q 39.703125 55.765625 41.0625 55.515625 
z
" id="DejaVuSans-114"/>
       <path d="M 45.40625 27.984375 
Q 45.40625 37.75 41.375 43.109375 
Q 37.359375 48.484375 30.078125 48.484375 
Q 22.859375 48.484375 18.828125 43.109375 
Q 14.796875 37.75 14.796875 27.984375 
Q 14.796875 18.265625 18.828125 12.890625 
Q 22.859375 7.515625 30.078125 7.515625 
Q 37.359375 7.515625 41.375 12.890625 
Q 45.40625 18.265625 45.40625 27.984375 
z
M 54.390625 6.78125 
Q 54.390625 -7.171875 48.1875 -13.984375 
Q 42 -20.796875 29.203125 -20.796875 
Q 24.46875 -20.796875 20.265625 -20.09375 
Q 16.0625 -19.390625 12.109375 -17.921875 
L 12.109375 -9.1875 
Q 16.0625 -11.328125 19.921875 -12.34375 
Q 23.78125 -13.375 27.78125 -13.375 
Q 36.625 -13.375 41.015625 -8.765625 
Q 45.40625 -4.15625 45.40625 5.171875 
L 45.40625 9.625 
Q 42.625 4.78125 38.28125 2.390625 
Q 33.9375 0 27.875 0 
Q 17.828125 0 11.671875 7.65625 
Q 5.515625 15.328125 5.515625 27.984375 
Q 5.515625 40.671875 11.671875 48.328125 
Q 17.828125 56 27.875 56 
Q 33.9375 56 38.28125 53.609375 
Q 42.625 51.21875 45.40625 46.390625 
L 45.40625 54.6875 
L 54.390625 54.6875 
z
" id="DejaVuSans-103"/>
       <path d="M 54.890625 33.015625 
L 54.890625 0 
L 45.90625 0 
L 45.90625 32.71875 
Q 45.90625 40.484375 42.875 44.328125 
Q 39.84375 48.1875 33.796875 48.1875 
Q 26.515625 48.1875 22.3125 43.546875 
Q 18.109375 38.921875 18.109375 30.90625 
L 18.109375 0 
L 9.078125 0 
L 9.078125 54.6875 
L 18.109375 54.6875 
L 18.109375 46.1875 
Q 21.34375 51.125 25.703125 53.5625 
Q 30.078125 56 35.796875 56 
Q 45.21875 56 50.046875 50.171875 
Q 54.890625 44.34375 54.890625 33.015625 
z
" id="DejaVuSans-110"/>
      </defs>
      <use xlink:href="#DejaVuSans-102"/>
      <use x="35.205078" xlink:href="#DejaVuSans-105"/>
      <use x="62.988281" xlink:href="#DejaVuSans-108"/>
      <use x="90.771484" xlink:href="#DejaVuSans-116"/>
      <use x="129.980469" xlink:href="#DejaVuSans-101"/>
      <use x="191.503906" xlink:href="#DejaVuSans-114"/>
      <use x="230.367188" xlink:href="#DejaVuSans-101"/>
      <use x="291.890625" xlink:href="#DejaVuSans-100"/>
      <use x="355.367188" xlink:href="#DejaVuSans-32"/>
      <use x="387.154297" xlink:href="#DejaVuSans-115"/>
      <use x="439.253906" xlink:href="#DejaVuSans-105"/>
      <use x="467.037109" xlink:href="#DejaVuSans-103"/>
      <use x="530.513672" xlink:href="#DejaVuSans-110"/>
      <use x="593.892578" xlink:href="#DejaVuSans-97"/>
      <use x="655.171875" xlink:href="#DejaVuSans-108"/>
     </g>
    </g>
    <g id="line2d_19">
     <path d="M 309.424688 69.248562 
L 329.424688 69.248562 
" style="fill:none;stroke:#ff7f0e;stroke-linecap:square;stroke-width:1.5;"/>
    </g>
    <g id="line2d_20"/>
    <g id="text_19">
     <!-- origin signal -->
     <g transform="translate(337.424688 72.748562)scale(0.1 -0.1)">
      <defs>
       <path d="M 30.609375 48.390625 
Q 23.390625 48.390625 19.1875 42.75 
Q 14.984375 37.109375 14.984375 27.296875 
Q 14.984375 17.484375 19.15625 11.84375 
Q 23.34375 6.203125 30.609375 6.203125 
Q 37.796875 6.203125 41.984375 11.859375 
Q 46.1875 17.53125 46.1875 27.296875 
Q 46.1875 37.015625 41.984375 42.703125 
Q 37.796875 48.390625 30.609375 48.390625 
z
M 30.609375 56 
Q 42.328125 56 49.015625 48.375 
Q 55.71875 40.765625 55.71875 27.296875 
Q 55.71875 13.875 49.015625 6.21875 
Q 42.328125 -1.421875 30.609375 -1.421875 
Q 18.84375 -1.421875 12.171875 6.21875 
Q 5.515625 13.875 5.515625 27.296875 
Q 5.515625 40.765625 12.171875 48.375 
Q 18.84375 56 30.609375 56 
z
" id="DejaVuSans-111"/>
      </defs>
      <use xlink:href="#DejaVuSans-111"/>
      <use x="61.181641" xlink:href="#DejaVuSans-114"/>
      <use x="102.294922" xlink:href="#DejaVuSans-105"/>
      <use x="130.078125" xlink:href="#DejaVuSans-103"/>
      <use x="193.554688" xlink:href="#DejaVuSans-105"/>
      <use x="221.337891" xlink:href="#DejaVuSans-110"/>
      <use x="284.716797" xlink:href="#DejaVuSans-32"/>
      <use x="316.503906" xlink:href="#DejaVuSans-115"/>
      <use x="368.603516" xlink:href="#DejaVuSans-105"/>
      <use x="396.386719" xlink:href="#DejaVuSans-103"/>
      <use x="459.863281" xlink:href="#DejaVuSans-110"/>
      <use x="523.242188" xlink:href="#DejaVuSans-97"/>
      <use x="584.521484" xlink:href="#DejaVuSans-108"/>
     </g>
    </g>
   </g>
  </g>
 </g>
 <defs>
  <clipPath id="p767113f660">
   <rect height="266.112" width="357.12" x="57.6" y="41.472"/>
  </clipPath>
 </defs>
</svg>
