<?xml version="1.0" encoding="utf-8" standalone="no"?>
<!DOCTYPE svg PUBLIC "-//W3C//DTD SVG 1.1//EN"
  "http://www.w3.org/Graphics/SVG/1.1/DTD/svg11.dtd">
<!-- Created with matplotlib (https://matplotlib.org/) -->
<svg height="345.6pt" version="1.1" viewBox="0 0 700.56 345.6" width="700.56pt" xmlns="http://www.w3.org/2000/svg" xmlns:xlink="http://www.w3.org/1999/xlink">
 <metadata>
  <rdf:RDF xmlns:cc="http://creativecommons.org/ns#" xmlns:dc="http://purl.org/dc/elements/1.1/" xmlns:rdf="http://www.w3.org/1999/02/22-rdf-syntax-ns#">
   <cc:Work>
    <dc:type rdf:resource="http://purl.org/dc/dcmitype/StillImage"/>
    <dc:date>2020-11-09T23:03:32.695363</dc:date>
    <dc:format>image/svg+xml</dc:format>
    <dc:creator>
     <cc:Agent>
      <dc:title>Matplotlib v3.3.2, https://matplotlib.org/</dc:title>
     </cc:Agent>
    </dc:creator>
   </cc:Work>
  </rdf:RDF>
 </metadata>
 <defs>
  <style type="text/css">*{stroke-linecap:butt;stroke-linejoin:round;}</style>
 </defs>
 <g id="figure_1">
  <g id="patch_1">
   <path d="M 0 345.6 
L 700.56 345.6 
L 700.56 0 
L 0 0 
z
" style="fill:#ffffff;"/>
  </g>
  <g id="axes_1">
   <g id="patch_2">
    <path d="M 87.57 307.584 
L 630.504 307.584 
L 630.504 41.472 
L 87.57 41.472 
z
" style="fill:#ffffff;"/>
   </g>
   <g id="matplotlib.axis_1">
    <g id="xtick_1">
     <g id="line2d_1">
      <defs>
       <path d="M 0 0 
L 0 3.5 
" id="m6486f2087e" style="stroke:#000000;stroke-width:0.8;"/>
      </defs>
      <g>
       <use style="stroke:#000000;stroke-width:0.8;" x="111.160935" xlink:href="#m6486f2087e" y="307.584"/>
      </g>
     </g>
     <g id="text_1">
      <!-- 3000 -->
      <g transform="translate(98.435935 322.182437)scale(0.1 -0.1)">
       <defs>
        <path d="M 40.578125 39.3125 
Q 47.65625 37.796875 51.625 33 
Q 55.609375 28.21875 55.609375 21.1875 
Q 55.609375 10.40625 48.1875 4.484375 
Q 40.765625 -1.421875 27.09375 -1.421875 
Q 22.515625 -1.421875 17.65625 -0.515625 
Q 12.796875 0.390625 7.625 2.203125 
L 7.625 11.71875 
Q 11.71875 9.328125 16.59375 8.109375 
Q 21.484375 6.890625 26.8125 6.890625 
Q 36.078125 6.890625 40.9375 10.546875 
Q 45.796875 14.203125 45.796875 21.1875 
Q 45.796875 27.640625 41.28125 31.265625 
Q 36.765625 34.90625 28.71875 34.90625 
L 20.21875 34.90625 
L 20.21875 43.015625 
L 29.109375 43.015625 
Q 36.375 43.015625 40.234375 45.921875 
Q 44.09375 48.828125 44.09375 54.296875 
Q 44.09375 59.90625 40.109375 62.90625 
Q 36.140625 65.921875 28.71875 65.921875 
Q 24.65625 65.921875 20.015625 65.03125 
Q 15.375 64.15625 9.8125 62.3125 
L 9.8125 71.09375 
Q 15.4375 72.65625 20.34375 73.4375 
Q 25.25 74.21875 29.59375 74.21875 
Q 40.828125 74.21875 47.359375 69.109375 
Q 53.90625 64.015625 53.90625 55.328125 
Q 53.90625 49.265625 50.4375 45.09375 
Q 46.96875 40.921875 40.578125 39.3125 
z
" id="DejaVuSans-51"/>
        <path d="M 31.78125 66.40625 
Q 24.171875 66.40625 20.328125 58.90625 
Q 16.5 51.421875 16.5 36.375 
Q 16.5 21.390625 20.328125 13.890625 
Q 24.171875 6.390625 31.78125 6.390625 
Q 39.453125 6.390625 43.28125 13.890625 
Q 47.125 21.390625 47.125 36.375 
Q 47.125 51.421875 43.28125 58.90625 
Q 39.453125 66.40625 31.78125 66.40625 
z
M 31.78125 74.21875 
Q 44.046875 74.21875 50.515625 64.515625 
Q 56.984375 54.828125 56.984375 36.375 
Q 56.984375 17.96875 50.515625 8.265625 
Q 44.046875 -1.421875 31.78125 -1.421875 
Q 19.53125 -1.421875 13.0625 8.265625 
Q 6.59375 17.96875 6.59375 36.375 
Q 6.59375 54.828125 13.0625 64.515625 
Q 19.53125 74.21875 31.78125 74.21875 
z
" id="DejaVuSans-48"/>
       </defs>
       <use xlink:href="#DejaVuSans-51"/>
       <use x="63.623047" xlink:href="#DejaVuSans-48"/>
       <use x="127.246094" xlink:href="#DejaVuSans-48"/>
       <use x="190.869141" xlink:href="#DejaVuSans-48"/>
      </g>
     </g>
    </g>
    <g id="xtick_2">
     <g id="line2d_2">
      <g>
       <use style="stroke:#000000;stroke-width:0.8;" x="176.270132" xlink:href="#m6486f2087e" y="307.584"/>
      </g>
     </g>
     <g id="text_2">
      <!-- 3100 -->
      <g transform="translate(163.545132 322.182437)scale(0.1 -0.1)">
       <defs>
        <path d="M 12.40625 8.296875 
L 28.515625 8.296875 
L 28.515625 63.921875 
L 10.984375 60.40625 
L 10.984375 69.390625 
L 28.421875 72.90625 
L 38.28125 72.90625 
L 38.28125 8.296875 
L 54.390625 8.296875 
L 54.390625 0 
L 12.40625 0 
z
" id="DejaVuSans-49"/>
       </defs>
       <use xlink:href="#DejaVuSans-51"/>
       <use x="63.623047" xlink:href="#DejaVuSans-49"/>
       <use x="127.246094" xlink:href="#DejaVuSans-48"/>
       <use x="190.869141" xlink:href="#DejaVuSans-48"/>
      </g>
     </g>
    </g>
    <g id="xtick_3">
     <g id="line2d_3">
      <g>
       <use style="stroke:#000000;stroke-width:0.8;" x="241.379329" xlink:href="#m6486f2087e" y="307.584"/>
      </g>
     </g>
     <g id="text_3">
      <!-- 3200 -->
      <g transform="translate(228.654329 322.182437)scale(0.1 -0.1)">
       <defs>
        <path d="M 19.1875 8.296875 
L 53.609375 8.296875 
L 53.609375 0 
L 7.328125 0 
L 7.328125 8.296875 
Q 12.9375 14.109375 22.625 23.890625 
Q 32.328125 33.6875 34.8125 36.53125 
Q 39.546875 41.84375 41.421875 45.53125 
Q 43.3125 49.21875 43.3125 52.78125 
Q 43.3125 58.59375 39.234375 62.25 
Q 35.15625 65.921875 28.609375 65.921875 
Q 23.96875 65.921875 18.8125 64.3125 
Q 13.671875 62.703125 7.8125 59.421875 
L 7.8125 69.390625 
Q 13.765625 71.78125 18.9375 73 
Q 24.125 74.21875 28.421875 74.21875 
Q 39.75 74.21875 46.484375 68.546875 
Q 53.21875 62.890625 53.21875 53.421875 
Q 53.21875 48.921875 51.53125 44.890625 
Q 49.859375 40.875 45.40625 35.40625 
Q 44.1875 33.984375 37.640625 27.21875 
Q 31.109375 20.453125 19.1875 8.296875 
z
" id="DejaVuSans-50"/>
       </defs>
       <use xlink:href="#DejaVuSans-51"/>
       <use x="63.623047" xlink:href="#DejaVuSans-50"/>
       <use x="127.246094" xlink:href="#DejaVuSans-48"/>
       <use x="190.869141" xlink:href="#DejaVuSans-48"/>
      </g>
     </g>
    </g>
    <g id="xtick_4">
     <g id="line2d_4">
      <g>
       <use style="stroke:#000000;stroke-width:0.8;" x="306.488526" xlink:href="#m6486f2087e" y="307.584"/>
      </g>
     </g>
     <g id="text_4">
      <!-- 3300 -->
      <g transform="translate(293.763526 322.182437)scale(0.1 -0.1)">
       <use xlink:href="#DejaVuSans-51"/>
       <use x="63.623047" xlink:href="#DejaVuSans-51"/>
       <use x="127.246094" xlink:href="#DejaVuSans-48"/>
       <use x="190.869141" xlink:href="#DejaVuSans-48"/>
      </g>
     </g>
    </g>
    <g id="xtick_5">
     <g id="line2d_5">
      <g>
       <use style="stroke:#000000;stroke-width:0.8;" x="371.597723" xlink:href="#m6486f2087e" y="307.584"/>
      </g>
     </g>
     <g id="text_5">
      <!-- 3400 -->
      <g transform="translate(358.872723 322.182437)scale(0.1 -0.1)">
       <defs>
        <path d="M 37.796875 64.3125 
L 12.890625 25.390625 
L 37.796875 25.390625 
z
M 35.203125 72.90625 
L 47.609375 72.90625 
L 47.609375 25.390625 
L 58.015625 25.390625 
L 58.015625 17.1875 
L 47.609375 17.1875 
L 47.609375 0 
L 37.796875 0 
L 37.796875 17.1875 
L 4.890625 17.1875 
L 4.890625 26.703125 
z
" id="DejaVuSans-52"/>
       </defs>
       <use xlink:href="#DejaVuSans-51"/>
       <use x="63.623047" xlink:href="#DejaVuSans-52"/>
       <use x="127.246094" xlink:href="#DejaVuSans-48"/>
       <use x="190.869141" xlink:href="#DejaVuSans-48"/>
      </g>
     </g>
    </g>
    <g id="xtick_6">
     <g id="line2d_6">
      <g>
       <use style="stroke:#000000;stroke-width:0.8;" x="436.70692" xlink:href="#m6486f2087e" y="307.584"/>
      </g>
     </g>
     <g id="text_6">
      <!-- 3500 -->
      <g transform="translate(423.98192 322.182437)scale(0.1 -0.1)">
       <defs>
        <path d="M 10.796875 72.90625 
L 49.515625 72.90625 
L 49.515625 64.59375 
L 19.828125 64.59375 
L 19.828125 46.734375 
Q 21.96875 47.46875 24.109375 47.828125 
Q 26.265625 48.1875 28.421875 48.1875 
Q 40.625 48.1875 47.75 41.5 
Q 54.890625 34.8125 54.890625 23.390625 
Q 54.890625 11.625 47.5625 5.09375 
Q 40.234375 -1.421875 26.90625 -1.421875 
Q 22.3125 -1.421875 17.546875 -0.640625 
Q 12.796875 0.140625 7.71875 1.703125 
L 7.71875 11.625 
Q 12.109375 9.234375 16.796875 8.0625 
Q 21.484375 6.890625 26.703125 6.890625 
Q 35.15625 6.890625 40.078125 11.328125 
Q 45.015625 15.765625 45.015625 23.390625 
Q 45.015625 31 40.078125 35.4375 
Q 35.15625 39.890625 26.703125 39.890625 
Q 22.75 39.890625 18.8125 39.015625 
Q 14.890625 38.140625 10.796875 36.28125 
z
" id="DejaVuSans-53"/>
       </defs>
       <use xlink:href="#DejaVuSans-51"/>
       <use x="63.623047" xlink:href="#DejaVuSans-53"/>
       <use x="127.246094" xlink:href="#DejaVuSans-48"/>
       <use x="190.869141" xlink:href="#DejaVuSans-48"/>
      </g>
     </g>
    </g>
    <g id="xtick_7">
     <g id="line2d_7">
      <g>
       <use style="stroke:#000000;stroke-width:0.8;" x="501.816116" xlink:href="#m6486f2087e" y="307.584"/>
      </g>
     </g>
     <g id="text_7">
      <!-- 3600 -->
      <g transform="translate(489.091116 322.182437)scale(0.1 -0.1)">
       <defs>
        <path d="M 33.015625 40.375 
Q 26.375 40.375 22.484375 35.828125 
Q 18.609375 31.296875 18.609375 23.390625 
Q 18.609375 15.53125 22.484375 10.953125 
Q 26.375 6.390625 33.015625 6.390625 
Q 39.65625 6.390625 43.53125 10.953125 
Q 47.40625 15.53125 47.40625 23.390625 
Q 47.40625 31.296875 43.53125 35.828125 
Q 39.65625 40.375 33.015625 40.375 
z
M 52.59375 71.296875 
L 52.59375 62.3125 
Q 48.875 64.0625 45.09375 64.984375 
Q 41.3125 65.921875 37.59375 65.921875 
Q 27.828125 65.921875 22.671875 59.328125 
Q 17.53125 52.734375 16.796875 39.40625 
Q 19.671875 43.65625 24.015625 45.921875 
Q 28.375 48.1875 33.59375 48.1875 
Q 44.578125 48.1875 50.953125 41.515625 
Q 57.328125 34.859375 57.328125 23.390625 
Q 57.328125 12.15625 50.6875 5.359375 
Q 44.046875 -1.421875 33.015625 -1.421875 
Q 20.359375 -1.421875 13.671875 8.265625 
Q 6.984375 17.96875 6.984375 36.375 
Q 6.984375 53.65625 15.1875 63.9375 
Q 23.390625 74.21875 37.203125 74.21875 
Q 40.921875 74.21875 44.703125 73.484375 
Q 48.484375 72.75 52.59375 71.296875 
z
" id="DejaVuSans-54"/>
       </defs>
       <use xlink:href="#DejaVuSans-51"/>
       <use x="63.623047" xlink:href="#DejaVuSans-54"/>
       <use x="127.246094" xlink:href="#DejaVuSans-48"/>
       <use x="190.869141" xlink:href="#DejaVuSans-48"/>
      </g>
     </g>
    </g>
    <g id="xtick_8">
     <g id="line2d_8">
      <g>
       <use style="stroke:#000000;stroke-width:0.8;" x="566.925313" xlink:href="#m6486f2087e" y="307.584"/>
      </g>
     </g>
     <g id="text_8">
      <!-- 3700 -->
      <g transform="translate(554.200313 322.182437)scale(0.1 -0.1)">
       <defs>
        <path d="M 8.203125 72.90625 
L 55.078125 72.90625 
L 55.078125 68.703125 
L 28.609375 0 
L 18.3125 0 
L 43.21875 64.59375 
L 8.203125 64.59375 
z
" id="DejaVuSans-55"/>
       </defs>
       <use xlink:href="#DejaVuSans-51"/>
       <use x="63.623047" xlink:href="#DejaVuSans-55"/>
       <use x="127.246094" xlink:href="#DejaVuSans-48"/>
       <use x="190.869141" xlink:href="#DejaVuSans-48"/>
      </g>
     </g>
    </g>
    <g id="text_9">
     <!-- time [time stamp] -->
     <g transform="translate(313.691687 335.860562)scale(0.1 -0.1)">
      <defs>
       <path d="M 18.3125 70.21875 
L 18.3125 54.6875 
L 36.8125 54.6875 
L 36.8125 47.703125 
L 18.3125 47.703125 
L 18.3125 18.015625 
Q 18.3125 11.328125 20.140625 9.421875 
Q 21.96875 7.515625 27.59375 7.515625 
L 36.8125 7.515625 
L 36.8125 0 
L 27.59375 0 
Q 17.1875 0 13.234375 3.875 
Q 9.28125 7.765625 9.28125 18.015625 
L 9.28125 47.703125 
L 2.6875 47.703125 
L 2.6875 54.6875 
L 9.28125 54.6875 
L 9.28125 70.21875 
z
" id="DejaVuSans-116"/>
       <path d="M 9.421875 54.6875 
L 18.40625 54.6875 
L 18.40625 0 
L 9.421875 0 
z
M 9.421875 75.984375 
L 18.40625 75.984375 
L 18.40625 64.59375 
L 9.421875 64.59375 
z
" id="DejaVuSans-105"/>
       <path d="M 52 44.1875 
Q 55.375 50.25 60.0625 53.125 
Q 64.75 56 71.09375 56 
Q 79.640625 56 84.28125 50.015625 
Q 88.921875 44.046875 88.921875 33.015625 
L 88.921875 0 
L 79.890625 0 
L 79.890625 32.71875 
Q 79.890625 40.578125 77.09375 44.375 
Q 74.3125 48.1875 68.609375 48.1875 
Q 61.625 48.1875 57.5625 43.546875 
Q 53.515625 38.921875 53.515625 30.90625 
L 53.515625 0 
L 44.484375 0 
L 44.484375 32.71875 
Q 44.484375 40.625 41.703125 44.40625 
Q 38.921875 48.1875 33.109375 48.1875 
Q 26.21875 48.1875 22.15625 43.53125 
Q 18.109375 38.875 18.109375 30.90625 
L 18.109375 0 
L 9.078125 0 
L 9.078125 54.6875 
L 18.109375 54.6875 
L 18.109375 46.1875 
Q 21.1875 51.21875 25.484375 53.609375 
Q 29.78125 56 35.6875 56 
Q 41.65625 56 45.828125 52.96875 
Q 50 49.953125 52 44.1875 
z
" id="DejaVuSans-109"/>
       <path d="M 56.203125 29.59375 
L 56.203125 25.203125 
L 14.890625 25.203125 
Q 15.484375 15.921875 20.484375 11.0625 
Q 25.484375 6.203125 34.421875 6.203125 
Q 39.59375 6.203125 44.453125 7.46875 
Q 49.3125 8.734375 54.109375 11.28125 
L 54.109375 2.78125 
Q 49.265625 0.734375 44.1875 -0.34375 
Q 39.109375 -1.421875 33.890625 -1.421875 
Q 20.796875 -1.421875 13.15625 6.1875 
Q 5.515625 13.8125 5.515625 26.8125 
Q 5.515625 40.234375 12.765625 48.109375 
Q 20.015625 56 32.328125 56 
Q 43.359375 56 49.78125 48.890625 
Q 56.203125 41.796875 56.203125 29.59375 
z
M 47.21875 32.234375 
Q 47.125 39.59375 43.09375 43.984375 
Q 39.0625 48.390625 32.421875 48.390625 
Q 24.90625 48.390625 20.390625 44.140625 
Q 15.875 39.890625 15.1875 32.171875 
z
" id="DejaVuSans-101"/>
       <path id="DejaVuSans-32"/>
       <path d="M 8.59375 75.984375 
L 29.296875 75.984375 
L 29.296875 69 
L 17.578125 69 
L 17.578125 -6.203125 
L 29.296875 -6.203125 
L 29.296875 -13.1875 
L 8.59375 -13.1875 
z
" id="DejaVuSans-91"/>
       <path d="M 44.28125 53.078125 
L 44.28125 44.578125 
Q 40.484375 46.53125 36.375 47.5 
Q 32.28125 48.484375 27.875 48.484375 
Q 21.1875 48.484375 17.84375 46.4375 
Q 14.5 44.390625 14.5 40.28125 
Q 14.5 37.15625 16.890625 35.375 
Q 19.28125 33.59375 26.515625 31.984375 
L 29.59375 31.296875 
Q 39.15625 29.25 43.1875 25.515625 
Q 47.21875 21.78125 47.21875 15.09375 
Q 47.21875 7.46875 41.1875 3.015625 
Q 35.15625 -1.421875 24.609375 -1.421875 
Q 20.21875 -1.421875 15.453125 -0.5625 
Q 10.6875 0.296875 5.421875 2 
L 5.421875 11.28125 
Q 10.40625 8.6875 15.234375 7.390625 
Q 20.0625 6.109375 24.8125 6.109375 
Q 31.15625 6.109375 34.5625 8.28125 
Q 37.984375 10.453125 37.984375 14.40625 
Q 37.984375 18.0625 35.515625 20.015625 
Q 33.0625 21.96875 24.703125 23.78125 
L 21.578125 24.515625 
Q 13.234375 26.265625 9.515625 29.90625 
Q 5.8125 33.546875 5.8125 39.890625 
Q 5.8125 47.609375 11.28125 51.796875 
Q 16.75 56 26.8125 56 
Q 31.78125 56 36.171875 55.265625 
Q 40.578125 54.546875 44.28125 53.078125 
z
" id="DejaVuSans-115"/>
       <path d="M 34.28125 27.484375 
Q 23.390625 27.484375 19.1875 25 
Q 14.984375 22.515625 14.984375 16.5 
Q 14.984375 11.71875 18.140625 8.90625 
Q 21.296875 6.109375 26.703125 6.109375 
Q 34.1875 6.109375 38.703125 11.40625 
Q 43.21875 16.703125 43.21875 25.484375 
L 43.21875 27.484375 
z
M 52.203125 31.203125 
L 52.203125 0 
L 43.21875 0 
L 43.21875 8.296875 
Q 40.140625 3.328125 35.546875 0.953125 
Q 30.953125 -1.421875 24.3125 -1.421875 
Q 15.921875 -1.421875 10.953125 3.296875 
Q 6 8.015625 6 15.921875 
Q 6 25.140625 12.171875 29.828125 
Q 18.359375 34.515625 30.609375 34.515625 
L 43.21875 34.515625 
L 43.21875 35.40625 
Q 43.21875 41.609375 39.140625 45 
Q 35.0625 48.390625 27.6875 48.390625 
Q 23 48.390625 18.546875 47.265625 
Q 14.109375 46.140625 10.015625 43.890625 
L 10.015625 52.203125 
Q 14.9375 54.109375 19.578125 55.046875 
Q 24.21875 56 28.609375 56 
Q 40.484375 56 46.34375 49.84375 
Q 52.203125 43.703125 52.203125 31.203125 
z
" id="DejaVuSans-97"/>
       <path d="M 18.109375 8.203125 
L 18.109375 -20.796875 
L 9.078125 -20.796875 
L 9.078125 54.6875 
L 18.109375 54.6875 
L 18.109375 46.390625 
Q 20.953125 51.265625 25.265625 53.625 
Q 29.59375 56 35.59375 56 
Q 45.5625 56 51.78125 48.09375 
Q 58.015625 40.1875 58.015625 27.296875 
Q 58.015625 14.40625 51.78125 6.484375 
Q 45.5625 -1.421875 35.59375 -1.421875 
Q 29.59375 -1.421875 25.265625 0.953125 
Q 20.953125 3.328125 18.109375 8.203125 
z
M 48.6875 27.296875 
Q 48.6875 37.203125 44.609375 42.84375 
Q 40.53125 48.484375 33.40625 48.484375 
Q 26.265625 48.484375 22.1875 42.84375 
Q 18.109375 37.203125 18.109375 27.296875 
Q 18.109375 17.390625 22.1875 11.75 
Q 26.265625 6.109375 33.40625 6.109375 
Q 40.53125 6.109375 44.609375 11.75 
Q 48.6875 17.390625 48.6875 27.296875 
z
" id="DejaVuSans-112"/>
       <path d="M 30.421875 75.984375 
L 30.421875 -13.1875 
L 9.71875 -13.1875 
L 9.71875 -6.203125 
L 21.390625 -6.203125 
L 21.390625 69 
L 9.71875 69 
L 9.71875 75.984375 
z
" id="DejaVuSans-93"/>
      </defs>
      <use xlink:href="#DejaVuSans-116"/>
      <use x="39.208984" xlink:href="#DejaVuSans-105"/>
      <use x="66.992188" xlink:href="#DejaVuSans-109"/>
      <use x="164.404297" xlink:href="#DejaVuSans-101"/>
      <use x="225.927734" xlink:href="#DejaVuSans-32"/>
      <use x="257.714844" xlink:href="#DejaVuSans-91"/>
      <use x="296.728516" xlink:href="#DejaVuSans-116"/>
      <use x="335.9375" xlink:href="#DejaVuSans-105"/>
      <use x="363.720703" xlink:href="#DejaVuSans-109"/>
      <use x="461.132812" xlink:href="#DejaVuSans-101"/>
      <use x="522.65625" xlink:href="#DejaVuSans-32"/>
      <use x="554.443359" xlink:href="#DejaVuSans-115"/>
      <use x="606.542969" xlink:href="#DejaVuSans-116"/>
      <use x="645.751953" xlink:href="#DejaVuSans-97"/>
      <use x="707.03125" xlink:href="#DejaVuSans-109"/>
      <use x="804.443359" xlink:href="#DejaVuSans-112"/>
      <use x="867.919922" xlink:href="#DejaVuSans-93"/>
     </g>
    </g>
   </g>
   <g id="matplotlib.axis_2">
    <g id="ytick_1">
     <g id="line2d_9">
      <defs>
       <path d="M 0 0 
L -3.5 0 
" id="mcfd08fbb9f" style="stroke:#000000;stroke-width:0.8;"/>
      </defs>
      <g>
       <use style="stroke:#000000;stroke-width:0.8;" x="87.57" xlink:href="#mcfd08fbb9f" y="282.141815"/>
      </g>
     </g>
     <g id="text_10">
      <!-- −0.012 -->
      <g transform="translate(43.562188 285.941034)scale(0.1 -0.1)">
       <defs>
        <path d="M 10.59375 35.5 
L 73.1875 35.5 
L 73.1875 27.203125 
L 10.59375 27.203125 
z
" id="DejaVuSans-8722"/>
        <path d="M 10.6875 12.40625 
L 21 12.40625 
L 21 0 
L 10.6875 0 
z
" id="DejaVuSans-46"/>
       </defs>
       <use xlink:href="#DejaVuSans-8722"/>
       <use x="83.789062" xlink:href="#DejaVuSans-48"/>
       <use x="147.412109" xlink:href="#DejaVuSans-46"/>
       <use x="179.199219" xlink:href="#DejaVuSans-48"/>
       <use x="242.822266" xlink:href="#DejaVuSans-49"/>
       <use x="306.445312" xlink:href="#DejaVuSans-50"/>
      </g>
     </g>
    </g>
    <g id="ytick_2">
     <g id="line2d_10">
      <g>
       <use style="stroke:#000000;stroke-width:0.8;" x="87.57" xlink:href="#mcfd08fbb9f" y="246.103212"/>
      </g>
     </g>
     <g id="text_11">
      <!-- −0.010 -->
      <g transform="translate(43.562188 249.90243)scale(0.1 -0.1)">
       <use xlink:href="#DejaVuSans-8722"/>
       <use x="83.789062" xlink:href="#DejaVuSans-48"/>
       <use x="147.412109" xlink:href="#DejaVuSans-46"/>
       <use x="179.199219" xlink:href="#DejaVuSans-48"/>
       <use x="242.822266" xlink:href="#DejaVuSans-49"/>
       <use x="306.445312" xlink:href="#DejaVuSans-48"/>
      </g>
     </g>
    </g>
    <g id="ytick_3">
     <g id="line2d_11">
      <g>
       <use style="stroke:#000000;stroke-width:0.8;" x="87.57" xlink:href="#mcfd08fbb9f" y="210.064608"/>
      </g>
     </g>
     <g id="text_12">
      <!-- −0.008 -->
      <g transform="translate(43.562188 213.863827)scale(0.1 -0.1)">
       <defs>
        <path d="M 31.78125 34.625 
Q 24.75 34.625 20.71875 30.859375 
Q 16.703125 27.09375 16.703125 20.515625 
Q 16.703125 13.921875 20.71875 10.15625 
Q 24.75 6.390625 31.78125 6.390625 
Q 38.8125 6.390625 42.859375 10.171875 
Q 46.921875 13.96875 46.921875 20.515625 
Q 46.921875 27.09375 42.890625 30.859375 
Q 38.875 34.625 31.78125 34.625 
z
M 21.921875 38.8125 
Q 15.578125 40.375 12.03125 44.71875 
Q 8.5 49.078125 8.5 55.328125 
Q 8.5 64.0625 14.71875 69.140625 
Q 20.953125 74.21875 31.78125 74.21875 
Q 42.671875 74.21875 48.875 69.140625 
Q 55.078125 64.0625 55.078125 55.328125 
Q 55.078125 49.078125 51.53125 44.71875 
Q 48 40.375 41.703125 38.8125 
Q 48.828125 37.15625 52.796875 32.3125 
Q 56.78125 27.484375 56.78125 20.515625 
Q 56.78125 9.90625 50.3125 4.234375 
Q 43.84375 -1.421875 31.78125 -1.421875 
Q 19.734375 -1.421875 13.25 4.234375 
Q 6.78125 9.90625 6.78125 20.515625 
Q 6.78125 27.484375 10.78125 32.3125 
Q 14.796875 37.15625 21.921875 38.8125 
z
M 18.3125 54.390625 
Q 18.3125 48.734375 21.84375 45.5625 
Q 25.390625 42.390625 31.78125 42.390625 
Q 38.140625 42.390625 41.71875 45.5625 
Q 45.3125 48.734375 45.3125 54.390625 
Q 45.3125 60.0625 41.71875 63.234375 
Q 38.140625 66.40625 31.78125 66.40625 
Q 25.390625 66.40625 21.84375 63.234375 
Q 18.3125 60.0625 18.3125 54.390625 
z
" id="DejaVuSans-56"/>
       </defs>
       <use xlink:href="#DejaVuSans-8722"/>
       <use x="83.789062" xlink:href="#DejaVuSans-48"/>
       <use x="147.412109" xlink:href="#DejaVuSans-46"/>
       <use x="179.199219" xlink:href="#DejaVuSans-48"/>
       <use x="242.822266" xlink:href="#DejaVuSans-48"/>
       <use x="306.445312" xlink:href="#DejaVuSans-56"/>
      </g>
     </g>
    </g>
    <g id="ytick_4">
     <g id="line2d_12">
      <g>
       <use style="stroke:#000000;stroke-width:0.8;" x="87.57" xlink:href="#mcfd08fbb9f" y="174.026004"/>
      </g>
     </g>
     <g id="text_13">
      <!-- −0.006 -->
      <g transform="translate(43.562188 177.825223)scale(0.1 -0.1)">
       <use xlink:href="#DejaVuSans-8722"/>
       <use x="83.789062" xlink:href="#DejaVuSans-48"/>
       <use x="147.412109" xlink:href="#DejaVuSans-46"/>
       <use x="179.199219" xlink:href="#DejaVuSans-48"/>
       <use x="242.822266" xlink:href="#DejaVuSans-48"/>
       <use x="306.445312" xlink:href="#DejaVuSans-54"/>
      </g>
     </g>
    </g>
    <g id="ytick_5">
     <g id="line2d_13">
      <g>
       <use style="stroke:#000000;stroke-width:0.8;" x="87.57" xlink:href="#mcfd08fbb9f" y="137.9874"/>
      </g>
     </g>
     <g id="text_14">
      <!-- −0.004 -->
      <g transform="translate(43.562188 141.786619)scale(0.1 -0.1)">
       <use xlink:href="#DejaVuSans-8722"/>
       <use x="83.789062" xlink:href="#DejaVuSans-48"/>
       <use x="147.412109" xlink:href="#DejaVuSans-46"/>
       <use x="179.199219" xlink:href="#DejaVuSans-48"/>
       <use x="242.822266" xlink:href="#DejaVuSans-48"/>
       <use x="306.445312" xlink:href="#DejaVuSans-52"/>
      </g>
     </g>
    </g>
    <g id="ytick_6">
     <g id="line2d_14">
      <g>
       <use style="stroke:#000000;stroke-width:0.8;" x="87.57" xlink:href="#mcfd08fbb9f" y="101.948797"/>
      </g>
     </g>
     <g id="text_15">
      <!-- −0.002 -->
      <g transform="translate(43.562188 105.748015)scale(0.1 -0.1)">
       <use xlink:href="#DejaVuSans-8722"/>
       <use x="83.789062" xlink:href="#DejaVuSans-48"/>
       <use x="147.412109" xlink:href="#DejaVuSans-46"/>
       <use x="179.199219" xlink:href="#DejaVuSans-48"/>
       <use x="242.822266" xlink:href="#DejaVuSans-48"/>
       <use x="306.445312" xlink:href="#DejaVuSans-50"/>
      </g>
     </g>
    </g>
    <g id="ytick_7">
     <g id="line2d_15">
      <g>
       <use style="stroke:#000000;stroke-width:0.8;" x="87.57" xlink:href="#mcfd08fbb9f" y="65.910193"/>
      </g>
     </g>
     <g id="text_16">
      <!-- 0.000 -->
      <g transform="translate(51.941875 69.709412)scale(0.1 -0.1)">
       <use xlink:href="#DejaVuSans-48"/>
       <use x="63.623047" xlink:href="#DejaVuSans-46"/>
       <use x="95.410156" xlink:href="#DejaVuSans-48"/>
       <use x="159.033203" xlink:href="#DejaVuSans-48"/>
       <use x="222.65625" xlink:href="#DejaVuSans-48"/>
      </g>
     </g>
    </g>
    <g id="text_17">
     <!-- value [-] -->
     <g transform="translate(37.4825 195.480344)rotate(-90)scale(0.1 -0.1)">
      <defs>
       <path d="M 2.984375 54.6875 
L 12.5 54.6875 
L 29.59375 8.796875 
L 46.6875 54.6875 
L 56.203125 54.6875 
L 35.6875 0 
L 23.484375 0 
z
" id="DejaVuSans-118"/>
       <path d="M 9.421875 75.984375 
L 18.40625 75.984375 
L 18.40625 0 
L 9.421875 0 
z
" id="DejaVuSans-108"/>
       <path d="M 8.5 21.578125 
L 8.5 54.6875 
L 17.484375 54.6875 
L 17.484375 21.921875 
Q 17.484375 14.15625 20.5 10.265625 
Q 23.53125 6.390625 29.59375 6.390625 
Q 36.859375 6.390625 41.078125 11.03125 
Q 45.3125 15.671875 45.3125 23.6875 
L 45.3125 54.6875 
L 54.296875 54.6875 
L 54.296875 0 
L 45.3125 0 
L 45.3125 8.40625 
Q 42.046875 3.421875 37.71875 1 
Q 33.40625 -1.421875 27.6875 -1.421875 
Q 18.265625 -1.421875 13.375 4.4375 
Q 8.5 10.296875 8.5 21.578125 
z
M 31.109375 56 
z
" id="DejaVuSans-117"/>
       <path d="M 4.890625 31.390625 
L 31.203125 31.390625 
L 31.203125 23.390625 
L 4.890625 23.390625 
z
" id="DejaVuSans-45"/>
      </defs>
      <use xlink:href="#DejaVuSans-118"/>
      <use x="59.179688" xlink:href="#DejaVuSans-97"/>
      <use x="120.458984" xlink:href="#DejaVuSans-108"/>
      <use x="148.242188" xlink:href="#DejaVuSans-117"/>
      <use x="211.621094" xlink:href="#DejaVuSans-101"/>
      <use x="273.144531" xlink:href="#DejaVuSans-32"/>
      <use x="304.931641" xlink:href="#DejaVuSans-91"/>
      <use x="343.945312" xlink:href="#DejaVuSans-45"/>
      <use x="380.029297" xlink:href="#DejaVuSans-93"/>
     </g>
    </g>
   </g>
   <g id="line2d_16">
    <path clip-path="url(#peb4b933edd)" d="M 87.070533 67.624156 
L 87.721625 67.75374 
L 88.372716 68.397895 
L 89.023808 68.628128 
L 89.6749 68.275961 
L 90.325992 68.323098 
L 90.977084 67.322802 
L 91.628176 67.2214 
L 92.279268 67.829808 
L 92.93036 68.125486 
L 93.581452 69.036104 
L 94.232544 69.243609 
L 94.883636 69.04293 
L 95.534728 69.598339 
L 96.18582 69.0739 
L 96.836912 69.025869 
L 97.488004 69.505363 
L 98.139096 69.474611 
L 98.790188 69.769505 
L 99.44128 69.266939 
L 100.092372 69.471729 
L 100.743464 69.117969 
L 101.394556 67.548077 
L 102.045648 66.863117 
L 103.347832 65.178223 
L 103.998924 64.948975 
L 105.301108 65.840097 
L 105.9522 65.677923 
L 106.603292 65.807608 
L 107.254384 66.811457 
L 107.905476 68.377282 
L 108.556567 70.286968 
L 109.207659 72.608169 
L 109.858751 75.588573 
L 110.509843 77.200796 
L 111.160935 77.701308 
L 111.812027 78.575252 
L 112.463119 77.637975 
L 113.114211 72.535496 
L 115.067487 52.628112 
L 115.718579 48.071175 
L 116.369671 51.581568 
L 118.322947 72.498987 
L 118.974039 77.625004 
L 119.625131 77.621596 
L 120.276223 75.225998 
L 120.927315 74.056742 
L 121.578407 73.400959 
L 122.880591 71.578109 
L 123.531683 71.19127 
L 124.833867 67.620692 
L 125.484959 66.172709 
L 126.136051 65.630673 
L 126.787143 66.40398 
L 127.438235 66.329781 
L 128.089327 65.94289 
L 130.693694 67.059616 
L 131.344786 67.9563 
L 131.995878 68.585147 
L 132.64697 68.742197 
L 133.298062 68.433174 
L 133.949154 68.783886 
L 134.600246 69.756514 
L 135.90243 69.45059 
L 136.553522 70.268557 
L 137.204614 69.998507 
L 137.855706 69.456597 
L 139.808982 68.590147 
L 140.460074 68.54939 
L 141.111166 68.192333 
L 141.762258 67.975225 
L 142.41335 68.284031 
L 143.064442 67.369129 
L 143.715534 67.092701 
L 144.366626 67.18662 
L 145.017718 67.506728 
L 145.66881 67.457208 
L 146.319902 67.98739 
L 146.970994 68.713367 
L 147.622086 68.757186 
L 148.273178 68.329909 
L 150.226453 68.566861 
L 150.877545 68.729506 
L 151.528637 69.168565 
L 152.179729 69.046876 
L 152.830821 68.65524 
L 153.481913 68.771154 
L 154.133005 68.34143 
L 154.784097 68.379782 
L 155.435189 68.563033 
L 156.737373 68.526163 
L 157.388465 68.757533 
L 158.039557 68.625125 
L 159.341741 67.957782 
L 159.992833 68.041412 
L 160.643925 67.722203 
L 161.295017 67.232877 
L 161.946109 67.759712 
L 162.597201 68.531359 
L 163.248293 68.423312 
L 163.899385 68.782736 
L 164.550477 69.527038 
L 165.201569 68.839695 
L 165.852661 68.396382 
L 166.503753 68.366048 
L 167.154845 68.721504 
L 167.805937 68.356631 
L 169.759213 68.894779 
L 171.061396 68.196342 
L 171.712488 68.57789 
L 173.014672 67.865754 
L 173.665764 68.158824 
L 174.316856 68.103313 
L 175.61904 68.56334 
L 176.270132 69.062765 
L 176.921224 69.125315 
L 177.572316 68.740366 
L 178.223408 68.655855 
L 178.8745 67.981905 
L 179.525592 68.230412 
L 180.176684 68.24189 
L 181.478868 68.48215 
L 182.781052 68.378254 
L 183.432144 68.173328 
L 184.083236 68.552409 
L 184.734328 68.634182 
L 185.38542 68.515323 
L 186.036512 68.827505 
L 186.687604 68.454911 
L 187.338696 68.247073 
L 187.989788 68.206725 
L 188.64088 68.698467 
L 189.291972 69.031698 
L 189.943064 68.789534 
L 190.594156 68.911518 
L 191.245247 68.81158 
L 191.896339 67.844385 
L 192.547431 67.859172 
L 193.198523 68.087637 
L 193.849615 67.938609 
L 194.500707 68.152918 
L 195.151799 68.083959 
L 195.802891 68.385499 
L 196.453983 68.861876 
L 197.105075 68.726391 
L 198.407259 69.179348 
L 199.709443 68.522035 
L 200.360535 68.411666 
L 201.011627 68.731125 
L 202.313811 68.599005 
L 202.964903 68.78678 
L 203.615995 68.220728 
L 204.267087 68.279726 
L 204.918179 68.096977 
L 206.220363 68.585097 
L 206.871455 68.539271 
L 208.173639 67.966497 
L 210.126915 68.28731 
L 210.778007 68.67037 
L 211.429098 68.864927 
L 212.08019 68.739119 
L 212.731282 68.410668 
L 213.382374 68.812625 
L 214.033466 69.045491 
L 214.684558 68.456879 
L 215.33565 68.825653 
L 215.986742 68.956006 
L 216.637834 68.313227 
L 217.288926 68.527121 
L 217.940018 68.897877 
L 218.59111 69.019859 
L 219.242202 68.744187 
L 220.544386 68.523193 
L 221.195478 68.002781 
L 221.84657 68.120593 
L 222.497662 68.461154 
L 223.799846 68.599206 
L 224.450938 68.240655 
L 225.10203 68.09631 
L 225.753122 68.310488 
L 226.404214 67.907708 
L 227.055306 68.038657 
L 228.35749 68.54241 
L 229.008582 68.047721 
L 229.659674 68.176193 
L 230.310766 68.474585 
L 230.961858 68.202925 
L 231.61295 68.434055 
L 232.915133 69.490674 
L 234.868409 70.125483 
L 235.519501 69.990782 
L 236.821685 69.190163 
L 237.472777 69.207047 
L 238.123869 68.655262 
L 240.728237 65.836203 
L 241.379329 65.458912 
L 242.030421 66.053102 
L 242.681513 66.255624 
L 243.332605 65.876897 
L 243.983697 66.114233 
L 244.634789 66.832826 
L 245.936973 69.556039 
L 247.890249 75.842629 
L 248.541341 76.641925 
L 249.192433 77.139805 
L 249.843525 78.463935 
L 250.494617 75.918018 
L 253.098984 50.551456 
L 253.750076 49.441294 
L 254.401168 54.822419 
L 256.354444 74.801628 
L 257.005536 78.216471 
L 257.656628 77.137736 
L 258.30772 75.332081 
L 258.958812 74.278505 
L 260.260996 71.614611 
L 261.56318 69.891817 
L 262.865364 67.509766 
L 263.516456 66.851511 
L 264.167548 66.791484 
L 264.81864 66.61975 
L 265.469732 65.993817 
L 266.120824 65.883732 
L 267.423008 66.45489 
L 268.0741 67.235378 
L 268.725192 67.755505 
L 269.376284 68.131269 
L 270.027376 68.247531 
L 271.32956 69.109632 
L 272.631744 70.542547 
L 273.282835 70.481472 
L 274.585019 69.759203 
L 275.236111 69.317125 
L 276.538295 68.753747 
L 277.189387 69.237303 
L 277.840479 68.923304 
L 278.491571 68.159448 
L 279.142663 68.182865 
L 279.793755 68.054908 
L 280.444847 67.59862 
L 281.747031 68.203208 
L 283.049215 67.922546 
L 283.700307 67.791674 
L 284.351399 68.36641 
L 285.002491 68.089442 
L 285.653583 68.165537 
L 286.955767 68.940498 
L 288.257951 68.879067 
L 288.909043 69.291446 
L 289.560135 69.187206 
L 290.211227 68.844331 
L 290.862319 68.678858 
L 291.513411 68.971865 
L 292.164503 68.636174 
L 292.815595 68.510894 
L 294.117778 68.902599 
L 294.76887 68.473312 
L 295.419962 68.343189 
L 296.071054 68.477419 
L 297.373238 68.16576 
L 298.02433 68.305997 
L 299.326514 68.158541 
L 300.628698 68.449253 
L 301.27979 68.38041 
L 301.930882 68.815686 
L 302.581974 68.749322 
L 304.53525 68.809307 
L 305.837434 68.677835 
L 306.488526 68.898781 
L 307.139618 68.899801 
L 307.79071 68.761946 
L 308.441802 69.055031 
L 309.092894 68.674662 
L 309.743986 68.523652 
L 310.395078 68.529634 
L 311.04617 68.316822 
L 311.697262 68.450577 
L 312.348354 68.328474 
L 313.650538 68.685122 
L 314.301629 68.507092 
L 314.952721 68.511845 
L 316.905997 68.869685 
L 317.557089 68.687149 
L 318.208181 68.713942 
L 318.859273 68.531112 
L 319.510365 68.182007 
L 320.161457 68.470227 
L 320.812549 68.492889 
L 321.463641 68.814393 
L 322.114733 68.94199 
L 322.765825 68.808773 
L 323.416917 68.905867 
L 324.719101 68.292874 
L 326.021285 68.782231 
L 326.672377 68.672351 
L 327.323469 69.016958 
L 327.974561 68.768693 
L 328.625653 68.294125 
L 329.927837 68.688775 
L 330.578929 68.365792 
L 331.230021 68.914152 
L 331.881113 68.999443 
L 333.834389 68.529987 
L 334.48548 68.574505 
L 335.136572 68.133203 
L 336.438756 68.352186 
L 337.089848 68.125679 
L 337.74094 68.507937 
L 339.694216 69.278765 
L 340.345308 69.315345 
L 340.9964 68.974539 
L 341.647492 68.404628 
L 342.298584 68.449497 
L 342.949676 68.782103 
L 343.600768 68.53517 
L 344.25186 68.731042 
L 344.902952 69.094939 
L 346.205136 68.201032 
L 346.856228 68.368472 
L 347.50732 68.725826 
L 348.158412 68.663288 
L 349.460596 69.093881 
L 350.76278 68.329171 
L 351.413872 68.312713 
L 352.064964 68.615942 
L 352.716056 68.724553 
L 354.01824 68.733123 
L 354.669332 68.32832 
L 355.971515 68.259283 
L 357.273699 68.905991 
L 358.575883 69.120727 
L 359.878067 68.701601 
L 360.529159 68.861235 
L 361.831343 68.922942 
L 362.482435 69.176402 
L 363.133527 68.933975 
L 363.784619 68.830657 
L 364.435711 68.55787 
L 365.086803 68.672503 
L 365.737895 68.941338 
L 366.388987 68.743256 
L 367.040079 68.739209 
L 367.691171 68.604891 
L 368.342263 68.234041 
L 368.993355 68.064644 
L 370.295539 67.979209 
L 371.597723 68.352298 
L 372.248815 68.005916 
L 374.853183 68.404673 
L 375.504274 69.64385 
L 376.155366 70.206765 
L 376.806458 70.078164 
L 378.108642 70.147864 
L 378.759734 69.934788 
L 379.410826 69.142558 
L 380.061918 69.743103 
L 380.71301 69.735413 
L 382.015194 68.720364 
L 382.666286 67.835274 
L 383.317378 67.423177 
L 383.96847 66.189767 
L 384.619562 66.302712 
L 385.270654 66.195589 
L 385.921746 65.657318 
L 386.572838 65.483962 
L 387.22393 64.940728 
L 387.875022 65.646404 
L 388.526114 66.94952 
L 389.828298 70.91693 
L 391.130482 75.60891 
L 391.781574 77.133647 
L 392.432666 78.28985 
L 393.083758 78.910237 
L 393.73485 78.623406 
L 394.385942 73.364277 
L 396.339217 53.260878 
L 396.990309 48.525437 
L 397.641401 51.477726 
L 399.594677 71.573128 
L 400.245769 77.110486 
L 400.896861 78.372448 
L 401.547953 76.358615 
L 402.199045 74.962506 
L 402.850137 74.040456 
L 403.501229 72.610122 
L 405.454505 69.799479 
L 406.105597 68.52356 
L 406.756689 66.7528 
L 407.407781 66.216122 
L 408.058873 66.36289 
L 408.709965 66.20004 
L 409.361057 66.176589 
L 410.012149 66.384157 
L 410.663241 67.100555 
L 411.314333 67.316841 
L 411.965425 67.303024 
L 412.616517 68.068765 
L 413.267609 68.358788 
L 413.918701 68.916243 
L 415.220885 69.562189 
L 415.871977 70.071256 
L 416.523069 70.249553 
L 417.17416 70.034799 
L 417.825252 70.257706 
L 419.778528 69.383393 
L 420.42962 69.208596 
L 421.080712 68.706428 
L 421.731804 68.788268 
L 422.382896 68.682352 
L 423.033988 68.077738 
L 423.68508 67.838635 
L 424.336172 68.210608 
L 424.987264 67.801366 
L 425.638356 67.824163 
L 426.289448 68.001504 
L 426.94054 68.562928 
L 428.242724 68.063135 
L 428.893816 68.394986 
L 430.196 68.699736 
L 430.847092 69.290072 
L 431.498184 69.319275 
L 432.149276 69.601104 
L 433.45146 68.826064 
L 434.102552 68.969092 
L 434.753644 68.973244 
L 435.404736 69.289534 
L 436.70692 68.562842 
L 437.358011 68.597304 
L 438.009103 68.03318 
L 438.660195 68.010082 
L 439.311287 68.331599 
L 439.962379 69.048651 
L 440.613471 69.068169 
L 441.264563 68.598903 
L 443.217839 68.168315 
L 443.868931 68.244108 
L 444.520023 68.940155 
L 445.171115 69.244712 
L 445.822207 68.952462 
L 446.473299 68.803299 
L 447.124391 68.918506 
L 447.775483 68.724838 
L 448.426575 68.65244 
L 449.077667 68.75436 
L 449.728759 69.049343 
L 450.379851 69.135652 
L 451.682035 68.616605 
L 452.984219 68.806764 
L 453.635311 68.659841 
L 454.937495 69.101566 
L 456.239679 68.620406 
L 456.890771 68.778087 
L 460.797322 68.437192 
L 462.099506 68.6809 
L 462.750598 69.568715 
L 463.40169 69.632143 
L 464.052782 68.851693 
L 464.703874 69.474694 
L 465.354966 68.650743 
L 466.006058 68.198347 
L 466.65715 68.74916 
L 467.959334 68.544118 
L 468.610426 68.624234 
L 469.91261 68.117598 
L 470.563702 68.784262 
L 471.214794 69.247423 
L 471.865886 69.539105 
L 472.516978 69.398229 
L 473.16807 69.734664 
L 474.470254 67.6522 
L 475.772438 68.672943 
L 476.42353 68.496766 
L 477.074622 69.106853 
L 477.725714 69.030048 
L 479.027897 68.626785 
L 479.678989 68.139465 
L 480.330081 69.061948 
L 480.981173 69.230803 
L 481.632265 68.856878 
L 482.934449 69.250219 
L 484.236633 68.834842 
L 485.538817 68.98936 
L 486.189909 68.875704 
L 486.841001 68.302351 
L 487.492093 68.042483 
L 488.794277 68.427735 
L 489.445369 68.077123 
L 490.096461 68.78456 
L 490.747553 68.933488 
L 491.398645 68.89458 
L 492.049737 69.389627 
L 492.700829 69.642324 
L 493.351921 69.545987 
L 494.003013 69.656414 
L 494.654105 69.15021 
L 495.305197 68.464826 
L 495.956289 68.63533 
L 496.607381 68.594589 
L 497.258473 68.390607 
L 498.560657 68.955466 
L 499.211748 68.666607 
L 499.86284 68.13055 
L 501.165024 68.486957 
L 501.816116 69.02878 
L 503.1183 69.707492 
L 503.769392 69.758697 
L 504.420484 68.702114 
L 505.071576 68.307942 
L 507.024852 68.267217 
L 508.327036 69.25906 
L 508.978128 68.557839 
L 509.62922 68.422448 
L 510.280312 69.074425 
L 511.582496 69.042337 
L 512.233588 69.521893 
L 512.88468 69.563748 
L 513.535772 68.480938 
L 514.186864 68.213576 
L 514.837956 68.882625 
L 515.489048 69.318246 
L 516.14014 69.441009 
L 516.791232 70.03768 
L 517.442324 69.45957 
L 518.093416 68.574422 
L 518.744508 68.056963 
L 519.395599 67.74129 
L 520.046691 68.126265 
L 520.697783 69.007617 
L 521.999967 68.638801 
L 523.302151 67.592457 
L 523.953243 67.492796 
L 524.604335 68.31304 
L 525.255427 69.401364 
L 525.906519 69.295598 
L 526.557611 69.333663 
L 527.208703 68.971532 
L 527.859795 68.300572 
L 528.510887 69.198119 
L 529.161979 69.631232 
L 529.813071 70.201051 
L 530.464163 70.99206 
L 531.115255 70.506346 
L 531.766347 69.841333 
L 532.417439 69.734712 
L 533.068531 69.751219 
L 533.719623 69.075856 
L 534.370715 69.080521 
L 535.021807 68.539675 
L 535.672899 66.484657 
L 536.323991 66.078108 
L 536.975083 65.843064 
L 537.626175 65.775154 
L 538.928359 66.543493 
L 539.579451 66.339748 
L 540.230542 65.779329 
L 540.881634 66.893374 
L 542.83491 73.237646 
L 543.486002 75.949026 
L 544.137094 77.958524 
L 545.439278 77.807956 
L 546.09037 78.035902 
L 546.741462 73.610501 
L 547.392554 66.215621 
L 549.34583 49.264702 
L 549.996922 51.517699 
L 551.950198 72.010844 
L 552.60129 76.883467 
L 553.252382 77.982934 
L 553.903474 77.199723 
L 555.205658 73.981893 
L 555.85675 73.513905 
L 557.158934 69.999458 
L 558.461118 68.012933 
L 559.11221 67.462878 
L 559.763302 66.751029 
L 560.414393 67.240241 
L 561.065485 67.074806 
L 561.716577 66.275732 
L 562.367669 65.986648 
L 563.018761 66.34903 
L 563.669853 67.178344 
L 564.320945 67.659948 
L 564.972037 67.856981 
L 565.623129 68.959523 
L 566.274221 69.082801 
L 566.925313 69.472742 
L 568.227497 70.764571 
L 568.878589 71.016441 
L 569.529681 70.090391 
L 570.180773 69.964079 
L 570.831865 69.701231 
L 571.482957 69.270893 
L 572.134049 69.161184 
L 573.436233 69.205776 
L 574.087325 68.989432 
L 574.738417 68.481059 
L 576.040601 68.183078 
L 576.691693 67.818064 
L 578.644969 68.081173 
L 579.947153 69.540842 
L 580.598245 68.96256 
L 581.249336 69.39408 
L 581.900428 69.012932 
L 582.55152 68.014028 
L 583.853704 68.828237 
L 585.155888 69.232934 
L 586.458072 69.098777 
L 587.109164 68.870866 
L 587.760256 69.032802 
L 588.411348 69.04213 
L 589.713532 69.37326 
L 590.364624 68.864924 
L 591.015716 68.545899 
L 592.3179 68.621743 
L 592.968992 68.843044 
L 594.271176 68.952359 
L 594.922268 68.780146 
L 595.57336 68.071541 
L 596.224452 68.64481 
L 597.526636 68.79568 
L 598.177728 69.219761 
L 598.82882 68.667239 
L 599.479912 68.87778 
L 600.782096 68.805776 
L 602.084279 69.23554 
L 602.735371 69.573322 
L 603.386463 69.400779 
L 604.037555 68.936954 
L 604.688647 69.240642 
L 605.339739 69.017728 
L 605.990831 68.646578 
L 606.641923 68.826607 
L 607.293015 69.22906 
L 608.595199 68.407094 
L 609.246291 68.806752 
L 609.897383 68.879239 
L 610.548475 68.203098 
L 611.850659 69.081397 
L 612.501751 69.1253 
L 613.152843 69.317745 
L 613.803935 69.627095 
L 615.757211 68.417965 
L 616.408303 68.403105 
L 617.710487 68.74662 
L 618.361579 69.070918 
L 619.012671 69.584807 
L 619.663763 69.021686 
L 620.314855 68.768572 
L 620.965947 68.859899 
L 621.617039 68.682669 
L 622.26813 68.9169 
L 622.919222 69.45332 
L 623.570314 69.35649 
L 624.221406 68.786106 
L 624.872498 68.559795 
L 625.52359 68.205832 
L 626.174682 68.52009 
L 627.476866 69.666051 
L 628.77905 69.665343 
L 629.430142 69.036646 
L 630.081234 68.600596 
L 630.732326 68.309257 
L 630.732326 68.309257 
" style="fill:none;stroke:#1f77b4;stroke-linecap:square;stroke-width:1.5;"/>
   </g>
   <g id="line2d_17">
    <path clip-path="url(#peb4b933edd)" d="M 87.070533 269.600381 
L 87.721625 267.690335 
L 88.372716 267.438065 
L 89.023808 269.672458 
L 89.6749 270.735597 
L 90.325992 269.672458 
L 90.977084 267.780432 
L 91.628176 268.032702 
L 92.279268 270.176999 
L 92.93036 271.528447 
L 93.581452 271.095983 
L 94.232544 269.239995 
L 94.883636 267.852509 
L 96.18582 271.366273 
L 96.836912 270.789655 
L 97.488004 269.312072 
L 98.139096 268.789513 
L 99.44128 272.591585 
L 100.092372 271.94289 
L 100.743464 270.573424 
L 101.394556 270.465308 
L 102.69674 272.663663 
L 103.347832 271.870813 
L 103.998924 270.627481 
L 104.650016 270.519366 
L 105.9522 273.546608 
L 107.254384 270.66352 
L 107.905476 270.573424 
L 108.556567 272.663663 
L 109.207659 274.141245 
L 109.858751 273.168203 
L 110.509843 271.222118 
L 111.160935 271.041925 
L 111.812027 273.060087 
L 112.463119 274.519651 
L 113.114211 273.438493 
L 113.765303 271.996948 
L 114.416395 272.177141 
L 115.067487 273.961052 
L 115.718579 274.898056 
L 116.369671 274.177284 
L 117.020763 272.411392 
L 117.671855 271.70864 
L 118.322947 274.069168 
L 118.974039 275.600809 
L 120.276223 272.069026 
L 120.927315 272.357334 
L 121.578407 274.53767 
L 122.229499 275.726944 
L 122.880591 274.591728 
L 123.531683 272.591585 
L 124.182775 272.014968 
L 124.833867 274.069168 
L 125.484959 275.690905 
L 126.136051 274.645786 
L 126.787143 272.789798 
L 127.438235 272.249219 
L 128.089327 273.76284 
L 128.740419 274.952114 
L 129.39151 273.168203 
L 130.042602 271.041925 
L 130.693694 270.825694 
L 131.344786 272.663663 
L 131.995878 273.258299 
L 132.64697 271.96091 
L 133.298062 269.654439 
L 133.949154 268.717435 
L 135.251338 273.51057 
L 135.90243 273.078106 
L 136.553522 270.789655 
L 137.204614 270.555404 
L 138.506798 276.267523 
L 139.15789 275.744963 
L 139.808982 273.402454 
L 140.460074 273.402454 
L 141.762258 278.14153 
L 142.41335 277.348681 
L 143.064442 275.240423 
L 143.715534 274.555689 
L 144.366626 276.59187 
L 145.017718 279.078534 
L 145.66881 278.339743 
L 146.319902 275.672886 
L 146.970994 275.366558 
L 147.622086 277.528874 
L 148.273178 279.18665 
L 148.92427 277.997376 
L 149.575361 276.267523 
L 150.226453 277.006314 
L 150.877545 280.321866 
L 151.528637 281.078677 
L 152.830821 274.447573 
L 154.784097 261.653869 
L 156.086281 240.877614 
L 156.737373 239.255877 
L 158.039557 257.779719 
L 158.690649 263.834205 
L 159.992833 272.771778 
L 160.643925 275.726944 
L 161.295017 277.510855 
L 161.946109 277.132449 
L 162.597201 275.168345 
L 163.248293 275.024191 
L 163.899385 277.510855 
L 164.550477 279.492978 
L 165.201569 278.736167 
L 165.852661 276.790083 
L 166.503753 276.519793 
L 167.154845 278.628051 
L 167.805937 280.249789 
L 168.457029 279.024476 
L 169.108121 276.880179 
L 169.759213 276.465735 
L 171.061396 280.538097 
L 171.712488 279.70921 
L 172.36358 277.168488 
L 173.014672 276.231484 
L 174.316856 280.520078 
L 174.967948 279.94346 
L 175.61904 277.88926 
L 176.270132 277.11443 
L 177.572316 280.502059 
L 178.223408 279.18665 
L 178.8745 276.681967 
L 179.525592 276.177426 
L 180.176684 278.862302 
L 180.827776 280.285827 
L 182.12996 276.790083 
L 182.781052 276.501774 
L 184.083236 279.312785 
L 184.734328 278.465878 
L 185.38542 276.159407 
L 186.036512 275.636847 
L 187.338696 278.339743 
L 187.989788 276.663948 
L 188.64088 274.447573 
L 189.291972 274.213322 
L 189.943064 275.871098 
L 190.594156 276.790083 
L 191.245247 275.726944 
L 191.896339 274.087187 
L 192.547431 273.402454 
L 193.849615 275.762982 
L 194.500707 275.600809 
L 195.151799 273.708782 
L 195.802891 273.276319 
L 197.105075 277.078391 
L 197.756167 276.573851 
L 198.407259 275.204384 
L 199.058351 275.240423 
L 200.360535 278.519936 
L 201.011627 278.519936 
L 201.662719 277.096411 
L 202.313811 276.916218 
L 203.615995 280.826406 
L 204.267087 280.285827 
L 204.918179 278.988437 
L 205.569271 278.682109 
L 206.871455 282.592298 
L 207.522547 281.691333 
L 208.173639 279.510997 
L 208.824731 279.132592 
L 209.475823 281.403024 
L 210.126915 283.168916 
L 210.778007 282.177854 
L 211.429098 280.285827 
L 212.08019 279.510997 
L 213.382374 283.168916 
L 214.033466 282.123796 
L 214.684558 280.105634 
L 215.33565 279.565055 
L 216.637834 283.619398 
L 217.288926 282.664375 
L 217.940018 280.538097 
L 218.59111 280.177711 
L 219.893294 284.033842 
L 220.544386 283.096838 
L 221.195478 280.916503 
L 221.84657 280.141673 
L 222.497662 281.691333 
L 223.148754 283.781572 
L 223.799846 282.988723 
L 224.450938 280.98858 
L 225.10203 280.538097 
L 226.404214 284.304132 
L 227.055306 283.0608 
L 227.706398 280.393943 
L 228.35749 280.231769 
L 229.008582 282.520221 
L 229.659674 284.123939 
L 230.310766 283.493263 
L 230.961858 281.024619 
L 231.61295 280.21375 
L 232.915133 284.322151 
L 233.566225 283.168916 
L 234.217317 281.673313 
L 234.868409 281.385005 
L 236.170593 284.754614 
L 236.821685 284.015823 
L 237.472777 282.0337 
L 238.123869 281.024619 
L 239.426053 285.042923 
L 240.077145 284.304132 
L 240.728237 282.53824 
L 241.379329 282.105777 
L 242.681513 286.484467 
L 243.332605 285.853792 
L 243.983697 283.295051 
L 244.634789 282.213893 
L 245.936973 286.286255 
L 246.588065 285.133019 
L 247.239157 283.277031 
L 247.890249 283.493263 
L 248.541341 285.078962 
L 249.192433 286.052004 
L 249.843525 285.223116 
L 250.494617 283.763552 
L 251.145709 283.745533 
L 251.796801 285.925869 
L 252.447892 287.529587 
L 253.098984 286.286255 
L 253.750076 284.033842 
L 254.401168 283.871668 
L 255.05226 286.052004 
L 255.703352 287.70978 
L 256.354444 286.91693 
L 257.005536 284.880749 
L 257.656628 283.925726 
L 258.958812 287.475529 
L 259.609904 287.079104 
L 260.260996 285.151039 
L 260.912088 284.484325 
L 262.214272 288.196301 
L 262.865364 287.331374 
L 263.516456 285.277174 
L 264.167548 284.700556 
L 265.469732 288.700841 
L 266.120824 287.781857 
L 266.771916 285.727656 
L 267.423008 285.115 
L 268.725192 288.754899 
L 269.376284 287.70978 
L 270.027376 285.745676 
L 270.678468 285.187077 
L 271.980652 287.493548 
L 272.631744 286.286255 
L 273.282835 283.781572 
L 273.933927 283.204954 
L 274.585019 285.006884 
L 275.236111 286.1421 
L 275.887203 284.880749 
L 276.538295 281.853506 
L 277.189387 281.186792 
L 277.840479 283.439205 
L 278.491571 286.826834 
L 279.142663 286.304274 
L 279.793755 283.331089 
L 280.444847 282.970703 
L 281.747031 288.412532 
L 283.049215 285.709637 
L 283.700307 286.088042 
L 284.351399 288.808957 
L 285.002491 290.953254 
L 285.653583 289.781999 
L 286.304675 287.907992 
L 286.955767 287.205239 
L 287.606859 289.998231 
L 288.257951 291.728084 
L 288.909043 290.178424 
L 289.560135 287.781857 
L 290.211227 286.826834 
L 291.513411 291.367698 
L 292.164503 290.935235 
L 292.815595 288.935092 
L 293.466686 289.601806 
L 294.117778 293.11557 
L 294.76887 295.169771 
L 295.419962 292.971416 
L 296.071054 288.358474 
L 296.722146 285.799734 
L 297.373238 282.249931 
L 298.02433 276.916218 
L 298.675422 267.456084 
L 299.326514 256.21204 
L 299.977606 250.139535 
L 300.628698 256.121943 
L 301.27979 266.26681 
L 301.930882 272.231199 
L 302.581974 276.718005 
L 303.884158 287.529587 
L 304.53525 289.277459 
L 305.186342 288.971131 
L 305.837434 287.511567 
L 306.488526 286.91693 
L 307.79071 291.385717 
L 308.441802 291.529872 
L 309.743986 288.052146 
L 310.395078 289.619826 
L 311.04617 291.8362 
L 311.697262 291.439775 
L 312.348354 289.583787 
L 312.999446 289.187362 
L 313.650538 291.439775 
L 314.301629 292.8633 
L 314.952721 291.403736 
L 315.603813 289.421613 
L 316.254905 288.935092 
L 316.905997 291.223543 
L 317.557089 292.665088 
L 318.208181 291.331659 
L 318.859273 289.079247 
L 319.510365 288.881034 
L 320.812549 292.791223 
L 321.463641 291.169486 
L 322.114733 288.376494 
L 322.765825 288.142243 
L 323.416917 290.466733 
L 324.068009 291.908277 
L 324.719101 291.04335 
L 325.370193 288.646783 
L 326.021285 287.673741 
L 327.323469 291.728084 
L 327.974561 290.358617 
L 328.625653 287.889973 
L 329.276745 287.133162 
L 329.927837 289.133304 
L 330.578929 290.304559 
L 331.230021 289.043208 
L 331.881113 286.898911 
L 332.532205 285.817753 
L 333.183297 286.862872 
L 333.834389 288.646783 
L 334.48548 288.016108 
L 335.787664 284.808672 
L 336.438756 285.36727 
L 337.089848 286.880892 
L 337.74094 286.66466 
L 339.043124 284.520363 
L 339.694216 285.63756 
L 340.345308 287.403451 
L 340.9964 286.808815 
L 341.647492 285.475386 
L 342.298584 285.63756 
L 342.949676 288.286397 
L 343.600768 290.304559 
L 344.25186 289.673884 
L 344.902952 287.980069 
L 345.554044 287.763838 
L 346.856228 291.764123 
L 347.50732 292.052431 
L 348.158412 290.394656 
L 348.809504 289.673884 
L 350.111688 293.728226 
L 350.76278 292.899339 
L 351.413872 290.592868 
L 352.064964 290.124366 
L 353.367148 294.448998 
L 354.01824 293.36784 
L 354.669332 290.899196 
L 355.320423 290.520791 
L 355.971515 292.629049 
L 356.622607 294.286825 
L 357.273699 293.656149 
L 357.924791 291.81818 
L 358.575883 291.223543 
L 359.878067 294.809385 
L 360.529159 293.998516 
L 361.180251 292.052431 
L 361.831343 291.619968 
L 362.482435 293.403879 
L 363.133527 294.845423 
L 363.784619 294.178709 
L 364.435711 292.59301 
L 365.086803 292.358759 
L 365.737895 294.755327 
L 366.388987 296.124794 
L 367.040079 294.701269 
L 368.342263 292.466875 
L 368.993355 293.403879 
L 369.644447 295.115713 
L 370.295539 294.178709 
L 370.946631 292.34074 
L 371.597723 292.106489 
L 372.248815 293.36784 
L 372.899907 294.376921 
L 373.550999 294.088612 
L 374.202091 292.574991 
L 374.853183 292.520933 
L 376.155366 296.124794 
L 376.806458 294.232767 
L 377.45755 291.025331 
L 378.108642 290.881177 
L 379.410826 295.259867 
L 380.061918 295.584215 
L 380.71301 293.205667 
L 381.364102 291.854219 
L 382.015194 293.421898 
L 382.666286 295.548176 
L 383.317378 296.629334 
L 384.619562 292.647068 
L 385.270654 294.521076 
L 385.921746 297.476241 
L 386.572838 297.314067 
L 387.22393 294.719288 
L 387.875022 293.530014 
L 388.526114 295.476099 
L 389.177206 297.836627 
L 389.828298 296.863585 
L 390.47939 294.016535 
L 391.130482 293.277744 
L 391.781574 295.656292 
L 392.432666 297.530299 
L 393.083758 297.350106 
L 393.73485 294.755327 
L 394.385942 294.034555 
L 395.688126 299.368268 
L 396.339217 298.233052 
L 396.990309 295.566195 
L 397.641401 294.394941 
L 398.292493 296.088755 
L 398.943585 298.503341 
L 399.594677 297.674454 
L 400.245769 294.9175 
L 400.896861 294.485037 
L 401.547953 296.845566 
L 402.199045 298.773631 
L 402.850137 297.836627 
L 403.501229 295.818465 
L 404.152321 295.151751 
L 405.454505 299.746673 
L 406.105597 299.944886 
L 407.407781 295.908562 
L 408.058873 296.953681 
L 408.709965 298.863727 
L 409.361057 298.611457 
L 410.012149 296.304987 
L 410.663241 295.746388 
L 411.314333 297.836627 
L 411.965425 299.206094 
L 412.616517 298.485322 
L 413.267609 296.48518 
L 413.918701 295.422041 
L 414.569793 297.530299 
L 415.220885 300.395368 
L 415.871977 299.674596 
L 416.523069 295.728369 
L 417.17416 294.611172 
L 418.476344 300.665658 
L 419.127436 299.980924 
L 419.778528 297.872666 
L 420.42962 296.611315 
L 421.731804 299.620538 
L 422.382896 298.377206 
L 423.033988 296.160832 
L 423.68508 296.268948 
L 424.987264 299.440345 
L 425.638356 297.76455 
L 426.289448 294.358902 
L 426.94054 293.205667 
L 428.242724 298.611457 
L 428.893816 297.223971 
L 429.544908 294.124651 
L 430.196 292.665088 
L 430.847092 294.304844 
L 431.498184 297.710492 
L 432.149276 297.314067 
L 432.800368 294.863442 
L 433.45146 294.881462 
L 434.753644 300.413387 
L 435.404736 300.305272 
L 436.055828 297.746531 
L 436.70692 296.503199 
L 438.009103 303.242418 
L 438.660195 301.548603 
L 439.311287 298.665515 
L 439.962379 297.494261 
L 440.613471 300.034982 
L 441.264563 303.422611 
L 441.915655 303.350534 
L 442.566747 299.872808 
L 443.217839 297.566338 
L 443.868931 300.233194 
L 444.520023 303.837055 
L 445.171115 303.855074 
L 445.822207 301.188217 
L 446.473299 301.764835 
L 447.124391 305.116425 
L 447.775483 305.620966 
L 448.426575 301.89097 
L 449.077667 296.935662 
L 450.379851 285.835772 
L 451.030943 281.25887 
L 452.333127 262.807104 
L 452.984219 264.897343 
L 454.286403 286.106062 
L 454.937495 291.980354 
L 455.588587 294.575134 
L 456.239679 296.413102 
L 456.890771 300.034982 
L 457.541863 302.593723 
L 458.192954 301.999086 
L 459.495138 298.755612 
L 460.14623 300.485465 
L 460.797322 303.458649 
L 461.448414 303.404592 
L 462.099506 301.11614 
L 462.750598 299.530442 
L 464.052782 304.900194 
L 464.703874 304.035267 
L 465.354966 300.845851 
L 466.006058 299.386287 
L 467.308242 304.539808 
L 467.959334 303.891113 
L 468.610426 301.440488 
L 469.261518 299.56648 
L 469.91261 301.710777 
L 470.563702 304.828116 
L 471.214794 304.828116 
L 472.516978 299.097978 
L 473.16807 301.134159 
L 473.819162 303.891113 
L 474.470254 303.314495 
L 475.121346 300.287252 
L 475.772438 298.80967 
L 476.42353 301.044063 
L 477.074622 303.96319 
L 477.725714 303.494688 
L 478.376805 300.485465 
L 479.027897 298.593438 
L 479.678989 300.107059 
L 480.330081 303.026186 
L 480.981173 302.864012 
L 481.632265 299.548461 
L 482.283357 298.305129 
L 482.934449 300.683677 
L 483.585541 302.611742 
L 484.236633 302.233337 
L 484.887725 298.197013 
L 485.538817 295.223828 
L 486.189909 297.566338 
L 486.841001 300.503484 
L 487.492093 299.81875 
L 488.143185 296.431122 
L 488.794277 294.93552 
L 490.096461 299.908847 
L 490.747553 299.296191 
L 491.398645 296.142813 
L 492.049737 295.458079 
L 493.351921 301.170198 
L 494.003013 300.269233 
L 494.654105 297.332087 
L 495.305197 296.665373 
L 496.607381 303.368553 
L 497.258473 302.972128 
L 497.909565 299.728654 
L 498.560657 298.070878 
L 499.86284 305.044348 
L 500.513932 304.73802 
L 501.165024 301.981067 
L 501.816116 300.143098 
L 503.1183 306.179564 
L 503.769392 305.891255 
L 504.420484 302.972128 
L 505.071576 301.800874 
L 506.37376 307.260722 
L 507.024852 306.557969 
L 507.675944 303.999228 
L 508.327036 302.41353 
L 508.978128 304.107344 
L 509.62922 306.936375 
L 510.280312 306.990433 
L 510.931404 303.909132 
L 511.582496 302.251356 
L 512.88468 307.098548 
L 513.535772 305.855217 
L 514.186864 303.602804 
L 514.837956 302.954109 
L 515.489048 305.044348 
L 516.14014 307.549031 
L 516.791232 307.188645 
L 517.442324 304.035267 
L 518.093416 302.557684 
L 518.744508 304.305557 
L 519.395599 306.702124 
L 520.046691 306.197583 
L 520.697783 303.566765 
L 521.348875 302.882032 
L 521.999967 305.693043 
L 522.651059 307.639127 
L 523.302151 306.702124 
L 523.953243 303.945171 
L 524.604335 302.827974 
L 525.906519 308.540093 
L 526.557611 307.657147 
L 527.208703 304.179422 
L 527.859795 303.080244 
L 528.510887 305.206522 
L 529.161979 308.017533 
L 529.813071 307.711205 
L 530.464163 305.368695 
L 531.115255 304.46773 
L 531.766347 306.900336 
L 532.417439 308.828401 
L 533.068531 307.675166 
L 533.719623 304.431692 
L 534.370715 303.801016 
L 535.672899 308.954537 
L 536.323991 308.792363 
L 536.975083 305.314638 
L 537.626175 303.260437 
L 538.928359 308.684247 
L 539.579451 308.774343 
L 540.881634 304.846136 
L 541.532726 306.594008 
L 542.183818 310.504196 
L 542.83491 309.90956 
L 543.486002 306.557969 
L 544.137094 305.657004 
L 545.439278 309.224826 
L 546.09037 307.927436 
L 546.741462 306.28768 
L 547.392554 306.269661 
L 548.694738 312.594435 
L 549.34583 310.287965 
L 549.996922 304.413672 
L 550.648014 303.332514 
L 551.950198 308.954537 
L 552.60129 308.666228 
L 553.252382 305.999371 
L 553.903474 304.720001 
L 555.205658 310.053714 
L 555.85675 309.170768 
L 556.507842 306.28768 
L 557.158934 305.206522 
L 558.461118 311.18893 
L 559.11221 309.350961 
L 559.763302 306.215603 
L 560.414393 304.73802 
L 561.065485 307.603089 
L 561.716577 311.261007 
L 562.367669 310.738447 
L 563.669853 305.098406 
L 564.320945 306.413815 
L 564.972037 309.927579 
L 565.623129 309.837482 
L 566.274221 306.53995 
L 566.925313 305.927294 
L 567.576405 308.810382 
L 568.227497 310.846563 
L 568.878589 309.441058 
L 569.529681 305.548888 
L 570.180773 303.6929 
L 571.482957 309.188787 
L 572.134049 307.06251 
L 572.785141 302.900051 
L 573.436233 301.188217 
L 574.087325 303.170341 
L 574.738417 306.125506 
L 575.389509 305.873236 
L 576.040601 303.314495 
L 576.691693 302.377491 
L 577.342785 305.170483 
L 577.993877 308.918498 
L 578.644969 309.441058 
L 579.296061 306.918355 
L 579.947153 306.28768 
L 581.249336 312.288107 
L 581.900428 311.279026 
L 582.55152 307.891398 
L 583.202612 308.377919 
L 584.504796 312.125934 
L 585.155888 311.585355 
L 585.80698 308.86444 
L 586.458072 307.531012 
L 587.760256 313.297188 
L 588.411348 312.234049 
L 589.06244 308.792363 
L 589.713532 308.287822 
L 590.364624 311.423181 
L 591.015716 315.153176 
L 591.666808 315.207234 
L 592.968992 307.368838 
L 593.620084 307.891398 
L 594.271176 306.738162 
L 594.922268 300.521503 
L 596.224452 279.222688 
L 596.875544 275.258442 
L 597.526636 281.24085 
L 598.177728 288.682822 
L 598.82882 292.196586 
L 599.479912 296.359044 
L 600.131004 304.017248 
L 600.782096 309.332942 
L 601.433188 310.450139 
L 602.084279 308.251784 
L 602.735371 307.116568 
L 603.386463 309.296903 
L 604.037555 312.252069 
L 604.688647 312.288107 
L 605.339739 309.459077 
L 605.990831 307.711205 
L 607.293015 312.73859 
L 607.944107 311.603374 
L 608.595199 308.3599 
L 609.246291 307.296761 
L 610.548475 313.693613 
L 611.199567 311.96376 
L 611.850659 309.062652 
L 612.501751 308.035552 
L 613.152843 310.900621 
L 613.803935 312.864725 
L 614.455027 311.008737 
L 615.106119 307.945456 
L 615.757211 306.431834 
L 617.059395 312.810667 
L 617.710487 311.459219 
L 618.361579 308.269803 
L 619.012671 307.026471 
L 620.314855 312.035837 
L 620.965947 311.134872 
L 621.617039 307.981494 
L 622.26813 306.197583 
L 623.570314 310.93666 
L 624.221406 310.4141 
L 624.872498 307.531012 
L 625.52359 305.999371 
L 626.174682 307.494973 
L 626.825774 309.675309 
L 627.476866 308.846421 
L 628.127958 305.693043 
L 628.77905 304.125364 
L 629.430142 305.657004 
L 630.081234 307.801301 
L 630.732326 307.458934 
L 630.732326 307.458934 
" style="fill:none;stroke:#ff7f0e;stroke-linecap:square;stroke-width:1.5;"/>
   </g>
   <g id="line2d_18">
    <path clip-path="url(#peb4b933edd)" d="M 87.070533 65.910193 
L 135.90243 65.910193 
L 135.904848 -1 
M 137.202196 -1 
L 137.204614 65.910193 
L 273.933927 65.910193 
L 273.936345 -1 
M 275.233694 -1 
L 275.236111 65.910193 
L 417.17416 65.910193 
L 417.176578 -1 
M 418.473927 -1 
L 418.476344 65.910193 
L 569.529681 65.910193 
L 569.532099 -1 
M 570.829447 -1 
L 570.831865 65.910193 
L 630.732326 65.910193 
L 630.732326 65.910193 
" style="fill:none;stroke:#2ca02c;stroke-linecap:square;stroke-width:1.5;"/>
   </g>
   <g id="patch_3">
    <path d="M 87.57 307.584 
L 87.57 41.472 
" style="fill:none;stroke:#000000;stroke-linecap:square;stroke-linejoin:miter;stroke-width:0.8;"/>
   </g>
   <g id="patch_4">
    <path d="M 630.504 307.584 
L 630.504 41.472 
" style="fill:none;stroke:#000000;stroke-linecap:square;stroke-linejoin:miter;stroke-width:0.8;"/>
   </g>
   <g id="patch_5">
    <path d="M 87.57 307.584 
L 630.504 307.584 
" style="fill:none;stroke:#000000;stroke-linecap:square;stroke-linejoin:miter;stroke-width:0.8;"/>
   </g>
   <g id="patch_6">
    <path d="M 87.57 41.472 
L 630.504 41.472 
" style="fill:none;stroke:#000000;stroke-linecap:square;stroke-linejoin:miter;stroke-width:0.8;"/>
   </g>
   <g id="text_18">
    <!-- HR detector signal comparison -->
    <g transform="translate(266.519813 35.472)scale(0.12 -0.12)">
     <defs>
      <path d="M 9.8125 72.90625 
L 19.671875 72.90625 
L 19.671875 43.015625 
L 55.515625 43.015625 
L 55.515625 72.90625 
L 65.375 72.90625 
L 65.375 0 
L 55.515625 0 
L 55.515625 34.71875 
L 19.671875 34.71875 
L 19.671875 0 
L 9.8125 0 
z
" id="DejaVuSans-72"/>
      <path d="M 44.390625 34.1875 
Q 47.5625 33.109375 50.5625 29.59375 
Q 53.5625 26.078125 56.59375 19.921875 
L 66.609375 0 
L 56 0 
L 46.6875 18.703125 
Q 43.0625 26.03125 39.671875 28.421875 
Q 36.28125 30.8125 30.421875 30.8125 
L 19.671875 30.8125 
L 19.671875 0 
L 9.8125 0 
L 9.8125 72.90625 
L 32.078125 72.90625 
Q 44.578125 72.90625 50.734375 67.671875 
Q 56.890625 62.453125 56.890625 51.90625 
Q 56.890625 45.015625 53.6875 40.46875 
Q 50.484375 35.9375 44.390625 34.1875 
z
M 19.671875 64.796875 
L 19.671875 38.921875 
L 32.078125 38.921875 
Q 39.203125 38.921875 42.84375 42.21875 
Q 46.484375 45.515625 46.484375 51.90625 
Q 46.484375 58.296875 42.84375 61.546875 
Q 39.203125 64.796875 32.078125 64.796875 
z
" id="DejaVuSans-82"/>
      <path d="M 45.40625 46.390625 
L 45.40625 75.984375 
L 54.390625 75.984375 
L 54.390625 0 
L 45.40625 0 
L 45.40625 8.203125 
Q 42.578125 3.328125 38.25 0.953125 
Q 33.9375 -1.421875 27.875 -1.421875 
Q 17.96875 -1.421875 11.734375 6.484375 
Q 5.515625 14.40625 5.515625 27.296875 
Q 5.515625 40.1875 11.734375 48.09375 
Q 17.96875 56 27.875 56 
Q 33.9375 56 38.25 53.625 
Q 42.578125 51.265625 45.40625 46.390625 
z
M 14.796875 27.296875 
Q 14.796875 17.390625 18.875 11.75 
Q 22.953125 6.109375 30.078125 6.109375 
Q 37.203125 6.109375 41.296875 11.75 
Q 45.40625 17.390625 45.40625 27.296875 
Q 45.40625 37.203125 41.296875 42.84375 
Q 37.203125 48.484375 30.078125 48.484375 
Q 22.953125 48.484375 18.875 42.84375 
Q 14.796875 37.203125 14.796875 27.296875 
z
" id="DejaVuSans-100"/>
      <path d="M 48.78125 52.59375 
L 48.78125 44.1875 
Q 44.96875 46.296875 41.140625 47.34375 
Q 37.3125 48.390625 33.40625 48.390625 
Q 24.65625 48.390625 19.8125 42.84375 
Q 14.984375 37.3125 14.984375 27.296875 
Q 14.984375 17.28125 19.8125 11.734375 
Q 24.65625 6.203125 33.40625 6.203125 
Q 37.3125 6.203125 41.140625 7.25 
Q 44.96875 8.296875 48.78125 10.40625 
L 48.78125 2.09375 
Q 45.015625 0.34375 40.984375 -0.53125 
Q 36.96875 -1.421875 32.421875 -1.421875 
Q 20.0625 -1.421875 12.78125 6.34375 
Q 5.515625 14.109375 5.515625 27.296875 
Q 5.515625 40.671875 12.859375 48.328125 
Q 20.21875 56 33.015625 56 
Q 37.15625 56 41.109375 55.140625 
Q 45.0625 54.296875 48.78125 52.59375 
z
" id="DejaVuSans-99"/>
      <path d="M 30.609375 48.390625 
Q 23.390625 48.390625 19.1875 42.75 
Q 14.984375 37.109375 14.984375 27.296875 
Q 14.984375 17.484375 19.15625 11.84375 
Q 23.34375 6.203125 30.609375 6.203125 
Q 37.796875 6.203125 41.984375 11.859375 
Q 46.1875 17.53125 46.1875 27.296875 
Q 46.1875 37.015625 41.984375 42.703125 
Q 37.796875 48.390625 30.609375 48.390625 
z
M 30.609375 56 
Q 42.328125 56 49.015625 48.375 
Q 55.71875 40.765625 55.71875 27.296875 
Q 55.71875 13.875 49.015625 6.21875 
Q 42.328125 -1.421875 30.609375 -1.421875 
Q 18.84375 -1.421875 12.171875 6.21875 
Q 5.515625 13.875 5.515625 27.296875 
Q 5.515625 40.765625 12.171875 48.375 
Q 18.84375 56 30.609375 56 
z
" id="DejaVuSans-111"/>
      <path d="M 41.109375 46.296875 
Q 39.59375 47.171875 37.8125 47.578125 
Q 36.03125 48 33.890625 48 
Q 26.265625 48 22.1875 43.046875 
Q 18.109375 38.09375 18.109375 28.8125 
L 18.109375 0 
L 9.078125 0 
L 9.078125 54.6875 
L 18.109375 54.6875 
L 18.109375 46.1875 
Q 20.953125 51.171875 25.484375 53.578125 
Q 30.03125 56 36.53125 56 
Q 37.453125 56 38.578125 55.875 
Q 39.703125 55.765625 41.0625 55.515625 
z
" id="DejaVuSans-114"/>
      <path d="M 45.40625 27.984375 
Q 45.40625 37.75 41.375 43.109375 
Q 37.359375 48.484375 30.078125 48.484375 
Q 22.859375 48.484375 18.828125 43.109375 
Q 14.796875 37.75 14.796875 27.984375 
Q 14.796875 18.265625 18.828125 12.890625 
Q 22.859375 7.515625 30.078125 7.515625 
Q 37.359375 7.515625 41.375 12.890625 
Q 45.40625 18.265625 45.40625 27.984375 
z
M 54.390625 6.78125 
Q 54.390625 -7.171875 48.1875 -13.984375 
Q 42 -20.796875 29.203125 -20.796875 
Q 24.46875 -20.796875 20.265625 -20.09375 
Q 16.0625 -19.390625 12.109375 -17.921875 
L 12.109375 -9.1875 
Q 16.0625 -11.328125 19.921875 -12.34375 
Q 23.78125 -13.375 27.78125 -13.375 
Q 36.625 -13.375 41.015625 -8.765625 
Q 45.40625 -4.15625 45.40625 5.171875 
L 45.40625 9.625 
Q 42.625 4.78125 38.28125 2.390625 
Q 33.9375 0 27.875 0 
Q 17.828125 0 11.671875 7.65625 
Q 5.515625 15.328125 5.515625 27.984375 
Q 5.515625 40.671875 11.671875 48.328125 
Q 17.828125 56 27.875 56 
Q 33.9375 56 38.28125 53.609375 
Q 42.625 51.21875 45.40625 46.390625 
L 45.40625 54.6875 
L 54.390625 54.6875 
z
" id="DejaVuSans-103"/>
      <path d="M 54.890625 33.015625 
L 54.890625 0 
L 45.90625 0 
L 45.90625 32.71875 
Q 45.90625 40.484375 42.875 44.328125 
Q 39.84375 48.1875 33.796875 48.1875 
Q 26.515625 48.1875 22.3125 43.546875 
Q 18.109375 38.921875 18.109375 30.90625 
L 18.109375 0 
L 9.078125 0 
L 9.078125 54.6875 
L 18.109375 54.6875 
L 18.109375 46.1875 
Q 21.34375 51.125 25.703125 53.5625 
Q 30.078125 56 35.796875 56 
Q 45.21875 56 50.046875 50.171875 
Q 54.890625 44.34375 54.890625 33.015625 
z
" id="DejaVuSans-110"/>
     </defs>
     <use xlink:href="#DejaVuSans-72"/>
     <use x="75.195312" xlink:href="#DejaVuSans-82"/>
     <use x="144.677734" xlink:href="#DejaVuSans-32"/>
     <use x="176.464844" xlink:href="#DejaVuSans-100"/>
     <use x="239.941406" xlink:href="#DejaVuSans-101"/>
     <use x="301.464844" xlink:href="#DejaVuSans-116"/>
     <use x="340.673828" xlink:href="#DejaVuSans-101"/>
     <use x="402.197266" xlink:href="#DejaVuSans-99"/>
     <use x="457.177734" xlink:href="#DejaVuSans-116"/>
     <use x="496.386719" xlink:href="#DejaVuSans-111"/>
     <use x="557.568359" xlink:href="#DejaVuSans-114"/>
     <use x="598.681641" xlink:href="#DejaVuSans-32"/>
     <use x="630.46875" xlink:href="#DejaVuSans-115"/>
     <use x="682.568359" xlink:href="#DejaVuSans-105"/>
     <use x="710.351562" xlink:href="#DejaVuSans-103"/>
     <use x="773.828125" xlink:href="#DejaVuSans-110"/>
     <use x="837.207031" xlink:href="#DejaVuSans-97"/>
     <use x="898.486328" xlink:href="#DejaVuSans-108"/>
     <use x="926.269531" xlink:href="#DejaVuSans-32"/>
     <use x="958.056641" xlink:href="#DejaVuSans-99"/>
     <use x="1013.037109" xlink:href="#DejaVuSans-111"/>
     <use x="1074.21875" xlink:href="#DejaVuSans-109"/>
     <use x="1171.630859" xlink:href="#DejaVuSans-112"/>
     <use x="1235.107422" xlink:href="#DejaVuSans-97"/>
     <use x="1296.386719" xlink:href="#DejaVuSans-114"/>
     <use x="1337.5" xlink:href="#DejaVuSans-105"/>
     <use x="1365.283203" xlink:href="#DejaVuSans-115"/>
     <use x="1417.382812" xlink:href="#DejaVuSans-111"/>
     <use x="1478.564453" xlink:href="#DejaVuSans-110"/>
    </g>
   </g>
   <g id="legend_1">
    <g id="patch_7">
     <path d="M 502.255562 198.045187 
L 623.504 198.045187 
Q 625.504 198.045187 625.504 196.045187 
L 625.504 153.010812 
Q 625.504 151.010812 623.504 151.010812 
L 502.255562 151.010812 
Q 500.255562 151.010812 500.255562 153.010812 
L 500.255562 196.045187 
Q 500.255562 198.045187 502.255562 198.045187 
z
" style="fill:#ffffff;opacity:0.8;stroke:#cccccc;stroke-linejoin:miter;"/>
    </g>
    <g id="line2d_19">
     <path d="M 504.255562 159.10925 
L 524.255562 159.10925 
" style="fill:none;stroke:#1f77b4;stroke-linecap:square;stroke-width:1.5;"/>
    </g>
    <g id="line2d_20"/>
    <g id="text_19">
     <!-- pre-filtered signal -->
     <g transform="translate(532.255562 162.60925)scale(0.1 -0.1)">
      <defs>
       <path d="M 37.109375 75.984375 
L 37.109375 68.5 
L 28.515625 68.5 
Q 23.6875 68.5 21.796875 66.546875 
Q 19.921875 64.59375 19.921875 59.515625 
L 19.921875 54.6875 
L 34.71875 54.6875 
L 34.71875 47.703125 
L 19.921875 47.703125 
L 19.921875 0 
L 10.890625 0 
L 10.890625 47.703125 
L 2.296875 47.703125 
L 2.296875 54.6875 
L 10.890625 54.6875 
L 10.890625 58.5 
Q 10.890625 67.625 15.140625 71.796875 
Q 19.390625 75.984375 28.609375 75.984375 
z
" id="DejaVuSans-102"/>
      </defs>
      <use xlink:href="#DejaVuSans-112"/>
      <use x="63.476562" xlink:href="#DejaVuSans-114"/>
      <use x="102.339844" xlink:href="#DejaVuSans-101"/>
      <use x="163.863281" xlink:href="#DejaVuSans-45"/>
      <use x="199.947266" xlink:href="#DejaVuSans-102"/>
      <use x="235.152344" xlink:href="#DejaVuSans-105"/>
      <use x="262.935547" xlink:href="#DejaVuSans-108"/>
      <use x="290.71875" xlink:href="#DejaVuSans-116"/>
      <use x="329.927734" xlink:href="#DejaVuSans-101"/>
      <use x="391.451172" xlink:href="#DejaVuSans-114"/>
      <use x="430.314453" xlink:href="#DejaVuSans-101"/>
      <use x="491.837891" xlink:href="#DejaVuSans-100"/>
      <use x="555.314453" xlink:href="#DejaVuSans-32"/>
      <use x="587.101562" xlink:href="#DejaVuSans-115"/>
      <use x="639.201172" xlink:href="#DejaVuSans-105"/>
      <use x="666.984375" xlink:href="#DejaVuSans-103"/>
      <use x="730.460938" xlink:href="#DejaVuSans-110"/>
      <use x="793.839844" xlink:href="#DejaVuSans-97"/>
      <use x="855.119141" xlink:href="#DejaVuSans-108"/>
     </g>
    </g>
    <g id="line2d_21">
     <path d="M 504.255562 173.787375 
L 524.255562 173.787375 
" style="fill:none;stroke:#ff7f0e;stroke-linecap:square;stroke-width:1.5;"/>
    </g>
    <g id="line2d_22"/>
    <g id="text_20">
     <!-- input signal -->
     <g transform="translate(532.255562 177.287375)scale(0.1 -0.1)">
      <use xlink:href="#DejaVuSans-105"/>
      <use x="27.783203" xlink:href="#DejaVuSans-110"/>
      <use x="91.162109" xlink:href="#DejaVuSans-112"/>
      <use x="154.638672" xlink:href="#DejaVuSans-117"/>
      <use x="218.017578" xlink:href="#DejaVuSans-116"/>
      <use x="257.226562" xlink:href="#DejaVuSans-32"/>
      <use x="289.013672" xlink:href="#DejaVuSans-115"/>
      <use x="341.113281" xlink:href="#DejaVuSans-105"/>
      <use x="368.896484" xlink:href="#DejaVuSans-103"/>
      <use x="432.373047" xlink:href="#DejaVuSans-110"/>
      <use x="495.751953" xlink:href="#DejaVuSans-97"/>
      <use x="557.03125" xlink:href="#DejaVuSans-108"/>
     </g>
    </g>
    <g id="line2d_23">
     <path d="M 504.255562 188.4655 
L 524.255562 188.4655 
" style="fill:none;stroke:#2ca02c;stroke-linecap:square;stroke-width:1.5;"/>
    </g>
    <g id="line2d_24"/>
    <g id="text_21">
     <!-- heart beat events -->
     <g transform="translate(532.255562 191.9655)scale(0.1 -0.1)">
      <defs>
       <path d="M 54.890625 33.015625 
L 54.890625 0 
L 45.90625 0 
L 45.90625 32.71875 
Q 45.90625 40.484375 42.875 44.328125 
Q 39.84375 48.1875 33.796875 48.1875 
Q 26.515625 48.1875 22.3125 43.546875 
Q 18.109375 38.921875 18.109375 30.90625 
L 18.109375 0 
L 9.078125 0 
L 9.078125 75.984375 
L 18.109375 75.984375 
L 18.109375 46.1875 
Q 21.34375 51.125 25.703125 53.5625 
Q 30.078125 56 35.796875 56 
Q 45.21875 56 50.046875 50.171875 
Q 54.890625 44.34375 54.890625 33.015625 
z
" id="DejaVuSans-104"/>
       <path d="M 48.6875 27.296875 
Q 48.6875 37.203125 44.609375 42.84375 
Q 40.53125 48.484375 33.40625 48.484375 
Q 26.265625 48.484375 22.1875 42.84375 
Q 18.109375 37.203125 18.109375 27.296875 
Q 18.109375 17.390625 22.1875 11.75 
Q 26.265625 6.109375 33.40625 6.109375 
Q 40.53125 6.109375 44.609375 11.75 
Q 48.6875 17.390625 48.6875 27.296875 
z
M 18.109375 46.390625 
Q 20.953125 51.265625 25.265625 53.625 
Q 29.59375 56 35.59375 56 
Q 45.5625 56 51.78125 48.09375 
Q 58.015625 40.1875 58.015625 27.296875 
Q 58.015625 14.40625 51.78125 6.484375 
Q 45.5625 -1.421875 35.59375 -1.421875 
Q 29.59375 -1.421875 25.265625 0.953125 
Q 20.953125 3.328125 18.109375 8.203125 
L 18.109375 0 
L 9.078125 0 
L 9.078125 75.984375 
L 18.109375 75.984375 
z
" id="DejaVuSans-98"/>
      </defs>
      <use xlink:href="#DejaVuSans-104"/>
      <use x="63.378906" xlink:href="#DejaVuSans-101"/>
      <use x="124.902344" xlink:href="#DejaVuSans-97"/>
      <use x="186.181641" xlink:href="#DejaVuSans-114"/>
      <use x="227.294922" xlink:href="#DejaVuSans-116"/>
      <use x="266.503906" xlink:href="#DejaVuSans-32"/>
      <use x="298.291016" xlink:href="#DejaVuSans-98"/>
      <use x="361.767578" xlink:href="#DejaVuSans-101"/>
      <use x="423.291016" xlink:href="#DejaVuSans-97"/>
      <use x="484.570312" xlink:href="#DejaVuSans-116"/>
      <use x="523.779297" xlink:href="#DejaVuSans-32"/>
      <use x="555.566406" xlink:href="#DejaVuSans-101"/>
      <use x="617.089844" xlink:href="#DejaVuSans-118"/>
      <use x="676.269531" xlink:href="#DejaVuSans-101"/>
      <use x="737.792969" xlink:href="#DejaVuSans-110"/>
      <use x="801.171875" xlink:href="#DejaVuSans-116"/>
      <use x="840.380859" xlink:href="#DejaVuSans-115"/>
     </g>
    </g>
   </g>
  </g>
 </g>
 <defs>
  <clipPath id="peb4b933edd">
   <rect height="266.112" width="542.934" x="87.57" y="41.472"/>
  </clipPath>
 </defs>
</svg>
