<?xml version="1.0" encoding="utf-8" standalone="no"?>
<!DOCTYPE svg PUBLIC "-//W3C//DTD SVG 1.1//EN"
  "http://www.w3.org/Graphics/SVG/1.1/DTD/svg11.dtd">
<!-- Created with matplotlib (https://matplotlib.org/) -->
<svg height="345.6pt" version="1.1" viewBox="0 0 460.8 345.6" width="460.8pt" xmlns="http://www.w3.org/2000/svg" xmlns:xlink="http://www.w3.org/1999/xlink">
 <metadata>
  <rdf:RDF xmlns:cc="http://creativecommons.org/ns#" xmlns:dc="http://purl.org/dc/elements/1.1/" xmlns:rdf="http://www.w3.org/1999/02/22-rdf-syntax-ns#">
   <cc:Work>
    <dc:type rdf:resource="http://purl.org/dc/dcmitype/StillImage"/>
    <dc:date>2020-10-15T12:29:09.889341</dc:date>
    <dc:format>image/svg+xml</dc:format>
    <dc:creator>
     <cc:Agent>
      <dc:title>Matplotlib v3.3.2, https://matplotlib.org/</dc:title>
     </cc:Agent>
    </dc:creator>
   </cc:Work>
  </rdf:RDF>
 </metadata>
 <defs>
  <style type="text/css">*{stroke-linecap:butt;stroke-linejoin:round;}</style>
 </defs>
 <g id="figure_1">
  <g id="patch_1">
   <path d="M 0 345.6 
L 460.8 345.6 
L 460.8 0 
L 0 0 
z
" style="fill:#ffffff;"/>
  </g>
  <g id="axes_1">
   <g id="patch_2">
    <path d="M 57.6 307.584 
L 414.72 307.584 
L 414.72 41.472 
L 57.6 41.472 
z
" style="fill:#ffffff;"/>
   </g>
   <g id="matplotlib.axis_1">
    <g id="xtick_1">
     <g id="line2d_1">
      <defs>
       <path d="M 0 0 
L 0 3.5 
" id="m5f1538aafb" style="stroke:#000000;stroke-width:0.8;"/>
      </defs>
      <g>
       <use style="stroke:#000000;stroke-width:0.8;" x="73.832727" xlink:href="#m5f1538aafb" y="307.584"/>
      </g>
     </g>
     <g id="text_1">
      <!-- 0 -->
      <g transform="translate(70.651477 322.182437)scale(0.1 -0.1)">
       <defs>
        <path d="M 31.78125 66.40625 
Q 24.171875 66.40625 20.328125 58.90625 
Q 16.5 51.421875 16.5 36.375 
Q 16.5 21.390625 20.328125 13.890625 
Q 24.171875 6.390625 31.78125 6.390625 
Q 39.453125 6.390625 43.28125 13.890625 
Q 47.125 21.390625 47.125 36.375 
Q 47.125 51.421875 43.28125 58.90625 
Q 39.453125 66.40625 31.78125 66.40625 
z
M 31.78125 74.21875 
Q 44.046875 74.21875 50.515625 64.515625 
Q 56.984375 54.828125 56.984375 36.375 
Q 56.984375 17.96875 50.515625 8.265625 
Q 44.046875 -1.421875 31.78125 -1.421875 
Q 19.53125 -1.421875 13.0625 8.265625 
Q 6.59375 17.96875 6.59375 36.375 
Q 6.59375 54.828125 13.0625 64.515625 
Q 19.53125 74.21875 31.78125 74.21875 
z
" id="DejaVuSans-48"/>
       </defs>
       <use xlink:href="#DejaVuSans-48"/>
      </g>
     </g>
    </g>
    <g id="xtick_2">
     <g id="line2d_2">
      <g>
       <use style="stroke:#000000;stroke-width:0.8;" x="147.46066" xlink:href="#m5f1538aafb" y="307.584"/>
      </g>
     </g>
     <g id="text_2">
      <!-- 5000 -->
      <g transform="translate(134.73566 322.182437)scale(0.1 -0.1)">
       <defs>
        <path d="M 10.796875 72.90625 
L 49.515625 72.90625 
L 49.515625 64.59375 
L 19.828125 64.59375 
L 19.828125 46.734375 
Q 21.96875 47.46875 24.109375 47.828125 
Q 26.265625 48.1875 28.421875 48.1875 
Q 40.625 48.1875 47.75 41.5 
Q 54.890625 34.8125 54.890625 23.390625 
Q 54.890625 11.625 47.5625 5.09375 
Q 40.234375 -1.421875 26.90625 -1.421875 
Q 22.3125 -1.421875 17.546875 -0.640625 
Q 12.796875 0.140625 7.71875 1.703125 
L 7.71875 11.625 
Q 12.109375 9.234375 16.796875 8.0625 
Q 21.484375 6.890625 26.703125 6.890625 
Q 35.15625 6.890625 40.078125 11.328125 
Q 45.015625 15.765625 45.015625 23.390625 
Q 45.015625 31 40.078125 35.4375 
Q 35.15625 39.890625 26.703125 39.890625 
Q 22.75 39.890625 18.8125 39.015625 
Q 14.890625 38.140625 10.796875 36.28125 
z
" id="DejaVuSans-53"/>
       </defs>
       <use xlink:href="#DejaVuSans-53"/>
       <use x="63.623047" xlink:href="#DejaVuSans-48"/>
       <use x="127.246094" xlink:href="#DejaVuSans-48"/>
       <use x="190.869141" xlink:href="#DejaVuSans-48"/>
      </g>
     </g>
    </g>
    <g id="xtick_3">
     <g id="line2d_3">
      <g>
       <use style="stroke:#000000;stroke-width:0.8;" x="221.088592" xlink:href="#m5f1538aafb" y="307.584"/>
      </g>
     </g>
     <g id="text_3">
      <!-- 10000 -->
      <g transform="translate(205.182342 322.182437)scale(0.1 -0.1)">
       <defs>
        <path d="M 12.40625 8.296875 
L 28.515625 8.296875 
L 28.515625 63.921875 
L 10.984375 60.40625 
L 10.984375 69.390625 
L 28.421875 72.90625 
L 38.28125 72.90625 
L 38.28125 8.296875 
L 54.390625 8.296875 
L 54.390625 0 
L 12.40625 0 
z
" id="DejaVuSans-49"/>
       </defs>
       <use xlink:href="#DejaVuSans-49"/>
       <use x="63.623047" xlink:href="#DejaVuSans-48"/>
       <use x="127.246094" xlink:href="#DejaVuSans-48"/>
       <use x="190.869141" xlink:href="#DejaVuSans-48"/>
       <use x="254.492188" xlink:href="#DejaVuSans-48"/>
      </g>
     </g>
    </g>
    <g id="xtick_4">
     <g id="line2d_4">
      <g>
       <use style="stroke:#000000;stroke-width:0.8;" x="294.716524" xlink:href="#m5f1538aafb" y="307.584"/>
      </g>
     </g>
     <g id="text_4">
      <!-- 15000 -->
      <g transform="translate(278.810274 322.182437)scale(0.1 -0.1)">
       <use xlink:href="#DejaVuSans-49"/>
       <use x="63.623047" xlink:href="#DejaVuSans-53"/>
       <use x="127.246094" xlink:href="#DejaVuSans-48"/>
       <use x="190.869141" xlink:href="#DejaVuSans-48"/>
       <use x="254.492188" xlink:href="#DejaVuSans-48"/>
      </g>
     </g>
    </g>
    <g id="xtick_5">
     <g id="line2d_5">
      <g>
       <use style="stroke:#000000;stroke-width:0.8;" x="368.344457" xlink:href="#m5f1538aafb" y="307.584"/>
      </g>
     </g>
     <g id="text_5">
      <!-- 20000 -->
      <g transform="translate(352.438207 322.182437)scale(0.1 -0.1)">
       <defs>
        <path d="M 19.1875 8.296875 
L 53.609375 8.296875 
L 53.609375 0 
L 7.328125 0 
L 7.328125 8.296875 
Q 12.9375 14.109375 22.625 23.890625 
Q 32.328125 33.6875 34.8125 36.53125 
Q 39.546875 41.84375 41.421875 45.53125 
Q 43.3125 49.21875 43.3125 52.78125 
Q 43.3125 58.59375 39.234375 62.25 
Q 35.15625 65.921875 28.609375 65.921875 
Q 23.96875 65.921875 18.8125 64.3125 
Q 13.671875 62.703125 7.8125 59.421875 
L 7.8125 69.390625 
Q 13.765625 71.78125 18.9375 73 
Q 24.125 74.21875 28.421875 74.21875 
Q 39.75 74.21875 46.484375 68.546875 
Q 53.21875 62.890625 53.21875 53.421875 
Q 53.21875 48.921875 51.53125 44.890625 
Q 49.859375 40.875 45.40625 35.40625 
Q 44.1875 33.984375 37.640625 27.21875 
Q 31.109375 20.453125 19.1875 8.296875 
z
" id="DejaVuSans-50"/>
       </defs>
       <use xlink:href="#DejaVuSans-50"/>
       <use x="63.623047" xlink:href="#DejaVuSans-48"/>
       <use x="127.246094" xlink:href="#DejaVuSans-48"/>
       <use x="190.869141" xlink:href="#DejaVuSans-48"/>
       <use x="254.492188" xlink:href="#DejaVuSans-48"/>
      </g>
     </g>
    </g>
    <g id="text_6">
     <!-- Frequency [Hz] -->
     <g transform="translate(198.455312 335.860562)scale(0.1 -0.1)">
      <defs>
       <path d="M 9.8125 72.90625 
L 51.703125 72.90625 
L 51.703125 64.59375 
L 19.671875 64.59375 
L 19.671875 43.109375 
L 48.578125 43.109375 
L 48.578125 34.8125 
L 19.671875 34.8125 
L 19.671875 0 
L 9.8125 0 
z
" id="DejaVuSans-70"/>
       <path d="M 41.109375 46.296875 
Q 39.59375 47.171875 37.8125 47.578125 
Q 36.03125 48 33.890625 48 
Q 26.265625 48 22.1875 43.046875 
Q 18.109375 38.09375 18.109375 28.8125 
L 18.109375 0 
L 9.078125 0 
L 9.078125 54.6875 
L 18.109375 54.6875 
L 18.109375 46.1875 
Q 20.953125 51.171875 25.484375 53.578125 
Q 30.03125 56 36.53125 56 
Q 37.453125 56 38.578125 55.875 
Q 39.703125 55.765625 41.0625 55.515625 
z
" id="DejaVuSans-114"/>
       <path d="M 56.203125 29.59375 
L 56.203125 25.203125 
L 14.890625 25.203125 
Q 15.484375 15.921875 20.484375 11.0625 
Q 25.484375 6.203125 34.421875 6.203125 
Q 39.59375 6.203125 44.453125 7.46875 
Q 49.3125 8.734375 54.109375 11.28125 
L 54.109375 2.78125 
Q 49.265625 0.734375 44.1875 -0.34375 
Q 39.109375 -1.421875 33.890625 -1.421875 
Q 20.796875 -1.421875 13.15625 6.1875 
Q 5.515625 13.8125 5.515625 26.8125 
Q 5.515625 40.234375 12.765625 48.109375 
Q 20.015625 56 32.328125 56 
Q 43.359375 56 49.78125 48.890625 
Q 56.203125 41.796875 56.203125 29.59375 
z
M 47.21875 32.234375 
Q 47.125 39.59375 43.09375 43.984375 
Q 39.0625 48.390625 32.421875 48.390625 
Q 24.90625 48.390625 20.390625 44.140625 
Q 15.875 39.890625 15.1875 32.171875 
z
" id="DejaVuSans-101"/>
       <path d="M 14.796875 27.296875 
Q 14.796875 17.390625 18.875 11.75 
Q 22.953125 6.109375 30.078125 6.109375 
Q 37.203125 6.109375 41.296875 11.75 
Q 45.40625 17.390625 45.40625 27.296875 
Q 45.40625 37.203125 41.296875 42.84375 
Q 37.203125 48.484375 30.078125 48.484375 
Q 22.953125 48.484375 18.875 42.84375 
Q 14.796875 37.203125 14.796875 27.296875 
z
M 45.40625 8.203125 
Q 42.578125 3.328125 38.25 0.953125 
Q 33.9375 -1.421875 27.875 -1.421875 
Q 17.96875 -1.421875 11.734375 6.484375 
Q 5.515625 14.40625 5.515625 27.296875 
Q 5.515625 40.1875 11.734375 48.09375 
Q 17.96875 56 27.875 56 
Q 33.9375 56 38.25 53.625 
Q 42.578125 51.265625 45.40625 46.390625 
L 45.40625 54.6875 
L 54.390625 54.6875 
L 54.390625 -20.796875 
L 45.40625 -20.796875 
z
" id="DejaVuSans-113"/>
       <path d="M 8.5 21.578125 
L 8.5 54.6875 
L 17.484375 54.6875 
L 17.484375 21.921875 
Q 17.484375 14.15625 20.5 10.265625 
Q 23.53125 6.390625 29.59375 6.390625 
Q 36.859375 6.390625 41.078125 11.03125 
Q 45.3125 15.671875 45.3125 23.6875 
L 45.3125 54.6875 
L 54.296875 54.6875 
L 54.296875 0 
L 45.3125 0 
L 45.3125 8.40625 
Q 42.046875 3.421875 37.71875 1 
Q 33.40625 -1.421875 27.6875 -1.421875 
Q 18.265625 -1.421875 13.375 4.4375 
Q 8.5 10.296875 8.5 21.578125 
z
M 31.109375 56 
z
" id="DejaVuSans-117"/>
       <path d="M 54.890625 33.015625 
L 54.890625 0 
L 45.90625 0 
L 45.90625 32.71875 
Q 45.90625 40.484375 42.875 44.328125 
Q 39.84375 48.1875 33.796875 48.1875 
Q 26.515625 48.1875 22.3125 43.546875 
Q 18.109375 38.921875 18.109375 30.90625 
L 18.109375 0 
L 9.078125 0 
L 9.078125 54.6875 
L 18.109375 54.6875 
L 18.109375 46.1875 
Q 21.34375 51.125 25.703125 53.5625 
Q 30.078125 56 35.796875 56 
Q 45.21875 56 50.046875 50.171875 
Q 54.890625 44.34375 54.890625 33.015625 
z
" id="DejaVuSans-110"/>
       <path d="M 48.78125 52.59375 
L 48.78125 44.1875 
Q 44.96875 46.296875 41.140625 47.34375 
Q 37.3125 48.390625 33.40625 48.390625 
Q 24.65625 48.390625 19.8125 42.84375 
Q 14.984375 37.3125 14.984375 27.296875 
Q 14.984375 17.28125 19.8125 11.734375 
Q 24.65625 6.203125 33.40625 6.203125 
Q 37.3125 6.203125 41.140625 7.25 
Q 44.96875 8.296875 48.78125 10.40625 
L 48.78125 2.09375 
Q 45.015625 0.34375 40.984375 -0.53125 
Q 36.96875 -1.421875 32.421875 -1.421875 
Q 20.0625 -1.421875 12.78125 6.34375 
Q 5.515625 14.109375 5.515625 27.296875 
Q 5.515625 40.671875 12.859375 48.328125 
Q 20.21875 56 33.015625 56 
Q 37.15625 56 41.109375 55.140625 
Q 45.0625 54.296875 48.78125 52.59375 
z
" id="DejaVuSans-99"/>
       <path d="M 32.171875 -5.078125 
Q 28.375 -14.84375 24.75 -17.8125 
Q 21.140625 -20.796875 15.09375 -20.796875 
L 7.90625 -20.796875 
L 7.90625 -13.28125 
L 13.1875 -13.28125 
Q 16.890625 -13.28125 18.9375 -11.515625 
Q 21 -9.765625 23.484375 -3.21875 
L 25.09375 0.875 
L 2.984375 54.6875 
L 12.5 54.6875 
L 29.59375 11.921875 
L 46.6875 54.6875 
L 56.203125 54.6875 
z
" id="DejaVuSans-121"/>
       <path id="DejaVuSans-32"/>
       <path d="M 8.59375 75.984375 
L 29.296875 75.984375 
L 29.296875 69 
L 17.578125 69 
L 17.578125 -6.203125 
L 29.296875 -6.203125 
L 29.296875 -13.1875 
L 8.59375 -13.1875 
z
" id="DejaVuSans-91"/>
       <path d="M 9.8125 72.90625 
L 19.671875 72.90625 
L 19.671875 43.015625 
L 55.515625 43.015625 
L 55.515625 72.90625 
L 65.375 72.90625 
L 65.375 0 
L 55.515625 0 
L 55.515625 34.71875 
L 19.671875 34.71875 
L 19.671875 0 
L 9.8125 0 
z
" id="DejaVuSans-72"/>
       <path d="M 5.515625 54.6875 
L 48.1875 54.6875 
L 48.1875 46.484375 
L 14.40625 7.171875 
L 48.1875 7.171875 
L 48.1875 0 
L 4.296875 0 
L 4.296875 8.203125 
L 38.09375 47.515625 
L 5.515625 47.515625 
z
" id="DejaVuSans-122"/>
       <path d="M 30.421875 75.984375 
L 30.421875 -13.1875 
L 9.71875 -13.1875 
L 9.71875 -6.203125 
L 21.390625 -6.203125 
L 21.390625 69 
L 9.71875 69 
L 9.71875 75.984375 
z
" id="DejaVuSans-93"/>
      </defs>
      <use xlink:href="#DejaVuSans-70"/>
      <use x="50.269531" xlink:href="#DejaVuSans-114"/>
      <use x="89.132812" xlink:href="#DejaVuSans-101"/>
      <use x="150.65625" xlink:href="#DejaVuSans-113"/>
      <use x="214.132812" xlink:href="#DejaVuSans-117"/>
      <use x="277.511719" xlink:href="#DejaVuSans-101"/>
      <use x="339.035156" xlink:href="#DejaVuSans-110"/>
      <use x="402.414062" xlink:href="#DejaVuSans-99"/>
      <use x="457.394531" xlink:href="#DejaVuSans-121"/>
      <use x="516.574219" xlink:href="#DejaVuSans-32"/>
      <use x="548.361328" xlink:href="#DejaVuSans-91"/>
      <use x="587.375" xlink:href="#DejaVuSans-72"/>
      <use x="662.570312" xlink:href="#DejaVuSans-122"/>
      <use x="715.060547" xlink:href="#DejaVuSans-93"/>
     </g>
    </g>
   </g>
   <g id="matplotlib.axis_2">
    <g id="ytick_1">
     <g id="line2d_6">
      <defs>
       <path d="M 0 0 
L -3.5 0 
" id="mf5f8855594" style="stroke:#000000;stroke-width:0.8;"/>
      </defs>
      <g>
       <use style="stroke:#000000;stroke-width:0.8;" x="57.6" xlink:href="#mf5f8855594" y="295.48919"/>
      </g>
     </g>
     <g id="text_7">
      <!-- 0 -->
      <g transform="translate(44.2375 299.288409)scale(0.1 -0.1)">
       <use xlink:href="#DejaVuSans-48"/>
      </g>
     </g>
    </g>
    <g id="ytick_2">
     <g id="line2d_7">
      <g>
       <use style="stroke:#000000;stroke-width:0.8;" x="57.6" xlink:href="#mf5f8855594" y="257.604379"/>
      </g>
     </g>
     <g id="text_8">
      <!-- 20000 -->
      <g transform="translate(18.7875 261.403597)scale(0.1 -0.1)">
       <use xlink:href="#DejaVuSans-50"/>
       <use x="63.623047" xlink:href="#DejaVuSans-48"/>
       <use x="127.246094" xlink:href="#DejaVuSans-48"/>
       <use x="190.869141" xlink:href="#DejaVuSans-48"/>
       <use x="254.492188" xlink:href="#DejaVuSans-48"/>
      </g>
     </g>
    </g>
    <g id="ytick_3">
     <g id="line2d_8">
      <g>
       <use style="stroke:#000000;stroke-width:0.8;" x="57.6" xlink:href="#mf5f8855594" y="219.719568"/>
      </g>
     </g>
     <g id="text_9">
      <!-- 40000 -->
      <g transform="translate(18.7875 223.518786)scale(0.1 -0.1)">
       <defs>
        <path d="M 37.796875 64.3125 
L 12.890625 25.390625 
L 37.796875 25.390625 
z
M 35.203125 72.90625 
L 47.609375 72.90625 
L 47.609375 25.390625 
L 58.015625 25.390625 
L 58.015625 17.1875 
L 47.609375 17.1875 
L 47.609375 0 
L 37.796875 0 
L 37.796875 17.1875 
L 4.890625 17.1875 
L 4.890625 26.703125 
z
" id="DejaVuSans-52"/>
       </defs>
       <use xlink:href="#DejaVuSans-52"/>
       <use x="63.623047" xlink:href="#DejaVuSans-48"/>
       <use x="127.246094" xlink:href="#DejaVuSans-48"/>
       <use x="190.869141" xlink:href="#DejaVuSans-48"/>
       <use x="254.492188" xlink:href="#DejaVuSans-48"/>
      </g>
     </g>
    </g>
    <g id="ytick_4">
     <g id="line2d_9">
      <g>
       <use style="stroke:#000000;stroke-width:0.8;" x="57.6" xlink:href="#mf5f8855594" y="181.834756"/>
      </g>
     </g>
     <g id="text_10">
      <!-- 60000 -->
      <g transform="translate(18.7875 185.633975)scale(0.1 -0.1)">
       <defs>
        <path d="M 33.015625 40.375 
Q 26.375 40.375 22.484375 35.828125 
Q 18.609375 31.296875 18.609375 23.390625 
Q 18.609375 15.53125 22.484375 10.953125 
Q 26.375 6.390625 33.015625 6.390625 
Q 39.65625 6.390625 43.53125 10.953125 
Q 47.40625 15.53125 47.40625 23.390625 
Q 47.40625 31.296875 43.53125 35.828125 
Q 39.65625 40.375 33.015625 40.375 
z
M 52.59375 71.296875 
L 52.59375 62.3125 
Q 48.875 64.0625 45.09375 64.984375 
Q 41.3125 65.921875 37.59375 65.921875 
Q 27.828125 65.921875 22.671875 59.328125 
Q 17.53125 52.734375 16.796875 39.40625 
Q 19.671875 43.65625 24.015625 45.921875 
Q 28.375 48.1875 33.59375 48.1875 
Q 44.578125 48.1875 50.953125 41.515625 
Q 57.328125 34.859375 57.328125 23.390625 
Q 57.328125 12.15625 50.6875 5.359375 
Q 44.046875 -1.421875 33.015625 -1.421875 
Q 20.359375 -1.421875 13.671875 8.265625 
Q 6.984375 17.96875 6.984375 36.375 
Q 6.984375 53.65625 15.1875 63.9375 
Q 23.390625 74.21875 37.203125 74.21875 
Q 40.921875 74.21875 44.703125 73.484375 
Q 48.484375 72.75 52.59375 71.296875 
z
" id="DejaVuSans-54"/>
       </defs>
       <use xlink:href="#DejaVuSans-54"/>
       <use x="63.623047" xlink:href="#DejaVuSans-48"/>
       <use x="127.246094" xlink:href="#DejaVuSans-48"/>
       <use x="190.869141" xlink:href="#DejaVuSans-48"/>
       <use x="254.492188" xlink:href="#DejaVuSans-48"/>
      </g>
     </g>
    </g>
    <g id="ytick_5">
     <g id="line2d_10">
      <g>
       <use style="stroke:#000000;stroke-width:0.8;" x="57.6" xlink:href="#mf5f8855594" y="143.949945"/>
      </g>
     </g>
     <g id="text_11">
      <!-- 80000 -->
      <g transform="translate(18.7875 147.749164)scale(0.1 -0.1)">
       <defs>
        <path d="M 31.78125 34.625 
Q 24.75 34.625 20.71875 30.859375 
Q 16.703125 27.09375 16.703125 20.515625 
Q 16.703125 13.921875 20.71875 10.15625 
Q 24.75 6.390625 31.78125 6.390625 
Q 38.8125 6.390625 42.859375 10.171875 
Q 46.921875 13.96875 46.921875 20.515625 
Q 46.921875 27.09375 42.890625 30.859375 
Q 38.875 34.625 31.78125 34.625 
z
M 21.921875 38.8125 
Q 15.578125 40.375 12.03125 44.71875 
Q 8.5 49.078125 8.5 55.328125 
Q 8.5 64.0625 14.71875 69.140625 
Q 20.953125 74.21875 31.78125 74.21875 
Q 42.671875 74.21875 48.875 69.140625 
Q 55.078125 64.0625 55.078125 55.328125 
Q 55.078125 49.078125 51.53125 44.71875 
Q 48 40.375 41.703125 38.8125 
Q 48.828125 37.15625 52.796875 32.3125 
Q 56.78125 27.484375 56.78125 20.515625 
Q 56.78125 9.90625 50.3125 4.234375 
Q 43.84375 -1.421875 31.78125 -1.421875 
Q 19.734375 -1.421875 13.25 4.234375 
Q 6.78125 9.90625 6.78125 20.515625 
Q 6.78125 27.484375 10.78125 32.3125 
Q 14.796875 37.15625 21.921875 38.8125 
z
M 18.3125 54.390625 
Q 18.3125 48.734375 21.84375 45.5625 
Q 25.390625 42.390625 31.78125 42.390625 
Q 38.140625 42.390625 41.71875 45.5625 
Q 45.3125 48.734375 45.3125 54.390625 
Q 45.3125 60.0625 41.71875 63.234375 
Q 38.140625 66.40625 31.78125 66.40625 
Q 25.390625 66.40625 21.84375 63.234375 
Q 18.3125 60.0625 18.3125 54.390625 
z
" id="DejaVuSans-56"/>
       </defs>
       <use xlink:href="#DejaVuSans-56"/>
       <use x="63.623047" xlink:href="#DejaVuSans-48"/>
       <use x="127.246094" xlink:href="#DejaVuSans-48"/>
       <use x="190.869141" xlink:href="#DejaVuSans-48"/>
       <use x="254.492188" xlink:href="#DejaVuSans-48"/>
      </g>
     </g>
    </g>
    <g id="ytick_6">
     <g id="line2d_11">
      <g>
       <use style="stroke:#000000;stroke-width:0.8;" x="57.6" xlink:href="#mf5f8855594" y="106.065134"/>
      </g>
     </g>
     <g id="text_12">
      <!-- 100000 -->
      <g transform="translate(12.425 109.864353)scale(0.1 -0.1)">
       <use xlink:href="#DejaVuSans-49"/>
       <use x="63.623047" xlink:href="#DejaVuSans-48"/>
       <use x="127.246094" xlink:href="#DejaVuSans-48"/>
       <use x="190.869141" xlink:href="#DejaVuSans-48"/>
       <use x="254.492188" xlink:href="#DejaVuSans-48"/>
       <use x="318.115234" xlink:href="#DejaVuSans-48"/>
      </g>
     </g>
    </g>
    <g id="ytick_7">
     <g id="line2d_12">
      <g>
       <use style="stroke:#000000;stroke-width:0.8;" x="57.6" xlink:href="#mf5f8855594" y="68.180323"/>
      </g>
     </g>
     <g id="text_13">
      <!-- 120000 -->
      <g transform="translate(12.425 71.979542)scale(0.1 -0.1)">
       <use xlink:href="#DejaVuSans-49"/>
       <use x="63.623047" xlink:href="#DejaVuSans-50"/>
       <use x="127.246094" xlink:href="#DejaVuSans-48"/>
       <use x="190.869141" xlink:href="#DejaVuSans-48"/>
       <use x="254.492188" xlink:href="#DejaVuSans-48"/>
       <use x="318.115234" xlink:href="#DejaVuSans-48"/>
      </g>
     </g>
    </g>
    <g id="text_14">
     <!-- Intensity: |FFT()| [-] -->
     <g transform="translate(6.067187 222.48425)rotate(-90)scale(0.1 -0.1)">
      <defs>
       <path d="M 9.8125 72.90625 
L 19.671875 72.90625 
L 19.671875 0 
L 9.8125 0 
z
" id="DejaVuSans-73"/>
       <path d="M 18.3125 70.21875 
L 18.3125 54.6875 
L 36.8125 54.6875 
L 36.8125 47.703125 
L 18.3125 47.703125 
L 18.3125 18.015625 
Q 18.3125 11.328125 20.140625 9.421875 
Q 21.96875 7.515625 27.59375 7.515625 
L 36.8125 7.515625 
L 36.8125 0 
L 27.59375 0 
Q 17.1875 0 13.234375 3.875 
Q 9.28125 7.765625 9.28125 18.015625 
L 9.28125 47.703125 
L 2.6875 47.703125 
L 2.6875 54.6875 
L 9.28125 54.6875 
L 9.28125 70.21875 
z
" id="DejaVuSans-116"/>
       <path d="M 44.28125 53.078125 
L 44.28125 44.578125 
Q 40.484375 46.53125 36.375 47.5 
Q 32.28125 48.484375 27.875 48.484375 
Q 21.1875 48.484375 17.84375 46.4375 
Q 14.5 44.390625 14.5 40.28125 
Q 14.5 37.15625 16.890625 35.375 
Q 19.28125 33.59375 26.515625 31.984375 
L 29.59375 31.296875 
Q 39.15625 29.25 43.1875 25.515625 
Q 47.21875 21.78125 47.21875 15.09375 
Q 47.21875 7.46875 41.1875 3.015625 
Q 35.15625 -1.421875 24.609375 -1.421875 
Q 20.21875 -1.421875 15.453125 -0.5625 
Q 10.6875 0.296875 5.421875 2 
L 5.421875 11.28125 
Q 10.40625 8.6875 15.234375 7.390625 
Q 20.0625 6.109375 24.8125 6.109375 
Q 31.15625 6.109375 34.5625 8.28125 
Q 37.984375 10.453125 37.984375 14.40625 
Q 37.984375 18.0625 35.515625 20.015625 
Q 33.0625 21.96875 24.703125 23.78125 
L 21.578125 24.515625 
Q 13.234375 26.265625 9.515625 29.90625 
Q 5.8125 33.546875 5.8125 39.890625 
Q 5.8125 47.609375 11.28125 51.796875 
Q 16.75 56 26.8125 56 
Q 31.78125 56 36.171875 55.265625 
Q 40.578125 54.546875 44.28125 53.078125 
z
" id="DejaVuSans-115"/>
       <path d="M 9.421875 54.6875 
L 18.40625 54.6875 
L 18.40625 0 
L 9.421875 0 
z
M 9.421875 75.984375 
L 18.40625 75.984375 
L 18.40625 64.59375 
L 9.421875 64.59375 
z
" id="DejaVuSans-105"/>
       <path d="M 11.71875 12.40625 
L 22.015625 12.40625 
L 22.015625 0 
L 11.71875 0 
z
M 11.71875 51.703125 
L 22.015625 51.703125 
L 22.015625 39.3125 
L 11.71875 39.3125 
z
" id="DejaVuSans-58"/>
       <path d="M 21 76.421875 
L 21 -23.578125 
L 12.703125 -23.578125 
L 12.703125 76.421875 
z
" id="DejaVuSans-124"/>
       <path d="M -0.296875 72.90625 
L 61.375 72.90625 
L 61.375 64.59375 
L 35.5 64.59375 
L 35.5 0 
L 25.59375 0 
L 25.59375 64.59375 
L -0.296875 64.59375 
z
" id="DejaVuSans-84"/>
       <path d="M 31 75.875 
Q 24.46875 64.65625 21.28125 53.65625 
Q 18.109375 42.671875 18.109375 31.390625 
Q 18.109375 20.125 21.3125 9.0625 
Q 24.515625 -2 31 -13.1875 
L 23.1875 -13.1875 
Q 15.875 -1.703125 12.234375 9.375 
Q 8.59375 20.453125 8.59375 31.390625 
Q 8.59375 42.28125 12.203125 53.3125 
Q 15.828125 64.359375 23.1875 75.875 
z
" id="DejaVuSans-40"/>
       <path d="M 8.015625 75.875 
L 15.828125 75.875 
Q 23.140625 64.359375 26.78125 53.3125 
Q 30.421875 42.28125 30.421875 31.390625 
Q 30.421875 20.453125 26.78125 9.375 
Q 23.140625 -1.703125 15.828125 -13.1875 
L 8.015625 -13.1875 
Q 14.5 -2 17.703125 9.0625 
Q 20.90625 20.125 20.90625 31.390625 
Q 20.90625 42.671875 17.703125 53.65625 
Q 14.5 64.65625 8.015625 75.875 
z
" id="DejaVuSans-41"/>
       <path d="M 4.890625 31.390625 
L 31.203125 31.390625 
L 31.203125 23.390625 
L 4.890625 23.390625 
z
" id="DejaVuSans-45"/>
      </defs>
      <use xlink:href="#DejaVuSans-73"/>
      <use x="29.492188" xlink:href="#DejaVuSans-110"/>
      <use x="92.871094" xlink:href="#DejaVuSans-116"/>
      <use x="132.080078" xlink:href="#DejaVuSans-101"/>
      <use x="193.603516" xlink:href="#DejaVuSans-110"/>
      <use x="256.982422" xlink:href="#DejaVuSans-115"/>
      <use x="309.082031" xlink:href="#DejaVuSans-105"/>
      <use x="336.865234" xlink:href="#DejaVuSans-116"/>
      <use x="376.074219" xlink:href="#DejaVuSans-121"/>
      <use x="428.003906" xlink:href="#DejaVuSans-58"/>
      <use x="461.695312" xlink:href="#DejaVuSans-32"/>
      <use x="493.482422" xlink:href="#DejaVuSans-124"/>
      <use x="527.173828" xlink:href="#DejaVuSans-70"/>
      <use x="584.693359" xlink:href="#DejaVuSans-70"/>
      <use x="640.462891" xlink:href="#DejaVuSans-84"/>
      <use x="701.546875" xlink:href="#DejaVuSans-40"/>
      <use x="740.560547" xlink:href="#DejaVuSans-41"/>
      <use x="779.574219" xlink:href="#DejaVuSans-124"/>
      <use x="813.265625" xlink:href="#DejaVuSans-32"/>
      <use x="845.052734" xlink:href="#DejaVuSans-91"/>
      <use x="884.066406" xlink:href="#DejaVuSans-45"/>
      <use x="920.150391" xlink:href="#DejaVuSans-93"/>
     </g>
    </g>
   </g>
   <g id="line2d_13">
    <path clip-path="url(#pe5721ffd39)" d="M 73.832727 291.735568 
L 74.130302 293.431121 
L 74.229494 293.604609 
L 74.427878 290.939447 
L 74.527069 291.259823 
L 74.626261 287.14369 
L 74.923836 196.202731 
L 75.023028 204.569347 
L 75.12222 256.13509 
L 75.320603 109.759201 
L 75.618178 247.806652 
L 75.816562 109.036925 
L 76.014945 247.107072 
L 76.114137 214.590729 
L 76.213329 230.771838 
L 76.312521 166.015678 
L 76.411712 261.974919 
L 76.510904 223.751221 
L 76.610096 227.304997 
L 76.709288 211.238824 
L 76.808479 177.026982 
L 77.006863 249.80483 
L 77.106054 165.832291 
L 77.304438 262.184008 
L 77.502821 199.196531 
L 77.602013 264.611075 
L 77.701205 140.608337 
L 77.99878 238.558098 
L 78.395547 71.007033 
L 78.494739 228.271696 
L 78.593931 96.933818 
L 78.693122 184.220006 
L 78.792314 83.94067 
L 78.891506 145.719869 
L 78.990697 128.682931 
L 79.189081 191.674521 
L 79.288273 213.821957 
L 79.387464 201.875706 
L 79.486656 141.146521 
L 79.585848 220.58932 
L 79.784231 167.937466 
L 79.982615 222.810662 
L 80.081807 161.280191 
L 80.28019 275.580893 
L 80.379382 268.506333 
L 80.577765 213.52092 
L 80.676957 277.102231 
L 80.776149 255.932309 
L 80.974532 99.26143 
L 81.073724 261.030815 
L 81.272107 127.969024 
L 81.371299 231.280984 
L 81.470491 53.568 
L 81.569683 256.220263 
L 81.668874 253.192698 
L 81.867258 194.150465 
L 82.164833 244.433882 
L 82.363216 158.054091 
L 82.5616 258.286545 
L 82.660792 277.350264 
L 82.759983 223.344445 
L 82.859175 258.469135 
L 82.958367 232.205372 
L 83.057559 255.829799 
L 83.15675 243.990528 
L 83.355134 119.954562 
L 83.553517 281.577512 
L 83.652709 255.960579 
L 83.751901 131.646277 
L 83.851092 149.687567 
L 83.950284 223.873512 
L 84.049476 213.188721 
L 84.148668 288.269941 
L 84.247859 266.209073 
L 84.347051 281.169689 
L 84.446243 259.492998 
L 84.545435 278.018692 
L 84.644626 272.207359 
L 84.743818 258.664836 
L 84.942201 288.500711 
L 85.041393 274.221994 
L 85.140585 287.627378 
L 85.239777 284.124458 
L 85.338968 270.475227 
L 85.43816 270.503832 
L 85.636544 285.960702 
L 85.834927 246.427159 
L 86.033311 280.797901 
L 86.132502 275.931344 
L 86.330886 239.729627 
L 86.430077 249.983235 
L 86.529269 284.356141 
L 86.628461 276.494584 
L 86.727653 287.198853 
L 86.926036 275.217635 
L 87.025228 294.002578 
L 87.223611 287.195725 
L 87.322803 288.830333 
L 87.421995 281.610452 
L 87.620378 293.723087 
L 87.818762 284.751054 
L 88.017145 289.488355 
L 88.116337 288.465142 
L 88.215529 285.488469 
L 88.31472 293.471085 
L 88.413912 286.822041 
L 88.513104 293.934827 
L 88.612296 290.063202 
L 88.711487 277.985833 
L 88.810679 291.916275 
L 88.909871 281.963282 
L 89.009063 283.972039 
L 89.108254 290.425224 
L 89.207446 285.085563 
L 89.40583 293.85725 
L 89.604213 280.648291 
L 89.802596 291.37573 
L 89.901788 279.560124 
L 90.00098 285.671828 
L 90.100172 282.918556 
L 90.199363 285.384649 
L 90.298555 278.222599 
L 90.397747 290.771224 
L 90.496939 285.964179 
L 90.695322 289.001402 
L 90.893706 264.77408 
L 91.290472 292.667512 
L 91.389664 257.597334 
L 91.488856 282.189966 
L 91.588048 281.917057 
L 91.687239 280.024934 
L 91.885623 285.560468 
L 92.084006 271.56987 
L 92.183198 269.841302 
L 92.28239 276.028711 
L 92.381582 264.972095 
L 92.579965 278.214466 
L 92.778348 291.239912 
L 92.976732 239.837815 
L 93.075924 287.216179 
L 93.175115 286.470117 
L 93.274307 274.350588 
L 93.373499 290.469939 
L 93.571882 273.350369 
L 93.671074 283.159462 
L 93.770266 253.280123 
L 93.968649 288.537451 
L 94.067841 275.01072 
L 94.167033 289.500739 
L 94.266224 273.187302 
L 94.464608 288.93548 
L 94.5638 272.84951 
L 94.662991 287.755653 
L 94.762183 285.656595 
L 94.861375 279.10442 
L 94.960567 291.141232 
L 95.059758 284.101286 
L 95.15895 287.775686 
L 95.258142 282.086575 
L 95.357334 286.402669 
L 95.456525 281.016621 
L 95.555717 292.272398 
L 95.654909 290.230749 
L 95.7541 294.457643 
L 95.853292 290.872849 
L 95.952484 293.398142 
L 96.150867 290.89406 
L 96.250059 292.604779 
L 96.349251 291.0307 
L 96.448443 293.6582 
L 96.547634 288.527733 
L 96.84521 292.62817 
L 97.043593 286.551586 
L 97.142785 290.144093 
L 97.241977 285.889115 
L 97.341168 292.179202 
L 97.44036 290.93498 
L 97.539552 292.636047 
L 97.737935 288.077381 
L 97.837127 292.88447 
L 97.936319 287.491121 
L 98.233894 291.649921 
L 98.432277 285.516706 
L 98.531469 282.101642 
L 98.630661 288.627067 
L 98.729853 284.037749 
L 98.928236 288.295154 
L 99.027428 280.650298 
L 99.126619 290.122329 
L 99.225811 286.294574 
L 99.424195 292.341326 
L 99.523386 287.65781 
L 99.622578 292.632177 
L 99.72177 291.813372 
L 100.019345 283.306272 
L 100.217729 290.127079 
L 100.31692 286.123406 
L 100.713687 292.006558 
L 100.812879 289.679185 
L 100.912071 294.536221 
L 101.110454 292.569515 
L 101.209646 293.649116 
L 101.308838 293.002085 
L 101.408029 294.293962 
L 101.507221 293.721305 
L 101.606413 294.196288 
L 101.804796 287.366057 
L 101.903988 293.020518 
L 102.102371 290.241046 
L 102.201563 294.357583 
L 102.300755 292.811672 
L 102.499138 293.604907 
L 102.59833 292.996131 
L 102.697522 294.43685 
L 102.995097 291.905767 
L 103.193481 293.555833 
L 103.491056 289.87907 
L 103.590247 289.189622 
L 103.689439 291.705883 
L 103.788631 290.660773 
L 103.887823 292.369616 
L 104.086206 290.488493 
L 104.28459 293.706744 
L 104.383781 289.899487 
L 104.482973 291.444935 
L 104.582165 290.407673 
L 104.780548 294.746127 
L 104.87974 291.968343 
L 105.078123 294.463627 
L 105.177315 292.278902 
L 105.375699 293.550672 
L 105.47489 290.224257 
L 105.673274 292.269092 
L 105.772466 291.87064 
L 105.871657 293.766809 
L 105.970849 292.474182 
L 106.070041 294.417917 
L 106.169233 292.025818 
L 106.268424 293.815439 
L 106.466808 292.666425 
L 106.566 292.803795 
L 106.665191 292.415451 
L 106.764383 293.146547 
L 106.863575 292.971396 
L 106.962766 293.987043 
L 107.16115 291.329247 
L 107.260342 293.315496 
L 107.359533 292.220645 
L 107.458725 293.765313 
L 107.557917 290.008335 
L 107.657109 290.943306 
L 107.7563 294.259577 
L 108.153067 289.847583 
L 108.351451 294.765035 
L 108.450642 294.135419 
L 108.549834 294.407109 
L 108.748218 293.920209 
L 108.847409 290.346997 
L 109.045793 293.765482 
L 109.144985 292.148731 
L 109.244176 292.328351 
L 109.343368 292.662072 
L 109.640943 295.295784 
L 109.740135 291.20962 
L 109.938518 295.319455 
L 110.136902 292.953301 
L 110.236094 291.466474 
L 110.335285 294.607839 
L 110.434477 293.928657 
L 110.632861 290.814781 
L 110.732052 293.907172 
L 110.831244 293.515065 
L 111.029628 290.911094 
L 111.525586 295.203134 
L 111.624778 290.852111 
L 111.823161 294.422327 
L 111.922353 291.680412 
L 112.021545 292.977538 
L 112.120737 291.353114 
L 112.219928 291.781906 
L 112.31912 293.415729 
L 112.517504 288.92892 
L 112.715887 292.465779 
L 112.815079 292.723893 
L 112.91427 293.551508 
L 113.013462 290.418066 
L 113.112654 290.825822 
L 113.311037 288.980026 
L 113.509421 292.154311 
L 113.608613 294.363119 
L 113.806996 292.765072 
L 113.906188 292.956338 
L 114.00538 292.790817 
L 114.104571 292.07442 
L 114.203763 292.926739 
L 114.402146 292.298469 
L 114.501338 291.446184 
L 114.60053 288.728149 
L 114.699722 289.994948 
L 114.798913 293.116078 
L 114.898105 292.319743 
L 114.997297 294.357535 
L 115.096489 292.453342 
L 115.294872 293.60815 
L 115.394064 292.312116 
L 115.493256 292.624277 
L 115.592447 291.577863 
L 115.691639 292.249518 
L 115.790831 291.020546 
L 115.890022 293.814034 
L 116.187598 290.705643 
L 116.286789 293.642633 
L 116.385981 293.395341 
L 116.485173 294.215765 
L 116.683556 290.963973 
L 116.88194 293.707566 
L 116.981132 292.689161 
L 117.080323 293.458874 
L 117.278707 290.064551 
L 117.377899 289.944766 
L 117.47709 292.420539 
L 117.576282 291.574439 
L 117.675474 292.894399 
L 117.774665 292.869885 
L 117.873857 293.881288 
L 117.973049 293.640938 
L 118.171432 289.603889 
L 118.369816 294.474859 
L 118.568199 293.229664 
L 118.766583 290.59845 
L 118.964966 294.621691 
L 119.064158 292.640296 
L 119.16335 294.242839 
L 119.262541 292.332564 
L 119.560117 294.604765 
L 119.659308 293.246223 
L 119.857692 293.503204 
L 119.956884 294.38287 
L 120.056075 293.778737 
L 120.155267 293.817195 
L 120.254459 293.500067 
L 120.353651 292.427512 
L 120.452842 294.724253 
L 120.849609 292.77051 
L 120.948801 293.731035 
L 121.047993 292.893262 
L 121.147184 293.818854 
L 121.345568 292.913356 
L 121.44476 293.559167 
L 121.543951 293.478469 
L 121.643143 292.57201 
L 121.742335 292.74042 
L 121.841527 292.644075 
L 121.940718 292.304388 
L 122.03991 295.353561 
L 122.238293 291.431016 
L 122.337485 291.465498 
L 122.535869 293.081979 
L 122.63506 294.005892 
L 122.833444 290.562926 
L 122.932636 293.698245 
L 123.031827 293.622496 
L 123.230211 289.650305 
L 123.428594 292.309412 
L 123.527786 291.990615 
L 123.726169 291.311678 
L 123.825361 286.164782 
L 124.023745 292.337632 
L 124.122936 295.017456 
L 124.32132 293.330256 
L 124.420512 293.18713 
L 124.519703 294.028052 
L 124.618895 292.783221 
L 124.718087 293.158393 
L 124.817279 291.013491 
L 124.91647 293.81816 
L 125.015662 293.221367 
L 125.114854 294.325756 
L 125.214045 294.255957 
L 125.313237 294.854749 
L 125.412429 293.933715 
L 125.511621 294.540187 
L 125.610812 293.44711 
L 125.710004 294.439815 
L 125.809196 294.204758 
L 125.908388 292.829319 
L 126.007579 292.854328 
L 126.205963 295.180255 
L 126.305155 294.613676 
L 126.404346 295.37127 
L 126.503538 293.520897 
L 126.701922 294.776201 
L 126.801113 294.261687 
L 126.900305 294.467691 
L 126.999497 293.26633 
L 127.098688 294.748584 
L 127.19788 293.731602 
L 127.297072 294.492858 
L 127.396264 294.384564 
L 127.495455 294.946042 
L 127.594647 293.506923 
L 127.892222 295.302053 
L 128.090606 293.991999 
L 128.189798 294.085627 
L 128.288989 293.818179 
L 128.388181 295.150052 
L 128.586564 294.241145 
L 128.685756 294.019694 
L 128.88414 294.652369 
L 129.082523 293.512561 
L 129.181715 294.949618 
L 129.280907 293.680656 
L 129.380098 294.88238 
L 129.47929 294.534358 
L 129.578482 294.758044 
L 129.677674 294.707936 
L 129.975249 293.421196 
L 130.173632 294.021766 
L 130.272824 293.426591 
L 130.372016 293.631161 
L 130.471207 292.397529 
L 130.570399 294.251196 
L 130.669591 292.371284 
L 130.768783 294.184407 
L 130.967166 293.670801 
L 131.066358 293.903227 
L 131.16555 291.851589 
L 131.264741 295.316645 
L 131.463125 291.694517 
L 131.562316 294.781894 
L 131.661508 294.48349 
L 131.7607 294.278158 
L 131.859892 294.816326 
L 132.058275 293.673194 
L 132.157467 294.053053 
L 132.35585 293.094564 
L 132.455042 295.080754 
L 132.653426 294.078137 
L 132.752617 292.416437 
L 132.851809 292.437988 
L 133.050192 294.098557 
L 133.149384 292.216888 
L 133.248576 295.346121 
L 133.347768 294.209884 
L 133.546151 294.705239 
L 133.645343 292.529802 
L 133.744535 294.720911 
L 133.843726 292.235377 
L 133.942918 294.495903 
L 134.04211 294.412415 
L 134.141302 294.133857 
L 134.240493 294.848396 
L 134.339685 293.108131 
L 134.438877 295.094204 
L 134.538068 293.314785 
L 134.63726 293.575852 
L 134.736452 292.951024 
L 134.835644 294.648492 
L 135.034027 293.600207 
L 135.133219 294.981336 
L 135.232411 293.714387 
L 135.430794 294.614762 
L 135.529986 294.604852 
L 135.629178 294.085334 
L 135.728369 294.874033 
L 135.827561 294.715199 
L 135.926753 295.311541 
L 136.025945 294.675418 
L 136.224328 295.017931 
L 136.32352 294.023507 
L 136.422711 294.566016 
L 136.521903 293.696259 
L 136.621095 294.554178 
L 136.720287 294.5196 
L 136.819478 294.529526 
L 137.017862 295.10574 
L 137.117054 294.630962 
L 137.216245 294.944545 
L 137.315437 294.877269 
L 137.513821 295.397266 
L 137.712204 294.271717 
L 137.811396 293.978794 
L 138.108971 294.513155 
L 138.307354 295.15009 
L 138.505738 294.372537 
L 138.60493 295.008746 
L 138.704121 294.605137 
L 138.803313 295.204442 
L 138.902505 295.054948 
L 139.001697 295.239142 
L 139.100888 294.316628 
L 139.20008 294.835032 
L 139.299272 294.692372 
L 139.398463 294.921337 
L 139.497655 294.36117 
L 139.596847 294.471617 
L 139.696039 294.817681 
L 139.79523 294.771391 
L 139.894422 293.643904 
L 139.993614 294.503374 
L 140.092806 294.395887 
L 140.291189 293.861724 
L 140.390381 293.356615 
L 140.687956 294.786907 
L 140.787148 294.268417 
L 140.886339 294.702875 
L 140.985531 293.280154 
L 141.084723 294.843286 
L 141.183915 294.573831 
L 141.283106 295.10452 
L 141.382298 294.622462 
L 141.48149 292.97429 
L 141.779065 294.827511 
L 141.878257 294.7592 
L 141.977449 293.8927 
L 142.07664 295.394284 
L 142.374215 294.313572 
L 142.473407 295.359782 
L 142.572599 295.084131 
L 142.770982 295.306032 
L 142.870174 295.079683 
L 142.969366 294.113991 
L 143.068558 294.250803 
L 143.167749 294.171584 
L 143.366133 294.744711 
L 143.465325 295.196631 
L 143.663708 294.666252 
L 143.961283 295.199831 
L 144.060475 295.135526 
L 144.159667 294.7065 
L 144.655625 295.329863 
L 144.854009 295.094721 
L 145.052392 294.969422 
L 145.250776 294.610775 
L 145.349968 294.795008 
L 145.449159 294.679671 
L 145.548351 294.744722 
L 145.845926 295.368447 
L 146.143501 294.588985 
L 146.341885 294.909556 
L 146.540268 294.602158 
L 146.738652 295.262188 
L 146.837844 295.217228 
L 147.036227 294.469687 
L 147.23461 295.292418 
L 147.333802 295.182673 
L 147.432994 294.749739 
L 147.631377 295.038507 
L 147.730569 294.838559 
L 147.928953 295.379435 
L 148.028144 295.280102 
L 148.127336 294.71557 
L 148.424911 295.215458 
L 148.623295 294.705702 
L 148.821678 294.842333 
L 148.92087 295.161873 
L 149.020062 295.093426 
L 149.119253 294.802622 
L 149.218445 295.246424 
L 149.317637 295.15833 
L 149.416829 294.907687 
L 149.615212 295.013957 
L 149.813596 294.792644 
L 149.912787 294.8098 
L 150.111171 295.210049 
L 150.210362 294.647864 
L 150.309554 294.704419 
L 150.408746 294.659336 
L 150.507938 294.129197 
L 150.607129 294.486832 
L 150.706321 294.235066 
L 150.904705 295.223693 
L 151.003896 294.817958 
L 151.103088 294.984116 
L 151.20228 295.38082 
L 151.400663 294.79219 
L 151.499855 295.335072 
L 151.698238 294.964634 
L 151.79743 295.344221 
L 151.995814 295.033282 
L 152.095005 295.284662 
L 152.293389 295.098483 
L 152.392581 295.208354 
L 152.590964 295.094939 
L 152.690156 295.098954 
L 152.789348 295.452608 
L 153.086923 294.745373 
L 153.186114 294.988446 
L 153.285306 294.815754 
L 153.384498 294.906224 
L 153.48369 295.148878 
L 153.582881 294.512066 
L 153.781265 295.280586 
L 153.880457 295.207197 
L 153.979648 295.380551 
L 154.07884 295.315044 
L 154.277224 294.690674 
L 154.376415 295.474641 
L 154.475607 295.004561 
L 154.574799 295.159228 
L 154.773182 294.53749 
L 154.971566 295.397959 
L 155.070757 295.029943 
L 155.169949 295.371622 
L 155.269141 294.861088 
L 155.467524 295.298133 
L 155.7651 294.921923 
L 155.864291 295.022213 
L 155.963483 294.698888 
L 156.062675 294.876364 
L 156.161867 295.438672 
L 156.261058 295.343277 
L 156.36025 294.851589 
L 156.558633 295.307798 
L 156.657825 294.969797 
L 156.757017 295.164802 
L 157.153784 294.64869 
L 157.252976 294.955397 
L 157.451359 294.515247 
L 157.550551 295.331727 
L 157.748934 294.642463 
L 157.848126 294.651824 
L 157.947318 295.256556 
L 158.046509 295.159553 
L 158.145701 294.325418 
L 158.244893 295.085471 
L 158.344085 294.960337 
L 158.542468 294.442197 
L 158.840043 295.252794 
L 159.137619 295.005024 
L 159.23681 294.477842 
L 159.336002 295.076419 
L 159.435194 294.788371 
L 159.534385 295.08216 
L 159.732769 294.727132 
L 159.931152 295.146461 
L 160.228728 294.973628 
L 160.327919 294.570737 
L 160.427111 295.023388 
L 160.526303 294.76498 
L 160.625495 295.183541 
L 160.724686 295.133151 
L 161.022261 294.476341 
L 161.121453 295.08184 
L 161.220645 294.428593 
L 161.419028 294.928563 
L 161.51822 294.261388 
L 161.716604 294.771213 
L 161.815795 294.183928 
L 161.914987 294.786253 
L 162.014179 294.528218 
L 162.212562 294.998903 
L 162.311754 294.339298 
L 162.410946 294.528267 
L 162.510137 295.02536 
L 162.609329 294.235424 
L 162.708521 295.23139 
L 162.807713 294.967744 
L 162.906904 294.297601 
L 163.006096 294.937156 
L 163.105288 294.763906 
L 163.20448 295.202718 
L 163.303671 295.152042 
L 163.402863 294.36505 
L 163.79963 295.370974 
L 163.898822 294.746336 
L 163.998013 295.138072 
L 164.097205 294.458942 
L 164.196397 295.293778 
L 164.295589 294.863462 
L 164.39478 295.149126 
L 164.493972 294.198839 
L 164.593164 294.74978 
L 164.692356 294.275243 
L 164.791547 295.148361 
L 165.188314 293.879364 
L 165.386698 295.168091 
L 165.48589 294.414244 
L 165.684273 294.844263 
L 165.882656 294.885203 
L 165.981848 294.029426 
L 166.08104 294.881289 
L 166.180232 294.852296 
L 166.477807 294.970355 
L 166.576999 294.364196 
L 166.775382 294.688437 
L 166.973766 295.036989 
L 167.072957 294.508936 
L 167.172149 294.726552 
L 167.370532 294.473854 
L 167.568916 295.176305 
L 167.866491 294.742308 
L 167.965683 295.310668 
L 168.164066 294.694254 
L 168.263258 295.203328 
L 168.36245 294.69091 
L 168.660025 295.010109 
L 168.759217 294.739819 
L 168.858408 294.890658 
L 169.056792 294.544842 
L 169.155984 294.605798 
L 169.255175 295.327719 
L 169.354367 295.237544 
L 169.453559 294.88911 
L 169.552751 294.929282 
L 169.651942 294.908907 
L 169.751134 295.311434 
L 169.850326 294.804363 
L 169.949518 294.874382 
L 170.048709 294.624349 
L 170.147901 295.130937 
L 170.247093 294.969712 
L 170.346284 295.03334 
L 170.445476 294.770637 
L 170.544668 295.263583 
L 170.743051 294.336523 
L 170.941435 295.085521 
L 171.040627 294.392711 
L 171.23901 295.035484 
L 171.437394 294.756158 
L 171.536585 293.823527 
L 171.734969 295.042325 
L 171.83416 295.263244 
L 171.933352 294.754501 
L 172.131736 295.205672 
L 172.230927 294.655906 
L 172.330119 295.048336 
L 172.429311 294.219615 
L 172.528503 295.351115 
L 172.627694 294.412601 
L 172.726886 295.274064 
L 172.826078 294.612322 
L 172.92527 295.186387 
L 173.024461 295.044957 
L 173.123653 294.187808 
L 173.222845 295.231747 
L 173.322036 294.452128 
L 173.421228 294.901968 
L 173.619612 294.330448 
L 173.718803 294.489227 
L 173.917187 293.910005 
L 174.016379 294.907151 
L 174.11557 294.285803 
L 174.214762 295.311079 
L 174.313954 294.63568 
L 174.413146 294.988936 
L 174.512337 294.727855 
L 174.611529 295.250892 
L 174.710721 294.812206 
L 174.809913 295.233227 
L 175.107488 294.668551 
L 175.206679 295.052564 
L 175.305871 294.321079 
L 175.504255 294.710375 
L 175.603446 294.29675 
L 175.702638 295.083851 
L 175.80183 294.848226 
L 176.000213 295.054675 
L 176.198597 294.875913 
L 176.297789 294.936303 
L 176.39698 295.222925 
L 176.496172 294.797708 
L 176.694555 295.203765 
L 176.793747 294.975482 
L 176.892939 295.265572 
L 176.992131 295.032017 
L 177.091322 295.232158 
L 177.190514 294.623935 
L 177.388898 295.218421 
L 177.488089 294.996525 
L 177.686473 295.038177 
L 177.785665 294.955282 
L 177.884856 295.175618 
L 177.984048 295.130868 
L 178.08324 294.741475 
L 178.182431 295.449739 
L 178.281623 294.994561 
L 178.480007 295.17308 
L 178.67839 294.935681 
L 178.777582 295.304145 
L 178.876774 294.965129 
L 178.975965 295.269494 
L 179.372732 294.7197 
L 179.471924 295.439383 
L 179.670307 294.819664 
L 179.967883 295.146156 
L 180.265458 295.039219 
L 180.36465 295.239909 
L 180.463841 295.140254 
L 180.563033 295.400278 
L 180.662225 294.927153 
L 180.761417 295.046215 
L 180.860608 295.345983 
L 181.257375 294.850237 
L 181.356567 295.28731 
L 181.55495 294.916037 
L 181.852526 295.470781 
L 181.951717 294.729928 
L 182.050909 295.200384 
L 182.150101 294.929131 
L 182.249293 295.181504 
L 182.447676 294.331759 
L 182.646059 295.425865 
L 182.844443 294.99958 
L 182.943635 295.070817 
L 183.042826 294.491454 
L 183.340402 295.158185 
L 183.538785 294.200969 
L 183.737169 294.657945 
L 184.034744 294.805828 
L 184.133936 295.331525 
L 184.332319 295.042281 
L 184.431511 295.121231 
L 184.530702 294.87836 
L 184.629894 294.945266 
L 184.729086 294.751866 
L 184.828278 295.184549 
L 184.927469 295.087121 
L 185.026661 295.351949 
L 185.225045 295.063557 
L 185.324236 294.646366 
L 185.423428 294.736793 
L 185.52262 295.463415 
L 185.721003 294.878588 
L 185.919387 295.152779 
L 186.11777 294.83548 
L 186.316154 295.204539 
L 186.415345 295.087762 
L 186.613729 295.033634 
L 186.812112 295.376562 
L 187.208879 295.412311 
L 187.407263 295.331755 
L 187.704838 295.032604 
L 187.903221 295.392134 
L 188.101605 295.199969 
L 188.498372 295.214757 
L 188.696755 295.028934 
L 188.795947 295.289766 
L 188.895139 295.186601 
L 188.99433 295.324106 
L 189.490289 294.850953 
L 189.589481 295.076026 
L 189.688673 294.85164 
L 189.986248 295.28935 
L 190.08544 295.305482 
L 190.283823 295.052635 
L 190.482206 295.306792 
L 190.68059 294.993202 
L 190.878973 295.276489 
L 191.077357 294.981111 
L 191.374932 295.132177 
L 191.672507 295.284439 
L 191.870891 295.443695 
L 192.168466 295.17928 
L 193.457959 295.186644 
L 193.953917 295.265783 
L 194.053109 295.153448 
L 194.251492 295.377763 
L 194.449876 294.960185 
L 194.648259 295.216302 
L 194.747451 295.158662 
L 194.945835 295.387606 
L 195.342601 294.964507 
L 195.540985 295.124324 
L 195.937752 294.777728 
L 196.433711 295.444934 
L 196.532902 295.271339 
L 196.632094 295.393486 
L 196.830477 294.997744 
L 197.028861 295.264271 
L 197.52482 295.246158 
L 197.624011 294.986887 
L 197.723203 295.036243 
L 197.822395 295.252477 
L 197.921587 295.13099 
L 198.11997 295.317182 
L 198.219162 295.356433 
L 198.318353 295.113678 
L 198.417545 295.155137 
L 198.516737 295.12807 
L 198.71512 295.45297 
L 198.913504 295.083814 
L 199.012696 295.175443 
L 199.111887 294.893175 
L 199.310271 295.336336 
L 199.409463 295.289787 
L 199.508654 295.068103 
L 199.806229 295.465826 
L 200.004613 295.208788 
L 200.103805 295.446066 
L 200.202996 295.005407 
L 200.302188 295.172819 
L 200.500572 294.820727 
L 200.599763 295.291655 
L 200.897339 294.740243 
L 201.095722 295.106457 
L 201.194914 294.655533 
L 201.393297 294.996514 
L 201.492489 295.39412 
L 201.690872 294.853396 
L 201.889256 295.299115 
L 202.286023 295.146963 
L 202.385215 295.359961 
L 202.881173 295.094793 
L 202.980365 295.111662 
L 203.079557 295.28914 
L 203.178748 295.105484 
L 203.476324 295.345054 
L 203.674707 295.14852 
L 203.773899 295.392851 
L 203.972282 295.264153 
L 204.071474 295.349961 
L 204.170666 295.16908 
L 204.269858 295.444354 
L 204.666624 294.992162 
L 204.765816 295.106207 
L 204.865008 294.990269 
L 204.9642 295.103765 
L 205.063391 295.440351 
L 205.162583 295.07612 
L 205.460158 295.152014 
L 205.55935 294.960661 
L 205.757734 295.332088 
L 205.856925 295.384899 
L 206.055309 295.185242 
L 206.253692 295.393792 
L 206.352884 295.291675 
L 206.452076 295.446214 
L 206.749651 295.220059 
L 206.848843 295.238272 
L 207.047226 295.373518 
L 207.24561 295.335841 
L 207.443993 295.109442 
L 207.543185 295.060628 
L 207.741568 295.194535 
L 207.939952 295.122977 
L 208.138335 295.407483 
L 208.237527 295.106103 
L 208.43591 295.316222 
L 208.535102 295.021084 
L 208.634294 295.086678 
L 208.733486 295.359468 
L 208.931869 294.921788 
L 209.031061 295.1307 
L 209.130252 295.069662 
L 209.229444 295.243759 
L 209.328636 294.989285 
L 209.527019 295.33309 
L 209.626211 295.24969 
L 209.923786 295.375956 
L 210.12217 295.341806 
L 210.221362 295.407094 
L 210.320553 295.293447 
L 210.419745 295.406956 
L 210.618128 295.224701 
L 211.014895 295.294777 
L 211.213279 295.139667 
L 211.312471 295.138141 
L 211.411662 295.316399 
L 211.610046 295.296781 
L 211.808429 295.390481 
L 211.907621 295.14446 
L 212.106004 295.337814 
L 212.304388 295.117539 
L 212.502771 295.243608 
L 212.601963 295.10864 
L 212.800347 295.292001 
L 212.99873 295.02738 
L 213.197114 295.40642 
L 213.395497 294.980551 
L 213.593881 295.329155 
L 213.693072 295.283029 
L 213.792264 295.391014 
L 213.891456 295.087127 
L 214.189031 295.336913 
L 214.387414 295.365683 
L 214.68499 295.223792 
L 214.883373 295.417135 
L 215.28014 295.206044 
L 215.379332 295.386984 
L 215.676907 295.041979 
L 215.87529 295.388213 
L 216.073674 295.133817 
L 216.272057 295.269256 
L 216.470441 295.212182 
L 216.768016 295.320342 
L 216.966399 295.290817 
L 217.065591 295.444046 
L 217.263975 295.25931 
L 217.462358 295.305308 
L 217.56155 295.16726 
L 217.759933 295.425149 
L 217.958317 295.394438 
L 218.057509 295.26052 
L 218.1567 295.362696 
L 218.355084 295.154905 
L 218.553467 295.382084 
L 219.347001 295.125078 
L 219.446193 295.183964 
L 219.644576 295.433256 
L 220.041343 295.234665 
L 220.239727 295.406273 
L 220.338918 295.080438 
L 220.537302 295.325532 
L 220.735685 295.133659 
L 220.934069 295.229891 
L 221.033261 295.157936 
L 221.231644 295.398695 
L 221.430027 295.194828 
L 221.727603 295.183895 
L 221.925986 294.914381 
L 222.025178 295.040817 
L 222.12437 294.91192 
L 222.322753 295.210292 
L 222.421945 295.214457 
L 222.521137 295.46869 
L 222.917904 295.202357 
L 223.017095 295.479479 
L 223.413862 295.197534 
L 223.513054 295.420627 
L 223.711437 295.286466 
L 223.909821 295.185213 
L 224.108204 295.1292 
L 224.207396 295.377898 
L 224.306588 295.205864 
L 224.40578 295.326662 
L 224.703355 295.179747 
L 225.199313 294.904374 
L 225.397697 295.137736 
L 225.496889 295.112002 
L 225.59608 295.341085 
L 225.794464 295.184723 
L 225.893656 295.275605 
L 226.092039 295.206936 
L 226.290422 295.297077 
L 226.389614 295.428546 
L 226.488806 295.373744 
L 226.587998 295.485173 
L 226.786381 295.098911 
L 226.885573 294.781127 
L 227.083956 295.303233 
L 227.183148 295.207047 
L 227.28234 295.20395 
L 227.381532 295.382125 
L 227.480723 295.252017 
L 227.579915 294.887314 
L 227.87749 295.171452 
L 228.175065 295.378247 
L 228.472641 295.262178 
L 228.571832 295.397803 
L 228.770216 295.323171 
L 229.166983 295.460471 
L 229.464558 295.391954 
L 229.56375 295.453189 
L 229.762133 295.316684 
L 230.059708 295.441429 
L 230.1589 295.260012 
L 230.258092 295.441743 
L 230.555667 295.157567 
L 230.952434 295.464643 
L 231.349201 295.12846 
L 231.646776 295.296362 
L 232.043543 295.335035 
L 232.142735 295.231935 
L 232.341118 295.247098 
L 232.737885 295.15992 
L 232.936269 295.238766 
L 233.134652 295.183944 
L 233.233844 295.290401 
L 233.432227 295.197868 
L 233.630611 295.395594 
L 233.729803 295.33635 
L 233.828994 295.408906 
L 233.928186 295.249362 
L 234.225761 295.381286 
L 234.324953 295.276629 
L 234.424145 295.335492 
L 234.622528 295.215212 
L 234.820912 295.113403 
L 235.019295 295.179115 
L 235.118487 295.25413 
L 235.217679 295.174838 
L 235.31687 295.320617 
L 235.515254 295.264262 
L 235.713637 295.291475 
L 235.812829 295.199724 
L 236.209596 295.34851 
L 236.705555 295.392231 
L 237.300705 295.329515 
L 237.59828 295.280069 
L 237.697472 295.290014 
L 237.895855 295.461259 
L 238.689389 295.257224 
L 238.887773 295.405959 
L 239.185348 295.438444 
L 239.482923 295.261419 
L 239.681307 295.367429 
L 239.87969 295.282258 
L 240.375649 295.449185 
L 240.871607 295.194746 
L 241.962716 295.375792 
L 242.1611 295.11716 
L 242.458675 295.377256 
L 242.855442 295.334955 
L 243.153017 295.313163 
L 243.252209 295.264345 
L 243.450592 295.364466 
L 243.648976 295.392979 
L 244.045743 295.237955 
L 244.244126 295.41419 
L 244.44251 295.332209 
L 244.541702 295.4643 
L 244.740085 295.366842 
L 245.136852 295.280664 
L 245.335235 295.415564 
L 245.434427 295.222805 
L 245.632811 295.258799 
L 245.732002 295.107686 
L 245.831194 295.175329 
L 245.930386 295.094755 
L 246.128769 295.361563 
L 246.426344 295.364849 
L 246.624728 295.243463 
L 246.72392 295.4157 
L 246.823111 295.28415 
L 247.021495 295.361332 
L 247.219878 295.320261 
L 247.418262 295.268031 
L 247.715837 295.485636 
L 248.112604 295.423576 
L 248.906138 295.337065 
L 249.104521 295.384381 
L 249.501288 295.146227 
L 249.699672 295.369524 
L 249.898055 295.353487 
L 250.096439 295.276644 
L 250.493206 295.253621 
L 250.592397 295.154721 
L 250.889973 295.445643 
L 251.088356 295.38701 
L 251.286739 295.428125 
L 251.485123 295.316419 
L 251.683506 295.463371 
L 251.88189 295.244462 
L 252.080273 295.414801 
L 252.377849 295.305346 
L 252.47704 295.31893 
L 252.576232 295.458629 
L 253.072191 295.246516 
L 253.171382 295.334802 
L 253.369766 295.262776 
L 253.667341 295.326297 
L 253.964916 295.209401 
L 254.1633 295.318401 
L 254.361683 295.325733 
L 254.560067 295.20445 
L 254.75845 295.368996 
L 254.956834 295.335475 
L 255.254409 295.400874 
L 255.452792 295.393922 
L 255.651176 295.376635 
L 255.750367 295.334089 
L 255.849559 295.434983 
L 256.047943 295.200141 
L 256.345518 295.362626 
L 256.543901 295.06184 
L 256.742285 295.369711 
L 256.940668 295.26237 
L 257.03986 295.442619 
L 257.436627 295.275482 
L 257.63501 295.310374 
L 257.734202 295.126153 
L 257.932586 295.385558 
L 258.130969 295.098928 
L 258.329353 295.268855 
L 258.527736 295.257982 
L 258.626928 295.31976 
L 258.726119 295.143337 
L 258.825311 295.270671 
L 258.924503 295.137818 
L 259.222078 295.311922 
L 259.420462 295.226939 
L 259.618845 295.217137 
L 259.718037 295.294808 
L 259.817229 295.211257 
L 260.015612 295.350927 
L 260.213996 295.190778 
L 260.809146 295.344996 
L 260.908338 295.213229 
L 261.106721 295.451076 
L 261.205913 295.245396 
L 261.60268 295.41619 
L 261.701872 295.244652 
L 261.900255 295.328277 
L 261.999447 295.328764 
L 262.098638 295.147631 
L 262.297022 295.398852 
L 262.495405 295.248203 
L 262.594597 295.395993 
L 262.892172 295.242126 
L 263.090556 295.445669 
L 263.586514 295.232064 
L 263.685706 295.444493 
L 263.88409 295.187098 
L 264.47924 295.477603 
L 264.677624 295.296725 
L 264.876007 295.318187 
L 265.07439 295.221981 
L 265.371966 295.358957 
L 265.471157 295.286278 
L 265.669541 295.406097 
L 265.867924 295.311039 
L 266.1655 295.458088 
L 266.859842 295.343804 
L 267.157417 295.440467 
L 267.950951 295.39404 
L 268.446909 295.43191 
L 269.339635 295.382311 
L 269.438827 295.472889 
L 269.538018 295.40353 
L 269.736402 295.453259 
L 269.934785 295.407383 
L 270.133169 295.321793 
L 270.529936 295.270188 
L 270.728319 295.270655 
L 271.125086 295.339006 
L 271.521853 295.284132 
L 271.621045 295.385275 
L 271.819428 295.340307 
L 272.315387 295.444128 
L 272.612962 295.377426 
L 274.001647 295.332087 
L 274.20003 295.399286 
L 274.695989 295.327631 
L 275.588714 295.233984 
L 275.985481 295.223173 
L 276.283056 295.309965 
L 276.580632 295.430627 
L 276.878207 295.388484 
L 277.274974 295.411488 
L 277.770932 295.175403 
L 278.068508 295.282535 
L 278.862041 295.464312 
L 279.159617 295.276083 
L 279.953151 295.252977 
L 280.746684 295.320458 
L 281.04426 295.267289 
L 281.441027 295.459659 
L 281.738602 295.355434 
L 282.036177 295.338318 
L 282.135369 295.272982 
L 282.333752 295.376135 
L 283.028094 295.372581 
L 283.32567 295.302353 
L 283.722436 295.388432 
L 283.92082 295.436129 
L 284.119203 295.368537 
L 284.416779 295.361651 
L 285.507888 295.353419 
L 286.698188 295.342604 
L 287.987681 295.386935 
L 288.186064 295.329576 
L 288.48364 295.263401 
L 288.682023 295.348033 
L 288.979598 295.319041 
L 289.673941 295.458013 
L 290.566666 295.332091 
L 290.76505 295.349418 
L 290.864241 295.27704 
L 291.062625 295.409227 
L 291.261008 295.380481 
L 291.3602 295.423814 
L 291.558583 295.29525 
L 292.352117 295.360166 
L 292.649693 295.379686 
L 293.244843 295.250017 
L 293.542418 295.429368 
L 294.137569 295.360512 
L 294.435144 295.377227 
L 294.732719 295.297665 
L 295.327869 295.453262 
L 295.92302 295.405654 
L 296.220595 295.356645 
L 296.51817 295.340864 
L 296.716554 295.382524 
L 296.914937 295.436742 
L 297.113321 295.426089 
L 297.311704 295.359916 
L 297.510087 295.314722 
L 297.807663 295.340456 
L 298.006046 295.384804 
L 298.303621 295.388125 
L 298.502005 295.480314 
L 298.898772 295.394456 
L 298.997964 295.440739 
L 299.295539 295.29854 
L 299.493922 295.377843 
L 300.089073 295.387607 
L 300.287456 295.380285 
L 300.585031 295.473345 
L 301.378565 295.313483 
L 301.576949 295.317481 
L 303.064825 295.411387 
L 303.659975 295.324791 
L 304.255125 295.471753 
L 304.751084 295.297847 
L 305.147851 295.325938 
L 305.842193 295.479031 
L 306.338152 295.398542 
L 306.635727 295.423815 
L 307.528453 295.337177 
L 307.92522 295.437688 
L 308.321987 295.314001 
L 308.619562 295.400221 
L 308.917137 295.296083 
L 309.313904 295.239043 
L 309.809863 295.467172 
L 310.405013 295.280736 
L 310.603396 295.277513 
L 310.900972 295.351838 
L 311.39693 295.405211 
L 311.595314 295.349618 
L 312.388848 295.397828 
L 312.686423 295.430899 
L 312.983998 295.440034 
L 313.281573 295.347445 
L 313.67834 295.390403 
L 313.975915 295.353852 
L 315.067024 295.382747 
L 315.265408 295.364117 
L 315.662175 295.429012 
L 315.95975 295.279424 
L 319.927419 295.464509 
L 320.224995 295.370859 
L 320.52257 295.417632 
L 320.720953 295.397168 
L 321.018528 295.328281 
L 321.316104 295.365697 
L 321.514487 295.383252 
L 321.712871 295.403753 
L 322.208829 295.398187 
L 322.506404 295.383413 
L 322.80398 295.433154 
L 323.101555 295.405121 
L 323.498322 295.383646 
L 323.99428 295.429521 
L 324.192664 295.459881 
L 324.490239 295.396476 
L 324.688623 295.4165 
L 324.887006 295.335062 
L 324.986198 295.38728 
L 325.184581 295.327295 
L 325.878923 295.423504 
L 326.374882 295.307373 
L 326.970032 295.451499 
L 327.862758 295.421077 
L 328.5571 295.407775 
L 329.053059 295.303476 
L 329.449826 295.390242 
L 331.136085 295.374987 
L 331.334469 295.341945 
L 332.921537 295.441721 
L 333.417495 295.407412 
L 335.103755 295.366093 
L 335.798097 295.383612 
L 336.591631 295.415065 
L 337.087589 295.40514 
L 337.484356 295.369981 
L 337.781932 295.438688 
L 338.972232 295.412032 
L 339.468191 295.341733 
L 339.96415 295.350667 
L 340.360917 295.424814 
L 341.650409 295.362162 
L 347.40353 295.439147 
L 347.601913 295.453501 
L 348.395447 295.414454 
L 350.379282 295.420684 
L 351.569583 295.420548 
L 352.363116 295.401061 
L 353.255842 295.415134 
L 357.521087 295.417179 
L 358.513004 295.414816 
L 359.207346 295.430765 
L 364.266124 295.418858 
L 365.059658 295.417681 
L 377.061858 295.410628 
L 377.7562 295.410097 
L 382.31902 295.420359 
L 383.310937 295.418991 
L 385.889923 295.413609 
L 387.080223 295.415726 
L 387.774565 295.412458 
L 388.568099 295.415581 
L 389.857592 295.410081 
L 391.246276 295.409908 
L 398.487273 295.410067 
L 398.487273 295.410067 
" style="fill:none;stroke:#ff0000;stroke-linecap:square;stroke-width:1.5;"/>
   </g>
   <g id="patch_3">
    <path d="M 57.6 307.584 
L 57.6 41.472 
" style="fill:none;stroke:#000000;stroke-linecap:square;stroke-linejoin:miter;stroke-width:0.8;"/>
   </g>
   <g id="patch_4">
    <path d="M 414.72 307.584 
L 414.72 41.472 
" style="fill:none;stroke:#000000;stroke-linecap:square;stroke-linejoin:miter;stroke-width:0.8;"/>
   </g>
   <g id="patch_5">
    <path d="M 57.6 307.584 
L 414.72 307.584 
" style="fill:none;stroke:#000000;stroke-linecap:square;stroke-linejoin:miter;stroke-width:0.8;"/>
   </g>
   <g id="patch_6">
    <path d="M 57.6 41.472 
L 414.72 41.472 
" style="fill:none;stroke:#000000;stroke-linecap:square;stroke-linejoin:miter;stroke-width:0.8;"/>
   </g>
   <g id="legend_1">
    <g id="patch_7">
     <path d="M 364.934063 64.150125 
L 407.72 64.150125 
Q 409.72 64.150125 409.72 62.150125 
L 409.72 48.472 
Q 409.72 46.472 407.72 46.472 
L 364.934063 46.472 
Q 362.934063 46.472 362.934063 48.472 
L 362.934063 62.150125 
Q 362.934063 64.150125 364.934063 64.150125 
z
" style="fill:#ffffff;opacity:0.8;stroke:#cccccc;stroke-linejoin:miter;"/>
    </g>
    <g id="line2d_14">
     <path d="M 366.934063 54.570438 
L 386.934063 54.570438 
" style="fill:none;stroke:#ff0000;stroke-linecap:square;stroke-width:1.5;"/>
    </g>
    <g id="line2d_15"/>
    <g id="text_15">
     <!-- fft -->
     <g transform="translate(394.934063 58.070438)scale(0.1 -0.1)">
      <defs>
       <path d="M 37.109375 75.984375 
L 37.109375 68.5 
L 28.515625 68.5 
Q 23.6875 68.5 21.796875 66.546875 
Q 19.921875 64.59375 19.921875 59.515625 
L 19.921875 54.6875 
L 34.71875 54.6875 
L 34.71875 47.703125 
L 19.921875 47.703125 
L 19.921875 0 
L 10.890625 0 
L 10.890625 47.703125 
L 2.296875 47.703125 
L 2.296875 54.6875 
L 10.890625 54.6875 
L 10.890625 58.5 
Q 10.890625 67.625 15.140625 71.796875 
Q 19.390625 75.984375 28.609375 75.984375 
z
" id="DejaVuSans-102"/>
      </defs>
      <use xlink:href="#DejaVuSans-102"/>
      <use x="35.205078" xlink:href="#DejaVuSans-102"/>
      <use x="68.660156" xlink:href="#DejaVuSans-116"/>
     </g>
    </g>
   </g>
  </g>
 </g>
 <defs>
  <clipPath id="pe5721ffd39">
   <rect height="266.112" width="357.12" x="57.6" y="41.472"/>
  </clipPath>
 </defs>
</svg>
