<?xml version="1.0" encoding="utf-8" standalone="no"?>
<!DOCTYPE svg PUBLIC "-//W3C//DTD SVG 1.1//EN"
  "http://www.w3.org/Graphics/SVG/1.1/DTD/svg11.dtd">
<!-- Created with matplotlib (https://matplotlib.org/) -->
<svg height="345.6pt" version="1.1" viewBox="0 0 460.8 345.6" width="460.8pt" xmlns="http://www.w3.org/2000/svg" xmlns:xlink="http://www.w3.org/1999/xlink">
 <metadata>
  <rdf:RDF xmlns:cc="http://creativecommons.org/ns#" xmlns:dc="http://purl.org/dc/elements/1.1/" xmlns:rdf="http://www.w3.org/1999/02/22-rdf-syntax-ns#">
   <cc:Work>
    <dc:type rdf:resource="http://purl.org/dc/dcmitype/StillImage"/>
    <dc:date>2020-10-15T12:25:46.907675</dc:date>
    <dc:format>image/svg+xml</dc:format>
    <dc:creator>
     <cc:Agent>
      <dc:title>Matplotlib v3.3.2, https://matplotlib.org/</dc:title>
     </cc:Agent>
    </dc:creator>
   </cc:Work>
  </rdf:RDF>
 </metadata>
 <defs>
  <style type="text/css">*{stroke-linecap:butt;stroke-linejoin:round;}</style>
 </defs>
 <g id="figure_1">
  <g id="patch_1">
   <path d="M 0 345.6 
L 460.8 345.6 
L 460.8 0 
L 0 0 
z
" style="fill:#ffffff;"/>
  </g>
  <g id="axes_1">
   <g id="patch_2">
    <path d="M 57.6 307.584 
L 414.72 307.584 
L 414.72 41.472 
L 57.6 41.472 
z
" style="fill:#ffffff;"/>
   </g>
   <g id="matplotlib.axis_1">
    <g id="xtick_1">
     <g id="line2d_1">
      <defs>
       <path d="M 0 0 
L 0 3.5 
" id="me2a36fa8be" style="stroke:#000000;stroke-width:0.8;"/>
      </defs>
      <g>
       <use style="stroke:#000000;stroke-width:0.8;" x="73.832727" xlink:href="#me2a36fa8be" y="307.584"/>
      </g>
     </g>
     <g id="text_1">
      <!-- 0 -->
      <g transform="translate(70.651477 322.182437)scale(0.1 -0.1)">
       <defs>
        <path d="M 31.78125 66.40625 
Q 24.171875 66.40625 20.328125 58.90625 
Q 16.5 51.421875 16.5 36.375 
Q 16.5 21.390625 20.328125 13.890625 
Q 24.171875 6.390625 31.78125 6.390625 
Q 39.453125 6.390625 43.28125 13.890625 
Q 47.125 21.390625 47.125 36.375 
Q 47.125 51.421875 43.28125 58.90625 
Q 39.453125 66.40625 31.78125 66.40625 
z
M 31.78125 74.21875 
Q 44.046875 74.21875 50.515625 64.515625 
Q 56.984375 54.828125 56.984375 36.375 
Q 56.984375 17.96875 50.515625 8.265625 
Q 44.046875 -1.421875 31.78125 -1.421875 
Q 19.53125 -1.421875 13.0625 8.265625 
Q 6.59375 17.96875 6.59375 36.375 
Q 6.59375 54.828125 13.0625 64.515625 
Q 19.53125 74.21875 31.78125 74.21875 
z
" id="DejaVuSans-48"/>
       </defs>
       <use xlink:href="#DejaVuSans-48"/>
      </g>
     </g>
    </g>
    <g id="xtick_2">
     <g id="line2d_2">
      <g>
       <use style="stroke:#000000;stroke-width:0.8;" x="134.154185" xlink:href="#me2a36fa8be" y="307.584"/>
      </g>
     </g>
     <g id="text_2">
      <!-- 1000 -->
      <g transform="translate(121.429185 322.182437)scale(0.1 -0.1)">
       <defs>
        <path d="M 12.40625 8.296875 
L 28.515625 8.296875 
L 28.515625 63.921875 
L 10.984375 60.40625 
L 10.984375 69.390625 
L 28.421875 72.90625 
L 38.28125 72.90625 
L 38.28125 8.296875 
L 54.390625 8.296875 
L 54.390625 0 
L 12.40625 0 
z
" id="DejaVuSans-49"/>
       </defs>
       <use xlink:href="#DejaVuSans-49"/>
       <use x="63.623047" xlink:href="#DejaVuSans-48"/>
       <use x="127.246094" xlink:href="#DejaVuSans-48"/>
       <use x="190.869141" xlink:href="#DejaVuSans-48"/>
      </g>
     </g>
    </g>
    <g id="xtick_3">
     <g id="line2d_3">
      <g>
       <use style="stroke:#000000;stroke-width:0.8;" x="194.475642" xlink:href="#me2a36fa8be" y="307.584"/>
      </g>
     </g>
     <g id="text_3">
      <!-- 2000 -->
      <g transform="translate(181.750642 322.182437)scale(0.1 -0.1)">
       <defs>
        <path d="M 19.1875 8.296875 
L 53.609375 8.296875 
L 53.609375 0 
L 7.328125 0 
L 7.328125 8.296875 
Q 12.9375 14.109375 22.625 23.890625 
Q 32.328125 33.6875 34.8125 36.53125 
Q 39.546875 41.84375 41.421875 45.53125 
Q 43.3125 49.21875 43.3125 52.78125 
Q 43.3125 58.59375 39.234375 62.25 
Q 35.15625 65.921875 28.609375 65.921875 
Q 23.96875 65.921875 18.8125 64.3125 
Q 13.671875 62.703125 7.8125 59.421875 
L 7.8125 69.390625 
Q 13.765625 71.78125 18.9375 73 
Q 24.125 74.21875 28.421875 74.21875 
Q 39.75 74.21875 46.484375 68.546875 
Q 53.21875 62.890625 53.21875 53.421875 
Q 53.21875 48.921875 51.53125 44.890625 
Q 49.859375 40.875 45.40625 35.40625 
Q 44.1875 33.984375 37.640625 27.21875 
Q 31.109375 20.453125 19.1875 8.296875 
z
" id="DejaVuSans-50"/>
       </defs>
       <use xlink:href="#DejaVuSans-50"/>
       <use x="63.623047" xlink:href="#DejaVuSans-48"/>
       <use x="127.246094" xlink:href="#DejaVuSans-48"/>
       <use x="190.869141" xlink:href="#DejaVuSans-48"/>
      </g>
     </g>
    </g>
    <g id="xtick_4">
     <g id="line2d_4">
      <g>
       <use style="stroke:#000000;stroke-width:0.8;" x="254.7971" xlink:href="#me2a36fa8be" y="307.584"/>
      </g>
     </g>
     <g id="text_4">
      <!-- 3000 -->
      <g transform="translate(242.0721 322.182437)scale(0.1 -0.1)">
       <defs>
        <path d="M 40.578125 39.3125 
Q 47.65625 37.796875 51.625 33 
Q 55.609375 28.21875 55.609375 21.1875 
Q 55.609375 10.40625 48.1875 4.484375 
Q 40.765625 -1.421875 27.09375 -1.421875 
Q 22.515625 -1.421875 17.65625 -0.515625 
Q 12.796875 0.390625 7.625 2.203125 
L 7.625 11.71875 
Q 11.71875 9.328125 16.59375 8.109375 
Q 21.484375 6.890625 26.8125 6.890625 
Q 36.078125 6.890625 40.9375 10.546875 
Q 45.796875 14.203125 45.796875 21.1875 
Q 45.796875 27.640625 41.28125 31.265625 
Q 36.765625 34.90625 28.71875 34.90625 
L 20.21875 34.90625 
L 20.21875 43.015625 
L 29.109375 43.015625 
Q 36.375 43.015625 40.234375 45.921875 
Q 44.09375 48.828125 44.09375 54.296875 
Q 44.09375 59.90625 40.109375 62.90625 
Q 36.140625 65.921875 28.71875 65.921875 
Q 24.65625 65.921875 20.015625 65.03125 
Q 15.375 64.15625 9.8125 62.3125 
L 9.8125 71.09375 
Q 15.4375 72.65625 20.34375 73.4375 
Q 25.25 74.21875 29.59375 74.21875 
Q 40.828125 74.21875 47.359375 69.109375 
Q 53.90625 64.015625 53.90625 55.328125 
Q 53.90625 49.265625 50.4375 45.09375 
Q 46.96875 40.921875 40.578125 39.3125 
z
" id="DejaVuSans-51"/>
       </defs>
       <use xlink:href="#DejaVuSans-51"/>
       <use x="63.623047" xlink:href="#DejaVuSans-48"/>
       <use x="127.246094" xlink:href="#DejaVuSans-48"/>
       <use x="190.869141" xlink:href="#DejaVuSans-48"/>
      </g>
     </g>
    </g>
    <g id="xtick_5">
     <g id="line2d_5">
      <g>
       <use style="stroke:#000000;stroke-width:0.8;" x="315.118557" xlink:href="#me2a36fa8be" y="307.584"/>
      </g>
     </g>
     <g id="text_5">
      <!-- 4000 -->
      <g transform="translate(302.393557 322.182437)scale(0.1 -0.1)">
       <defs>
        <path d="M 37.796875 64.3125 
L 12.890625 25.390625 
L 37.796875 25.390625 
z
M 35.203125 72.90625 
L 47.609375 72.90625 
L 47.609375 25.390625 
L 58.015625 25.390625 
L 58.015625 17.1875 
L 47.609375 17.1875 
L 47.609375 0 
L 37.796875 0 
L 37.796875 17.1875 
L 4.890625 17.1875 
L 4.890625 26.703125 
z
" id="DejaVuSans-52"/>
       </defs>
       <use xlink:href="#DejaVuSans-52"/>
       <use x="63.623047" xlink:href="#DejaVuSans-48"/>
       <use x="127.246094" xlink:href="#DejaVuSans-48"/>
       <use x="190.869141" xlink:href="#DejaVuSans-48"/>
      </g>
     </g>
    </g>
    <g id="xtick_6">
     <g id="line2d_6">
      <g>
       <use style="stroke:#000000;stroke-width:0.8;" x="375.440015" xlink:href="#me2a36fa8be" y="307.584"/>
      </g>
     </g>
     <g id="text_6">
      <!-- 5000 -->
      <g transform="translate(362.715015 322.182437)scale(0.1 -0.1)">
       <defs>
        <path d="M 10.796875 72.90625 
L 49.515625 72.90625 
L 49.515625 64.59375 
L 19.828125 64.59375 
L 19.828125 46.734375 
Q 21.96875 47.46875 24.109375 47.828125 
Q 26.265625 48.1875 28.421875 48.1875 
Q 40.625 48.1875 47.75 41.5 
Q 54.890625 34.8125 54.890625 23.390625 
Q 54.890625 11.625 47.5625 5.09375 
Q 40.234375 -1.421875 26.90625 -1.421875 
Q 22.3125 -1.421875 17.546875 -0.640625 
Q 12.796875 0.140625 7.71875 1.703125 
L 7.71875 11.625 
Q 12.109375 9.234375 16.796875 8.0625 
Q 21.484375 6.890625 26.703125 6.890625 
Q 35.15625 6.890625 40.078125 11.328125 
Q 45.015625 15.765625 45.015625 23.390625 
Q 45.015625 31 40.078125 35.4375 
Q 35.15625 39.890625 26.703125 39.890625 
Q 22.75 39.890625 18.8125 39.015625 
Q 14.890625 38.140625 10.796875 36.28125 
z
" id="DejaVuSans-53"/>
       </defs>
       <use xlink:href="#DejaVuSans-53"/>
       <use x="63.623047" xlink:href="#DejaVuSans-48"/>
       <use x="127.246094" xlink:href="#DejaVuSans-48"/>
       <use x="190.869141" xlink:href="#DejaVuSans-48"/>
      </g>
     </g>
    </g>
    <g id="text_7">
     <!-- Frequency [Hz] -->
     <g transform="translate(198.455312 335.860562)scale(0.1 -0.1)">
      <defs>
       <path d="M 9.8125 72.90625 
L 51.703125 72.90625 
L 51.703125 64.59375 
L 19.671875 64.59375 
L 19.671875 43.109375 
L 48.578125 43.109375 
L 48.578125 34.8125 
L 19.671875 34.8125 
L 19.671875 0 
L 9.8125 0 
z
" id="DejaVuSans-70"/>
       <path d="M 41.109375 46.296875 
Q 39.59375 47.171875 37.8125 47.578125 
Q 36.03125 48 33.890625 48 
Q 26.265625 48 22.1875 43.046875 
Q 18.109375 38.09375 18.109375 28.8125 
L 18.109375 0 
L 9.078125 0 
L 9.078125 54.6875 
L 18.109375 54.6875 
L 18.109375 46.1875 
Q 20.953125 51.171875 25.484375 53.578125 
Q 30.03125 56 36.53125 56 
Q 37.453125 56 38.578125 55.875 
Q 39.703125 55.765625 41.0625 55.515625 
z
" id="DejaVuSans-114"/>
       <path d="M 56.203125 29.59375 
L 56.203125 25.203125 
L 14.890625 25.203125 
Q 15.484375 15.921875 20.484375 11.0625 
Q 25.484375 6.203125 34.421875 6.203125 
Q 39.59375 6.203125 44.453125 7.46875 
Q 49.3125 8.734375 54.109375 11.28125 
L 54.109375 2.78125 
Q 49.265625 0.734375 44.1875 -0.34375 
Q 39.109375 -1.421875 33.890625 -1.421875 
Q 20.796875 -1.421875 13.15625 6.1875 
Q 5.515625 13.8125 5.515625 26.8125 
Q 5.515625 40.234375 12.765625 48.109375 
Q 20.015625 56 32.328125 56 
Q 43.359375 56 49.78125 48.890625 
Q 56.203125 41.796875 56.203125 29.59375 
z
M 47.21875 32.234375 
Q 47.125 39.59375 43.09375 43.984375 
Q 39.0625 48.390625 32.421875 48.390625 
Q 24.90625 48.390625 20.390625 44.140625 
Q 15.875 39.890625 15.1875 32.171875 
z
" id="DejaVuSans-101"/>
       <path d="M 14.796875 27.296875 
Q 14.796875 17.390625 18.875 11.75 
Q 22.953125 6.109375 30.078125 6.109375 
Q 37.203125 6.109375 41.296875 11.75 
Q 45.40625 17.390625 45.40625 27.296875 
Q 45.40625 37.203125 41.296875 42.84375 
Q 37.203125 48.484375 30.078125 48.484375 
Q 22.953125 48.484375 18.875 42.84375 
Q 14.796875 37.203125 14.796875 27.296875 
z
M 45.40625 8.203125 
Q 42.578125 3.328125 38.25 0.953125 
Q 33.9375 -1.421875 27.875 -1.421875 
Q 17.96875 -1.421875 11.734375 6.484375 
Q 5.515625 14.40625 5.515625 27.296875 
Q 5.515625 40.1875 11.734375 48.09375 
Q 17.96875 56 27.875 56 
Q 33.9375 56 38.25 53.625 
Q 42.578125 51.265625 45.40625 46.390625 
L 45.40625 54.6875 
L 54.390625 54.6875 
L 54.390625 -20.796875 
L 45.40625 -20.796875 
z
" id="DejaVuSans-113"/>
       <path d="M 8.5 21.578125 
L 8.5 54.6875 
L 17.484375 54.6875 
L 17.484375 21.921875 
Q 17.484375 14.15625 20.5 10.265625 
Q 23.53125 6.390625 29.59375 6.390625 
Q 36.859375 6.390625 41.078125 11.03125 
Q 45.3125 15.671875 45.3125 23.6875 
L 45.3125 54.6875 
L 54.296875 54.6875 
L 54.296875 0 
L 45.3125 0 
L 45.3125 8.40625 
Q 42.046875 3.421875 37.71875 1 
Q 33.40625 -1.421875 27.6875 -1.421875 
Q 18.265625 -1.421875 13.375 4.4375 
Q 8.5 10.296875 8.5 21.578125 
z
M 31.109375 56 
z
" id="DejaVuSans-117"/>
       <path d="M 54.890625 33.015625 
L 54.890625 0 
L 45.90625 0 
L 45.90625 32.71875 
Q 45.90625 40.484375 42.875 44.328125 
Q 39.84375 48.1875 33.796875 48.1875 
Q 26.515625 48.1875 22.3125 43.546875 
Q 18.109375 38.921875 18.109375 30.90625 
L 18.109375 0 
L 9.078125 0 
L 9.078125 54.6875 
L 18.109375 54.6875 
L 18.109375 46.1875 
Q 21.34375 51.125 25.703125 53.5625 
Q 30.078125 56 35.796875 56 
Q 45.21875 56 50.046875 50.171875 
Q 54.890625 44.34375 54.890625 33.015625 
z
" id="DejaVuSans-110"/>
       <path d="M 48.78125 52.59375 
L 48.78125 44.1875 
Q 44.96875 46.296875 41.140625 47.34375 
Q 37.3125 48.390625 33.40625 48.390625 
Q 24.65625 48.390625 19.8125 42.84375 
Q 14.984375 37.3125 14.984375 27.296875 
Q 14.984375 17.28125 19.8125 11.734375 
Q 24.65625 6.203125 33.40625 6.203125 
Q 37.3125 6.203125 41.140625 7.25 
Q 44.96875 8.296875 48.78125 10.40625 
L 48.78125 2.09375 
Q 45.015625 0.34375 40.984375 -0.53125 
Q 36.96875 -1.421875 32.421875 -1.421875 
Q 20.0625 -1.421875 12.78125 6.34375 
Q 5.515625 14.109375 5.515625 27.296875 
Q 5.515625 40.671875 12.859375 48.328125 
Q 20.21875 56 33.015625 56 
Q 37.15625 56 41.109375 55.140625 
Q 45.0625 54.296875 48.78125 52.59375 
z
" id="DejaVuSans-99"/>
       <path d="M 32.171875 -5.078125 
Q 28.375 -14.84375 24.75 -17.8125 
Q 21.140625 -20.796875 15.09375 -20.796875 
L 7.90625 -20.796875 
L 7.90625 -13.28125 
L 13.1875 -13.28125 
Q 16.890625 -13.28125 18.9375 -11.515625 
Q 21 -9.765625 23.484375 -3.21875 
L 25.09375 0.875 
L 2.984375 54.6875 
L 12.5 54.6875 
L 29.59375 11.921875 
L 46.6875 54.6875 
L 56.203125 54.6875 
z
" id="DejaVuSans-121"/>
       <path id="DejaVuSans-32"/>
       <path d="M 8.59375 75.984375 
L 29.296875 75.984375 
L 29.296875 69 
L 17.578125 69 
L 17.578125 -6.203125 
L 29.296875 -6.203125 
L 29.296875 -13.1875 
L 8.59375 -13.1875 
z
" id="DejaVuSans-91"/>
       <path d="M 9.8125 72.90625 
L 19.671875 72.90625 
L 19.671875 43.015625 
L 55.515625 43.015625 
L 55.515625 72.90625 
L 65.375 72.90625 
L 65.375 0 
L 55.515625 0 
L 55.515625 34.71875 
L 19.671875 34.71875 
L 19.671875 0 
L 9.8125 0 
z
" id="DejaVuSans-72"/>
       <path d="M 5.515625 54.6875 
L 48.1875 54.6875 
L 48.1875 46.484375 
L 14.40625 7.171875 
L 48.1875 7.171875 
L 48.1875 0 
L 4.296875 0 
L 4.296875 8.203125 
L 38.09375 47.515625 
L 5.515625 47.515625 
z
" id="DejaVuSans-122"/>
       <path d="M 30.421875 75.984375 
L 30.421875 -13.1875 
L 9.71875 -13.1875 
L 9.71875 -6.203125 
L 21.390625 -6.203125 
L 21.390625 69 
L 9.71875 69 
L 9.71875 75.984375 
z
" id="DejaVuSans-93"/>
      </defs>
      <use xlink:href="#DejaVuSans-70"/>
      <use x="50.269531" xlink:href="#DejaVuSans-114"/>
      <use x="89.132812" xlink:href="#DejaVuSans-101"/>
      <use x="150.65625" xlink:href="#DejaVuSans-113"/>
      <use x="214.132812" xlink:href="#DejaVuSans-117"/>
      <use x="277.511719" xlink:href="#DejaVuSans-101"/>
      <use x="339.035156" xlink:href="#DejaVuSans-110"/>
      <use x="402.414062" xlink:href="#DejaVuSans-99"/>
      <use x="457.394531" xlink:href="#DejaVuSans-121"/>
      <use x="516.574219" xlink:href="#DejaVuSans-32"/>
      <use x="548.361328" xlink:href="#DejaVuSans-91"/>
      <use x="587.375" xlink:href="#DejaVuSans-72"/>
      <use x="662.570312" xlink:href="#DejaVuSans-122"/>
      <use x="715.060547" xlink:href="#DejaVuSans-93"/>
     </g>
    </g>
   </g>
   <g id="matplotlib.axis_2">
    <g id="ytick_1">
     <g id="line2d_7">
      <defs>
       <path d="M 0 0 
L -3.5 0 
" id="mb60f040997" style="stroke:#000000;stroke-width:0.8;"/>
      </defs>
      <g>
       <use style="stroke:#000000;stroke-width:0.8;" x="57.6" xlink:href="#mb60f040997" y="295.524587"/>
      </g>
     </g>
     <g id="text_8">
      <!-- 0 -->
      <g transform="translate(44.2375 299.323806)scale(0.1 -0.1)">
       <use xlink:href="#DejaVuSans-48"/>
      </g>
     </g>
    </g>
    <g id="ytick_2">
     <g id="line2d_8">
      <g>
       <use style="stroke:#000000;stroke-width:0.8;" x="57.6" xlink:href="#mb60f040997" y="257.634232"/>
      </g>
     </g>
     <g id="text_9">
      <!-- 20000 -->
      <g transform="translate(18.7875 261.433451)scale(0.1 -0.1)">
       <use xlink:href="#DejaVuSans-50"/>
       <use x="63.623047" xlink:href="#DejaVuSans-48"/>
       <use x="127.246094" xlink:href="#DejaVuSans-48"/>
       <use x="190.869141" xlink:href="#DejaVuSans-48"/>
       <use x="254.492188" xlink:href="#DejaVuSans-48"/>
      </g>
     </g>
    </g>
    <g id="ytick_3">
     <g id="line2d_9">
      <g>
       <use style="stroke:#000000;stroke-width:0.8;" x="57.6" xlink:href="#mb60f040997" y="219.743878"/>
      </g>
     </g>
     <g id="text_10">
      <!-- 40000 -->
      <g transform="translate(18.7875 223.543097)scale(0.1 -0.1)">
       <use xlink:href="#DejaVuSans-52"/>
       <use x="63.623047" xlink:href="#DejaVuSans-48"/>
       <use x="127.246094" xlink:href="#DejaVuSans-48"/>
       <use x="190.869141" xlink:href="#DejaVuSans-48"/>
       <use x="254.492188" xlink:href="#DejaVuSans-48"/>
      </g>
     </g>
    </g>
    <g id="ytick_4">
     <g id="line2d_10">
      <g>
       <use style="stroke:#000000;stroke-width:0.8;" x="57.6" xlink:href="#mb60f040997" y="181.853524"/>
      </g>
     </g>
     <g id="text_11">
      <!-- 60000 -->
      <g transform="translate(18.7875 185.652743)scale(0.1 -0.1)">
       <defs>
        <path d="M 33.015625 40.375 
Q 26.375 40.375 22.484375 35.828125 
Q 18.609375 31.296875 18.609375 23.390625 
Q 18.609375 15.53125 22.484375 10.953125 
Q 26.375 6.390625 33.015625 6.390625 
Q 39.65625 6.390625 43.53125 10.953125 
Q 47.40625 15.53125 47.40625 23.390625 
Q 47.40625 31.296875 43.53125 35.828125 
Q 39.65625 40.375 33.015625 40.375 
z
M 52.59375 71.296875 
L 52.59375 62.3125 
Q 48.875 64.0625 45.09375 64.984375 
Q 41.3125 65.921875 37.59375 65.921875 
Q 27.828125 65.921875 22.671875 59.328125 
Q 17.53125 52.734375 16.796875 39.40625 
Q 19.671875 43.65625 24.015625 45.921875 
Q 28.375 48.1875 33.59375 48.1875 
Q 44.578125 48.1875 50.953125 41.515625 
Q 57.328125 34.859375 57.328125 23.390625 
Q 57.328125 12.15625 50.6875 5.359375 
Q 44.046875 -1.421875 33.015625 -1.421875 
Q 20.359375 -1.421875 13.671875 8.265625 
Q 6.984375 17.96875 6.984375 36.375 
Q 6.984375 53.65625 15.1875 63.9375 
Q 23.390625 74.21875 37.203125 74.21875 
Q 40.921875 74.21875 44.703125 73.484375 
Q 48.484375 72.75 52.59375 71.296875 
z
" id="DejaVuSans-54"/>
       </defs>
       <use xlink:href="#DejaVuSans-54"/>
       <use x="63.623047" xlink:href="#DejaVuSans-48"/>
       <use x="127.246094" xlink:href="#DejaVuSans-48"/>
       <use x="190.869141" xlink:href="#DejaVuSans-48"/>
       <use x="254.492188" xlink:href="#DejaVuSans-48"/>
      </g>
     </g>
    </g>
    <g id="ytick_5">
     <g id="line2d_11">
      <g>
       <use style="stroke:#000000;stroke-width:0.8;" x="57.6" xlink:href="#mb60f040997" y="143.96317"/>
      </g>
     </g>
     <g id="text_12">
      <!-- 80000 -->
      <g transform="translate(18.7875 147.762388)scale(0.1 -0.1)">
       <defs>
        <path d="M 31.78125 34.625 
Q 24.75 34.625 20.71875 30.859375 
Q 16.703125 27.09375 16.703125 20.515625 
Q 16.703125 13.921875 20.71875 10.15625 
Q 24.75 6.390625 31.78125 6.390625 
Q 38.8125 6.390625 42.859375 10.171875 
Q 46.921875 13.96875 46.921875 20.515625 
Q 46.921875 27.09375 42.890625 30.859375 
Q 38.875 34.625 31.78125 34.625 
z
M 21.921875 38.8125 
Q 15.578125 40.375 12.03125 44.71875 
Q 8.5 49.078125 8.5 55.328125 
Q 8.5 64.0625 14.71875 69.140625 
Q 20.953125 74.21875 31.78125 74.21875 
Q 42.671875 74.21875 48.875 69.140625 
Q 55.078125 64.0625 55.078125 55.328125 
Q 55.078125 49.078125 51.53125 44.71875 
Q 48 40.375 41.703125 38.8125 
Q 48.828125 37.15625 52.796875 32.3125 
Q 56.78125 27.484375 56.78125 20.515625 
Q 56.78125 9.90625 50.3125 4.234375 
Q 43.84375 -1.421875 31.78125 -1.421875 
Q 19.734375 -1.421875 13.25 4.234375 
Q 6.78125 9.90625 6.78125 20.515625 
Q 6.78125 27.484375 10.78125 32.3125 
Q 14.796875 37.15625 21.921875 38.8125 
z
M 18.3125 54.390625 
Q 18.3125 48.734375 21.84375 45.5625 
Q 25.390625 42.390625 31.78125 42.390625 
Q 38.140625 42.390625 41.71875 45.5625 
Q 45.3125 48.734375 45.3125 54.390625 
Q 45.3125 60.0625 41.71875 63.234375 
Q 38.140625 66.40625 31.78125 66.40625 
Q 25.390625 66.40625 21.84375 63.234375 
Q 18.3125 60.0625 18.3125 54.390625 
z
" id="DejaVuSans-56"/>
       </defs>
       <use xlink:href="#DejaVuSans-56"/>
       <use x="63.623047" xlink:href="#DejaVuSans-48"/>
       <use x="127.246094" xlink:href="#DejaVuSans-48"/>
       <use x="190.869141" xlink:href="#DejaVuSans-48"/>
       <use x="254.492188" xlink:href="#DejaVuSans-48"/>
      </g>
     </g>
    </g>
    <g id="ytick_6">
     <g id="line2d_12">
      <g>
       <use style="stroke:#000000;stroke-width:0.8;" x="57.6" xlink:href="#mb60f040997" y="106.072815"/>
      </g>
     </g>
     <g id="text_13">
      <!-- 100000 -->
      <g transform="translate(12.425 109.872034)scale(0.1 -0.1)">
       <use xlink:href="#DejaVuSans-49"/>
       <use x="63.623047" xlink:href="#DejaVuSans-48"/>
       <use x="127.246094" xlink:href="#DejaVuSans-48"/>
       <use x="190.869141" xlink:href="#DejaVuSans-48"/>
       <use x="254.492188" xlink:href="#DejaVuSans-48"/>
       <use x="318.115234" xlink:href="#DejaVuSans-48"/>
      </g>
     </g>
    </g>
    <g id="ytick_7">
     <g id="line2d_13">
      <g>
       <use style="stroke:#000000;stroke-width:0.8;" x="57.6" xlink:href="#mb60f040997" y="68.182461"/>
      </g>
     </g>
     <g id="text_14">
      <!-- 120000 -->
      <g transform="translate(12.425 71.98168)scale(0.1 -0.1)">
       <use xlink:href="#DejaVuSans-49"/>
       <use x="63.623047" xlink:href="#DejaVuSans-50"/>
       <use x="127.246094" xlink:href="#DejaVuSans-48"/>
       <use x="190.869141" xlink:href="#DejaVuSans-48"/>
       <use x="254.492188" xlink:href="#DejaVuSans-48"/>
       <use x="318.115234" xlink:href="#DejaVuSans-48"/>
      </g>
     </g>
    </g>
    <g id="text_15">
     <!-- Intensity: |FFT()| [-] -->
     <g transform="translate(6.067187 222.48425)rotate(-90)scale(0.1 -0.1)">
      <defs>
       <path d="M 9.8125 72.90625 
L 19.671875 72.90625 
L 19.671875 0 
L 9.8125 0 
z
" id="DejaVuSans-73"/>
       <path d="M 18.3125 70.21875 
L 18.3125 54.6875 
L 36.8125 54.6875 
L 36.8125 47.703125 
L 18.3125 47.703125 
L 18.3125 18.015625 
Q 18.3125 11.328125 20.140625 9.421875 
Q 21.96875 7.515625 27.59375 7.515625 
L 36.8125 7.515625 
L 36.8125 0 
L 27.59375 0 
Q 17.1875 0 13.234375 3.875 
Q 9.28125 7.765625 9.28125 18.015625 
L 9.28125 47.703125 
L 2.6875 47.703125 
L 2.6875 54.6875 
L 9.28125 54.6875 
L 9.28125 70.21875 
z
" id="DejaVuSans-116"/>
       <path d="M 44.28125 53.078125 
L 44.28125 44.578125 
Q 40.484375 46.53125 36.375 47.5 
Q 32.28125 48.484375 27.875 48.484375 
Q 21.1875 48.484375 17.84375 46.4375 
Q 14.5 44.390625 14.5 40.28125 
Q 14.5 37.15625 16.890625 35.375 
Q 19.28125 33.59375 26.515625 31.984375 
L 29.59375 31.296875 
Q 39.15625 29.25 43.1875 25.515625 
Q 47.21875 21.78125 47.21875 15.09375 
Q 47.21875 7.46875 41.1875 3.015625 
Q 35.15625 -1.421875 24.609375 -1.421875 
Q 20.21875 -1.421875 15.453125 -0.5625 
Q 10.6875 0.296875 5.421875 2 
L 5.421875 11.28125 
Q 10.40625 8.6875 15.234375 7.390625 
Q 20.0625 6.109375 24.8125 6.109375 
Q 31.15625 6.109375 34.5625 8.28125 
Q 37.984375 10.453125 37.984375 14.40625 
Q 37.984375 18.0625 35.515625 20.015625 
Q 33.0625 21.96875 24.703125 23.78125 
L 21.578125 24.515625 
Q 13.234375 26.265625 9.515625 29.90625 
Q 5.8125 33.546875 5.8125 39.890625 
Q 5.8125 47.609375 11.28125 51.796875 
Q 16.75 56 26.8125 56 
Q 31.78125 56 36.171875 55.265625 
Q 40.578125 54.546875 44.28125 53.078125 
z
" id="DejaVuSans-115"/>
       <path d="M 9.421875 54.6875 
L 18.40625 54.6875 
L 18.40625 0 
L 9.421875 0 
z
M 9.421875 75.984375 
L 18.40625 75.984375 
L 18.40625 64.59375 
L 9.421875 64.59375 
z
" id="DejaVuSans-105"/>
       <path d="M 11.71875 12.40625 
L 22.015625 12.40625 
L 22.015625 0 
L 11.71875 0 
z
M 11.71875 51.703125 
L 22.015625 51.703125 
L 22.015625 39.3125 
L 11.71875 39.3125 
z
" id="DejaVuSans-58"/>
       <path d="M 21 76.421875 
L 21 -23.578125 
L 12.703125 -23.578125 
L 12.703125 76.421875 
z
" id="DejaVuSans-124"/>
       <path d="M -0.296875 72.90625 
L 61.375 72.90625 
L 61.375 64.59375 
L 35.5 64.59375 
L 35.5 0 
L 25.59375 0 
L 25.59375 64.59375 
L -0.296875 64.59375 
z
" id="DejaVuSans-84"/>
       <path d="M 31 75.875 
Q 24.46875 64.65625 21.28125 53.65625 
Q 18.109375 42.671875 18.109375 31.390625 
Q 18.109375 20.125 21.3125 9.0625 
Q 24.515625 -2 31 -13.1875 
L 23.1875 -13.1875 
Q 15.875 -1.703125 12.234375 9.375 
Q 8.59375 20.453125 8.59375 31.390625 
Q 8.59375 42.28125 12.203125 53.3125 
Q 15.828125 64.359375 23.1875 75.875 
z
" id="DejaVuSans-40"/>
       <path d="M 8.015625 75.875 
L 15.828125 75.875 
Q 23.140625 64.359375 26.78125 53.3125 
Q 30.421875 42.28125 30.421875 31.390625 
Q 30.421875 20.453125 26.78125 9.375 
Q 23.140625 -1.703125 15.828125 -13.1875 
L 8.015625 -13.1875 
Q 14.5 -2 17.703125 9.0625 
Q 20.90625 20.125 20.90625 31.390625 
Q 20.90625 42.671875 17.703125 53.65625 
Q 14.5 64.65625 8.015625 75.875 
z
" id="DejaVuSans-41"/>
       <path d="M 4.890625 31.390625 
L 31.203125 31.390625 
L 31.203125 23.390625 
L 4.890625 23.390625 
z
" id="DejaVuSans-45"/>
      </defs>
      <use xlink:href="#DejaVuSans-73"/>
      <use x="29.492188" xlink:href="#DejaVuSans-110"/>
      <use x="92.871094" xlink:href="#DejaVuSans-116"/>
      <use x="132.080078" xlink:href="#DejaVuSans-101"/>
      <use x="193.603516" xlink:href="#DejaVuSans-110"/>
      <use x="256.982422" xlink:href="#DejaVuSans-115"/>
      <use x="309.082031" xlink:href="#DejaVuSans-105"/>
      <use x="336.865234" xlink:href="#DejaVuSans-116"/>
      <use x="376.074219" xlink:href="#DejaVuSans-121"/>
      <use x="428.003906" xlink:href="#DejaVuSans-58"/>
      <use x="461.695312" xlink:href="#DejaVuSans-32"/>
      <use x="493.482422" xlink:href="#DejaVuSans-124"/>
      <use x="527.173828" xlink:href="#DejaVuSans-70"/>
      <use x="584.693359" xlink:href="#DejaVuSans-70"/>
      <use x="640.462891" xlink:href="#DejaVuSans-84"/>
      <use x="701.546875" xlink:href="#DejaVuSans-40"/>
      <use x="740.560547" xlink:href="#DejaVuSans-41"/>
      <use x="779.574219" xlink:href="#DejaVuSans-124"/>
      <use x="813.265625" xlink:href="#DejaVuSans-32"/>
      <use x="845.052734" xlink:href="#DejaVuSans-91"/>
      <use x="884.066406" xlink:href="#DejaVuSans-45"/>
      <use x="920.150391" xlink:href="#DejaVuSans-93"/>
     </g>
    </g>
   </g>
   <g id="line2d_14">
    <path clip-path="url(#p68e7224f84)" d="M 73.832727 291.770416 
L 74.645379 293.381164 
L 75.458032 293.63973 
L 75.864358 291.587435 
L 76.270684 290.974178 
L 76.67701 291.294601 
L 77.083336 287.177866 
L 77.895988 215.450781 
L 78.302314 196.223601 
L 78.70864 204.591441 
L 79.114966 256.164729 
L 79.521293 141.190023 
L 79.927619 109.767423 
L 80.333945 151.849754 
L 80.740271 221.555585 
L 81.146597 247.835072 
L 81.552923 154.366334 
L 81.959249 109.045041 
L 82.365575 245.896814 
L 82.771901 247.13539 
L 83.178227 214.614289 
L 83.584553 230.797766 
L 83.99088 166.032131 
L 84.397206 262.005413 
L 84.803532 223.776121 
L 85.209858 227.330417 
L 85.616184 211.261894 
L 86.02251 177.045046 
L 86.428836 222.655741 
L 86.835162 249.833543 
L 87.241488 165.848717 
L 87.647814 207.213868 
L 88.05414 262.214532 
L 88.460466 202.656735 
L 88.866793 199.217839 
L 89.273119 264.641954 
L 89.679445 140.621072 
L 90.085771 190.873464 
L 90.492097 198.792493 
L 90.898423 238.585165 
L 91.304749 201.630918 
L 91.711075 152.967176 
L 92.117401 147.236321 
L 92.523727 71.009585 
L 92.930053 228.297258 
L 93.33638 96.940163 
L 93.742706 184.239122 
L 94.149032 83.945114 
L 94.555358 145.733353 
L 94.961684 128.693921 
L 95.36801 177.826725 
L 95.774336 191.694728 
L 96.180662 213.845405 
L 96.586988 201.897406 
L 96.993314 141.159335 
L 97.39964 220.613758 
L 97.805967 170.644452 
L 98.212293 167.9542 
L 98.618619 202.889721 
L 99.024945 222.835425 
L 99.431271 161.295951 
L 99.837597 258.74706 
L 100.243923 275.613377 
L 100.650249 268.537782 
L 101.462901 213.544323 
L 101.869227 277.134937 
L 102.275554 255.961918 
L 102.68188 132.441854 
L 103.088206 99.268116 
L 103.494532 261.06117 
L 103.900858 167.512155 
L 104.307184 127.97991 
L 104.71351 231.306986 
L 105.119836 53.568 
L 105.526162 256.249915 
L 105.932488 253.221906 
L 106.338814 204.731366 
L 106.745141 194.171034 
L 107.151467 210.721338 
L 107.557793 217.758078 
L 107.964119 244.461809 
L 108.776771 158.069379 
L 109.183097 238.233727 
L 109.995749 277.383007 
L 110.402075 223.369286 
L 110.808401 258.499116 
L 111.214728 232.231509 
L 111.621054 255.859393 
L 112.02738 244.018389 
L 112.840032 119.964276 
L 113.246358 221.830925 
L 113.652684 281.610874 
L 114.05901 255.990192 
L 114.465336 131.657701 
L 114.871662 149.701631 
L 115.277988 223.898431 
L 115.684314 213.212076 
L 116.090641 288.304281 
L 116.496967 266.240186 
L 116.903293 281.202991 
L 117.309619 259.523128 
L 117.715945 278.051533 
L 118.122271 272.239349 
L 118.528597 258.694845 
L 118.934923 282.205288 
L 119.341249 288.535085 
L 119.747575 274.254279 
L 120.153901 287.661624 
L 120.560228 284.158192 
L 120.966554 270.506964 
L 121.37288 270.535573 
L 121.779206 285.118061 
L 122.185532 285.994704 
L 122.591858 270.241386 
L 122.998184 246.455378 
L 123.40451 267.200383 
L 123.810836 280.831149 
L 124.217162 275.96388 
L 125.029815 239.756866 
L 125.436141 250.011974 
L 125.842467 284.389909 
L 126.248793 276.527202 
L 126.655119 287.233037 
L 127.061445 280.287625 
L 127.467771 275.250065 
L 127.874097 294.037758 
L 128.280423 289.995754 
L 128.686749 287.229909 
L 129.093075 288.864756 
L 129.499402 281.643818 
L 129.905728 289.050116 
L 130.312054 293.758226 
L 130.71838 285.098258 
L 131.124706 284.784879 
L 131.937358 289.522874 
L 132.343684 288.499511 
L 132.75001 285.522402 
L 133.156336 293.506187 
L 133.562662 286.85617 
L 133.968989 293.969996 
L 134.375315 290.097805 
L 134.781641 278.018668 
L 135.187967 291.951149 
L 135.594293 281.9967 
L 136.000619 284.00575 
L 136.406945 290.45988 
L 136.813271 285.119437 
L 137.219597 291.814499 
L 137.625923 293.892408 
L 138.032249 280.741568 
L 138.438575 280.681516 
L 139.251228 291.410525 
L 139.657554 279.59319 
L 140.06388 285.705789 
L 140.470206 282.952114 
L 140.876532 285.418567 
L 141.282858 278.255469 
L 141.689184 290.805931 
L 142.09551 285.998182 
L 142.908162 289.035849 
L 143.314489 270.042854 
L 143.720815 264.804983 
L 144.533467 280.581713 
L 144.939793 283.757782 
L 145.346119 292.702496 
L 145.752445 257.627186 
L 146.158771 282.223417 
L 146.565097 281.950469 
L 146.971423 280.058068 
L 147.784076 285.594412 
L 148.190402 275.039135 
L 148.596728 271.601768 
L 149.003054 269.872947 
L 149.40938 276.061261 
L 149.815706 265.003027 
L 150.222032 269.59628 
L 151.034684 288.666503 
L 151.44101 291.274688 
L 151.847336 260.729372 
L 152.253663 239.865069 
L 152.659989 287.250366 
L 153.066315 286.504194 
L 153.472641 274.382892 
L 153.878967 290.504601 
L 154.285293 284.478937 
L 154.691619 273.382527 
L 155.097945 283.193054 
L 155.504271 253.309344 
L 155.910597 287.679434 
L 156.316923 288.571831 
L 156.72325 275.043121 
L 157.129576 289.53526 
L 157.535902 273.219436 
L 157.942228 282.625591 
L 158.348554 288.969918 
L 158.75488 272.881594 
L 159.161206 287.789919 
L 159.567532 285.690553 
L 159.973858 279.13742 
L 160.380184 291.175993 
L 160.78651 284.135016 
L 161.192837 287.809954 
L 161.599163 282.12001 
L 162.005489 286.436737 
L 162.411815 281.0499 
L 162.818141 292.307325 
L 163.224467 290.265376 
L 163.630793 294.492889 
L 164.037119 290.907571 
L 164.443445 293.433233 
L 165.256097 290.928785 
L 165.662423 292.639754 
L 166.06875 291.065445 
L 166.475076 293.693329 
L 166.881402 288.562111 
L 167.287728 290.136908 
L 167.694054 292.253108 
L 168.10038 292.663149 
L 168.506706 290.175639 
L 168.913032 286.585675 
L 169.319358 290.178708 
L 169.725684 285.923108 
L 170.13201 292.214114 
L 170.538337 290.969711 
L 170.944663 292.671026 
L 171.757315 288.111694 
L 172.163641 292.919486 
L 172.569967 287.525348 
L 172.976293 289.170051 
L 173.382619 291.646088 
L 173.788945 291.684756 
L 174.195271 289.407017 
L 175.007924 282.13508 
L 175.41425 288.66146 
L 175.820576 284.07147 
L 176.226902 288.004818 
L 176.633228 288.329498 
L 177.039554 280.683524 
L 177.44588 290.156941 
L 177.852206 286.328626 
L 178.258532 291.521593 
L 178.664858 292.376262 
L 179.071184 287.692061 
L 179.477511 292.667156 
L 179.883837 291.848231 
L 180.290163 287.425296 
L 180.696489 285.863247 
L 181.102815 283.339886 
L 181.509141 287.699447 
L 181.915467 290.161691 
L 182.321793 286.157433 
L 182.728119 287.369989 
L 183.134445 288.12425 
L 183.947098 292.041445 
L 184.353424 289.713732 
L 184.75975 294.571478 
L 185.166076 292.821973 
L 185.572402 292.604484 
L 185.978728 293.684244 
L 186.385054 293.037118 
L 186.79138 294.329184 
L 187.197706 293.756443 
L 187.604032 294.231496 
L 188.010358 288.0653 
L 188.416684 287.400265 
L 188.823011 293.055554 
L 189.635663 290.275675 
L 190.041989 294.392814 
L 190.448315 292.846677 
L 190.854641 293.417496 
L 191.260967 293.640028 
L 191.667293 293.031163 
L 192.073619 294.472093 
L 192.479945 293.621684 
L 192.886271 293.052556 
L 193.292598 291.940639 
L 194.10525 293.590947 
L 194.511576 291.814236 
L 194.917902 291.18307 
L 195.324228 289.913646 
L 195.730554 289.224097 
L 196.13688 291.740726 
L 196.543206 290.695463 
L 196.949532 292.404556 
L 197.355858 291.166299 
L 197.762185 290.523158 
L 198.574837 293.74188 
L 198.981163 289.934066 
L 199.387489 291.47974 
L 199.793815 290.442326 
L 200.200141 293.309043 
L 200.606467 294.781416 
L 201.012793 292.003225 
L 201.825445 294.498874 
L 202.231772 292.313829 
L 203.044424 293.585785 
L 203.45075 290.258884 
L 203.857076 292.15327 
L 204.263402 292.304017 
L 204.669728 291.905507 
L 205.076054 293.801954 
L 205.48238 292.509138 
L 205.888706 294.453157 
L 206.295032 292.060708 
L 206.701359 293.850591 
L 207.514011 292.701409 
L 207.920337 292.838799 
L 208.326663 292.450399 
L 208.732989 293.181601 
L 209.139315 293.006424 
L 209.545641 294.02222 
L 209.951967 292.21526 
L 210.358293 291.364035 
L 210.764619 293.350575 
L 211.170946 292.255564 
L 211.577272 293.800458 
L 211.983598 290.04293 
L 212.389924 290.978038 
L 212.79625 294.294794 
L 213.202576 293.33244 
L 213.608902 291.895407 
L 214.015228 291.722577 
L 214.421554 289.882154 
L 214.82788 293.31694 
L 215.234206 294.800326 
L 215.640532 294.170618 
L 216.046859 294.442347 
L 216.859511 293.955377 
L 217.265837 290.381642 
L 218.078489 293.800627 
L 218.484815 292.183639 
L 218.891141 292.363286 
L 219.297467 292.697056 
L 220.110119 295.051243 
L 220.516446 295.331152 
L 220.922772 291.244391 
L 221.329098 294.61471 
L 221.735424 295.354827 
L 222.14175 293.11131 
L 222.548076 292.988327 
L 222.954402 291.501282 
L 223.360728 294.643107 
L 223.767054 293.963826 
L 224.17338 291.359469 
L 224.579706 290.849494 
L 224.986033 293.942337 
L 225.392359 293.550173 
L 225.798685 291.660306 
L 226.205011 290.945821 
L 226.611337 291.731323 
L 227.017663 293.367562 
L 227.423989 293.905148 
L 227.830315 294.94266 
L 228.236641 295.238489 
L 228.642967 290.88683 
L 229.049293 293.242711 
L 229.45562 294.457568 
L 229.861946 291.715252 
L 230.268272 293.012568 
L 230.674598 291.387906 
L 231.080924 291.81676 
L 231.48725 293.450822 
L 231.893576 291.720637 
L 232.299902 288.963357 
L 232.706228 291.77774 
L 233.112554 292.500734 
L 233.51888 292.758885 
L 233.925207 293.586622 
L 234.331533 290.452721 
L 234.737859 290.860537 
L 235.550511 289.014471 
L 235.956837 291.950866 
L 236.363163 292.18922 
L 236.769489 294.398351 
L 237.175815 293.758166 
L 237.582141 292.80007 
L 237.988467 292.991364 
L 238.394793 292.825819 
L 238.80112 292.109317 
L 239.207446 292.961761 
L 239.613772 292.759551 
L 240.020098 292.333399 
L 240.426424 291.480989 
L 240.83275 288.762557 
L 241.239076 290.029541 
L 241.645402 293.151128 
L 242.051728 292.354677 
L 242.458054 294.392766 
L 242.86438 292.488295 
L 243.270707 293.34339 
L 243.677033 293.643272 
L 244.083359 292.347048 
L 244.489685 292.659255 
L 244.896011 291.612688 
L 245.302337 292.284441 
L 245.708663 291.055289 
L 246.114989 293.849186 
L 246.521315 292.60933 
L 246.927641 291.978335 
L 247.333967 290.74034 
L 247.740294 293.67776 
L 248.14662 293.430431 
L 248.552946 294.250976 
L 248.959272 293.192552 
L 249.365598 290.998708 
L 250.17825 293.742702 
L 250.584576 292.724148 
L 250.990902 293.493974 
L 251.397228 291.174052 
L 251.803554 290.099154 
L 252.209881 289.979352 
L 252.616207 292.455487 
L 253.022533 291.609263 
L 253.428859 292.929416 
L 253.835185 292.904899 
L 254.241511 293.91645 
L 254.647837 293.676065 
L 255.054163 292.155975 
L 255.460489 289.638425 
L 255.866815 292.912055 
L 256.273141 294.510108 
L 257.085794 293.26473 
L 257.49212 291.27352 
L 257.898446 290.633132 
L 258.304772 294.139738 
L 258.711098 294.656961 
L 259.117424 292.675276 
L 259.52375 294.278054 
L 259.930076 292.367499 
L 260.336402 293.169282 
L 260.742728 294.37214 
L 261.149054 294.640033 
L 261.555381 293.281291 
L 261.961707 293.509997 
L 262.368033 293.53831 
L 262.774359 294.418105 
L 263.180685 293.813884 
L 263.587011 293.852347 
L 263.993337 293.535172 
L 264.399663 292.462461 
L 264.805989 294.759538 
L 265.212315 294.27164 
L 265.618641 294.166319 
L 266.431294 292.805509 
L 266.83762 293.766174 
L 267.243946 292.928279 
L 267.650272 293.854006 
L 268.462924 292.948376 
L 268.86925 293.594282 
L 269.275576 293.513572 
L 269.681902 292.60698 
L 270.088228 292.775414 
L 270.494555 292.679056 
L 270.900881 292.339319 
L 271.307207 295.388939 
L 272.119859 291.465819 
L 272.526185 291.500306 
L 272.932511 292.929394 
L 273.338837 293.117024 
L 273.745163 294.041072 
L 274.151489 291.146083 
L 274.557815 290.597602 
L 274.964142 293.733379 
L 275.370468 293.65762 
L 276.18312 289.684848 
L 276.995772 292.344344 
L 277.402098 292.025501 
L 277.808424 291.477585 
L 278.21475 291.346464 
L 278.621076 286.198814 
L 279.027402 291.051413 
L 279.433729 292.372568 
L 279.840055 295.052784 
L 280.246381 293.857568 
L 280.652707 293.365337 
L 281.059033 293.22219 
L 281.465359 294.063236 
L 281.871685 292.818222 
L 282.278011 293.193449 
L 282.684337 291.048234 
L 283.090663 293.853312 
L 283.496989 293.256432 
L 283.903316 294.360982 
L 284.309642 294.291174 
L 284.715968 294.890053 
L 285.122294 293.968884 
L 285.52862 294.575445 
L 285.934946 293.482208 
L 286.341272 294.475059 
L 286.747598 294.239967 
L 287.153924 292.864326 
L 287.56025 292.88934 
L 287.966576 293.766827 
L 288.372902 295.215607 
L 288.779229 294.648945 
L 289.185555 295.40665 
L 289.591881 293.556006 
L 290.404533 294.811493 
L 290.810859 294.296904 
L 291.217185 294.502939 
L 291.623511 293.301401 
L 292.029837 294.783873 
L 292.436163 293.766742 
L 292.842489 294.528109 
L 293.248816 294.4198 
L 293.655142 294.981359 
L 294.061468 293.54203 
L 294.87412 295.310221 
L 295.280446 295.337423 
L 296.093098 294.027177 
L 296.499424 294.120819 
L 296.90575 293.853331 
L 297.312076 295.185399 
L 297.718403 294.405883 
L 298.531055 294.054876 
L 299.343707 294.687644 
L 300.156359 293.547668 
L 300.562685 294.984936 
L 300.969011 293.715788 
L 301.375337 294.917688 
L 301.781663 294.569615 
L 302.18799 294.793334 
L 302.594316 294.743218 
L 303.000642 294.385669 
L 303.406968 294.383416 
L 303.813294 293.45629 
L 304.21962 293.921651 
L 304.625946 294.056948 
L 305.032272 293.461687 
L 305.438598 293.666286 
L 305.844924 292.432474 
L 306.25125 294.286412 
L 306.657577 292.406225 
L 307.063903 294.219613 
L 307.470229 293.780727 
L 307.876555 293.705932 
L 308.282881 293.938392 
L 308.689207 291.886454 
L 309.095533 295.352017 
L 309.908185 291.729359 
L 310.314511 294.817188 
L 311.127163 294.313378 
L 311.53349 294.851624 
L 312.346142 293.708325 
L 312.752468 294.08824 
L 313.56512 293.129611 
L 313.971446 295.116092 
L 314.784098 294.113327 
L 315.190424 292.451385 
L 315.59675 292.472938 
L 316.003077 293.585424 
L 316.409403 294.13375 
L 316.815729 292.251806 
L 317.222055 295.381497 
L 317.628381 294.245093 
L 318.034707 294.641603 
L 318.441033 294.740522 
L 318.847359 292.564766 
L 319.253685 294.756196 
L 319.660011 292.270298 
L 320.066337 294.531155 
L 320.472664 294.447655 
L 320.87899 294.169056 
L 321.285316 294.883699 
L 321.691642 293.14318 
L 322.097968 295.129543 
L 322.504294 293.349864 
L 322.91062 293.610969 
L 323.316946 292.98605 
L 323.723272 294.683766 
L 324.535924 293.635328 
L 324.942251 295.016658 
L 325.348577 293.749524 
L 325.754903 294.363089 
L 326.161229 294.650031 
L 326.567555 294.64012 
L 326.973881 294.120526 
L 327.380207 294.90934 
L 327.786533 294.750483 
L 328.192859 295.346912 
L 328.599185 294.710696 
L 329.005511 294.981878 
L 329.411838 295.053259 
L 329.818164 294.05869 
L 330.22449 294.601278 
L 330.630816 293.731394 
L 331.037142 294.589438 
L 331.849794 294.564782 
L 332.662446 295.141081 
L 333.068772 294.666233 
L 333.475098 294.979863 
L 333.881425 294.912576 
L 334.287751 295.284806 
L 334.694077 295.432649 
L 335.100403 294.57015 
L 335.913055 294.01397 
L 337.132033 294.548409 
L 337.538359 295.186244 
L 337.944685 295.185437 
L 338.757338 294.40777 
L 339.163664 295.044073 
L 339.56999 294.640405 
L 339.976316 295.239797 
L 340.382642 295.090281 
L 340.788968 295.274503 
L 341.195294 294.351853 
L 341.60162 294.870333 
L 342.007946 294.727653 
L 342.414272 294.956651 
L 342.820598 294.396402 
L 343.226925 294.506865 
L 343.633251 294.85298 
L 344.039577 294.806683 
L 344.445903 293.679031 
L 344.852229 294.538626 
L 345.664881 294.222032 
L 346.071207 293.896882 
L 346.477533 293.3917 
L 347.290185 294.703008 
L 347.696512 294.822201 
L 348.102838 294.303636 
L 348.509164 294.738157 
L 348.91549 293.315228 
L 349.321816 294.878588 
L 349.728142 294.609094 
L 350.134468 295.13986 
L 350.540794 294.657732 
L 350.94712 293.009319 
L 351.759772 294.759231 
L 352.166099 294.862811 
L 352.572425 294.79449 
L 352.978751 293.927863 
L 353.385077 295.429667 
L 353.791403 294.855708 
L 354.604055 294.348797 
L 355.010381 295.39516 
L 355.416707 295.119469 
L 356.229359 295.341402 
L 356.635686 295.11502 
L 357.042012 294.149187 
L 357.448338 294.286018 
L 357.854664 294.206788 
L 358.26099 294.777856 
L 358.667316 294.779999 
L 359.073642 295.231985 
L 359.479968 294.720669 
L 359.886294 294.701529 
L 360.698946 295.133344 
L 361.105272 295.235186 
L 361.511599 295.170871 
L 361.917925 294.741782 
L 362.324251 294.902689 
L 363.136903 295.025881 
L 363.949555 295.365237 
L 364.355881 295.127705 
L 365.168533 295.090867 
L 365.574859 295.004743 
L 366.387512 294.646043 
L 366.793838 294.830303 
L 367.200164 294.71495 
L 367.60649 294.78001 
L 368.419142 295.290791 
L 368.825468 295.403826 
L 369.63812 294.802507 
L 370.044446 294.62425 
L 370.857099 294.944868 
L 371.263425 294.705218 
L 371.669751 294.637425 
L 372.076077 295.249483 
L 372.888729 295.252585 
L 373.295055 294.638369 
L 373.701381 294.504935 
L 374.107707 295.167314 
L 374.514033 295.327787 
L 374.92036 295.218025 
L 375.326686 294.785028 
L 376.139338 295.073838 
L 376.545664 294.873861 
L 377.358316 295.414816 
L 377.764642 295.315468 
L 378.170968 294.750854 
L 378.577294 294.927759 
L 378.98362 295.260356 
L 379.389947 295.250814 
L 380.202599 294.740985 
L 381.015251 294.877635 
L 381.421577 295.197222 
L 381.827903 295.128765 
L 382.234229 294.837919 
L 382.640555 295.281786 
L 383.046881 295.193679 
L 383.453207 294.942999 
L 384.26586 295.049284 
L 384.672186 294.859512 
L 385.484838 294.845098 
L 385.891164 295.149107 
L 386.29749 295.245405 
L 386.703816 294.683138 
L 387.516468 294.694612 
L 387.922794 294.164395 
L 388.32912 294.522082 
L 388.735447 294.270279 
L 389.548099 295.259051 
L 389.954425 294.853257 
L 390.360751 295.019439 
L 390.767077 295.416201 
L 391.173403 295.027459 
L 391.579729 294.827485 
L 391.986055 295.370447 
L 392.798707 294.999954 
L 393.205034 295.379597 
L 393.61136 295.145662 
L 394.017686 295.068613 
L 394.424012 295.320029 
L 395.236664 295.133823 
L 395.64299 295.24371 
L 396.455642 295.130278 
L 396.861968 295.134294 
L 397.268294 295.488 
L 397.674621 295.158406 
L 398.080947 295.103948 
L 398.487273 294.780661 
L 398.487273 294.780661 
" style="fill:none;stroke:#ff0000;stroke-linecap:square;stroke-width:1.5;"/>
   </g>
   <g id="patch_3">
    <path d="M 57.6 307.584 
L 57.6 41.472 
" style="fill:none;stroke:#000000;stroke-linecap:square;stroke-linejoin:miter;stroke-width:0.8;"/>
   </g>
   <g id="patch_4">
    <path d="M 414.72 307.584 
L 414.72 41.472 
" style="fill:none;stroke:#000000;stroke-linecap:square;stroke-linejoin:miter;stroke-width:0.8;"/>
   </g>
   <g id="patch_5">
    <path d="M 57.6 307.584 
L 414.72 307.584 
" style="fill:none;stroke:#000000;stroke-linecap:square;stroke-linejoin:miter;stroke-width:0.8;"/>
   </g>
   <g id="patch_6">
    <path d="M 57.6 41.472 
L 414.72 41.472 
" style="fill:none;stroke:#000000;stroke-linecap:square;stroke-linejoin:miter;stroke-width:0.8;"/>
   </g>
   <g id="legend_1">
    <g id="patch_7">
     <path d="M 364.934063 64.150125 
L 407.72 64.150125 
Q 409.72 64.150125 409.72 62.150125 
L 409.72 48.472 
Q 409.72 46.472 407.72 46.472 
L 364.934063 46.472 
Q 362.934063 46.472 362.934063 48.472 
L 362.934063 62.150125 
Q 362.934063 64.150125 364.934063 64.150125 
z
" style="fill:#ffffff;opacity:0.8;stroke:#cccccc;stroke-linejoin:miter;"/>
    </g>
    <g id="line2d_15">
     <path d="M 366.934063 54.570438 
L 386.934063 54.570438 
" style="fill:none;stroke:#ff0000;stroke-linecap:square;stroke-width:1.5;"/>
    </g>
    <g id="line2d_16"/>
    <g id="text_16">
     <!-- fft -->
     <g transform="translate(394.934063 58.070438)scale(0.1 -0.1)">
      <defs>
       <path d="M 37.109375 75.984375 
L 37.109375 68.5 
L 28.515625 68.5 
Q 23.6875 68.5 21.796875 66.546875 
Q 19.921875 64.59375 19.921875 59.515625 
L 19.921875 54.6875 
L 34.71875 54.6875 
L 34.71875 47.703125 
L 19.921875 47.703125 
L 19.921875 0 
L 10.890625 0 
L 10.890625 47.703125 
L 2.296875 47.703125 
L 2.296875 54.6875 
L 10.890625 54.6875 
L 10.890625 58.5 
Q 10.890625 67.625 15.140625 71.796875 
Q 19.390625 75.984375 28.609375 75.984375 
z
" id="DejaVuSans-102"/>
      </defs>
      <use xlink:href="#DejaVuSans-102"/>
      <use x="35.205078" xlink:href="#DejaVuSans-102"/>
      <use x="68.660156" xlink:href="#DejaVuSans-116"/>
     </g>
    </g>
   </g>
  </g>
 </g>
 <defs>
  <clipPath id="p68e7224f84">
   <rect height="266.112" width="357.12" x="57.6" y="41.472"/>
  </clipPath>
 </defs>
</svg>
